<svg width="53" height="53" viewBox="0 0 53 53" fill="none" xmlns="http://www.w3.org/2000/svg">
<path d="M40.4494 12.5527H12.5547V40.4475H40.4494V12.5527Z" fill="white"/>
<path d="M40.4502 53.0004L53.0029 40.4478L46.7266 39.377L40.4502 40.4478L39.3047 46.1887L40.4502 53.0004Z" fill="#EA4335"/>
<path d="M0 40.4478V48.8162C0 51.128 1.87243 53.0004 4.18421 53.0004H12.5526L13.8415 46.7241L12.5526 40.4478L5.71389 39.377L0 40.4478Z" fill="#188038"/>
<path d="M53.0029 12.5526V4.18421C53.0029 1.87243 51.1304 0 48.8187 0H40.4502C39.6865 3.11289 39.3047 5.40374 39.3047 6.87255C39.3047 8.34136 39.6865 10.2347 40.4502 12.5526C43.2264 13.3476 45.3185 13.7451 46.7266 13.7451C48.1346 13.7451 50.2267 13.3476 53.0029 12.5526Z" fill="#1967D2"/>
<path d="M52.9979 12.5527H40.4453V40.4475H52.9979V12.5527Z" fill="#FBBC04"/>
<path d="M40.4494 40.4473H12.5547V52.9999H40.4494V40.4473Z" fill="#34A853"/>
<path d="M40.4474 0H4.18421C1.87243 0 0 1.87243 0 4.18421V40.4474H12.5526V12.5526H40.4474V0Z" fill="#4285F4"/>
<path d="M18.2755 34.1924C17.233 33.4881 16.5112 32.4594 16.1172 31.0996L18.5371 30.1023C18.7567 30.9392 19.1403 31.5877 19.6877 32.048C20.2317 32.5083 20.8942 32.7349 21.6682 32.7349C22.4598 32.7349 23.1397 32.4943 23.708 32.0131C24.2764 31.5319 24.5623 30.9183 24.5623 30.1756C24.5623 29.4154 24.2624 28.7948 23.6627 28.3136C23.063 27.8324 22.3098 27.5918 21.4102 27.5918H20.012V25.1963H21.2673C22.0413 25.1963 22.6934 24.9871 23.2234 24.5687C23.7534 24.1503 24.0184 23.5785 24.0184 22.8497C24.0184 22.2012 23.7813 21.6851 23.3071 21.2981C22.8328 20.911 22.2331 20.7158 21.5044 20.7158C20.793 20.7158 20.2282 20.904 19.8098 21.2841C19.3916 21.6652 19.0772 22.1463 18.8962 22.6823L16.5007 21.6851C16.818 20.7855 17.4003 19.9905 18.2546 19.3036C19.1089 18.6167 20.2003 18.2715 21.5253 18.2715C22.5051 18.2715 23.3873 18.4598 24.1683 18.8398C24.9494 19.2199 25.563 19.7464 26.0059 20.4159C26.4487 21.0889 26.6684 21.842 26.6684 22.6789C26.6684 23.5331 26.4626 24.2549 26.0512 24.8477C25.6398 25.4404 25.1342 25.8937 24.5344 26.211V26.354C25.3088 26.6733 25.9815 27.1977 26.4801 27.8708C26.9857 28.5507 27.2402 29.3631 27.2402 30.3115C27.2402 31.26 26.9996 32.1073 26.5184 32.85C26.0373 33.5927 25.3713 34.1785 24.5274 34.6038C23.6801 35.0292 22.7282 35.2455 21.6717 35.2455C20.4478 35.2489 19.3181 34.8967 18.2755 34.1924ZM33.1399 22.1837L30.483 24.105L29.1545 22.0896L33.921 18.6516H35.7481V34.8688H33.1399V22.1837Z" fill="#4285F4"/>
</svg>
