<svg width="70" height="70" viewBox="0 0 70 70" fill="none" xmlns="http://www.w3.org/2000/svg">
<path d="M35 4.375C18.1084 4.375 4.375 18.1084 4.375 35C4.375 51.8917 18.1084 65.625 35 65.625C51.8917 65.625 65.625 51.8917 65.625 35C65.625 18.1084 51.8917 4.375 35 4.375Z" fill="#FDDD4C"/>
<path d="M21.5873 42.985C20.9176 41.9711 22.602 40.4368 21.9168 39.1484C21.5219 38.4055 20.8764 37.9424 20.1013 37.8453C19.3573 37.7519 18.5909 38.0242 18.1023 38.5564C17.3311 39.3958 17.2111 40.5383 17.3603 40.9425C17.4149 41.0906 17.5007 41.1311 17.5622 41.1399C17.9823 41.1952 18.2186 40.117 18.3637 39.8923C18.7647 39.2735 19.6752 39.0862 20.3041 39.4929C21.4964 40.2642 20.4625 41.5106 20.5517 42.5633C20.6385 43.5883 21.2772 44.0005 21.8505 44.0438C22.4084 44.0648 22.7984 43.755 22.8968 43.5288C23.1329 42.9887 22.1382 43.8191 21.5873 42.985Z" fill="black"/>
<path d="M46.5017 33.6788C46.1889 33.6357 45.8472 33.6366 45.4915 33.6788C45.2216 33.3382 44.9797 32.7865 44.8432 32.1427C44.6004 30.9973 44.6257 30.1676 45.3034 30.0598C45.9811 29.9522 46.3086 30.6452 46.5514 31.7905C46.7144 32.5605 46.6831 33.268 46.5017 33.6788Z" fill="black"/>
<path d="M39.0795 34.36C39.1064 34.6192 39.1158 34.8817 39.1081 35.1234C39.7639 35.1619 40.2283 35.4732 40.3519 35.6709C40.4154 35.7729 40.39 35.8394 40.3697 35.87C40.3016 35.9756 40.1562 35.9595 39.8514 35.9251C39.5852 35.8954 39.2987 35.8691 39.0007 35.8827C38.8386 36.3799 38.358 36.4265 38.0203 36.0588C37.7845 36.1305 37.3212 36.4265 37.1829 36.1049C37.1818 35.9455 37.3487 35.7134 37.6508 35.5086C37.4445 35.1151 37.3063 34.694 37.2247 34.2578C36.7964 34.335 36.4109 34.4549 36.1088 34.549C35.9671 34.5931 35.406 34.8467 35.3402 34.561C35.2962 34.3637 35.6033 34.0384 35.9282 33.8035C36.2908 33.546 36.6933 33.3629 37.1107 33.2572C37.1017 32.636 37.2601 32.2024 37.7116 32.1307C38.2712 32.0416 38.6181 32.4726 38.8581 33.2704C39.5345 33.4583 40.21 33.9242 40.5081 34.4059C40.6241 34.5927 40.6466 34.7371 40.5713 34.8132C40.3839 35.0075 39.3455 34.4442 39.0795 34.36Z" fill="black"/>
<path d="M43.5236 37.1523C43.9525 37.3601 44.4246 37.2783 44.5786 36.9694C44.7326 36.6603 44.5095 36.2417 44.0803 36.0338C43.6513 35.826 43.1795 35.9079 43.0253 36.2167C42.8713 36.5256 43.0946 36.9443 43.5236 37.1523Z" fill="black"/>
<path d="M45.6408 35.6177C45.6484 35.1452 45.9381 34.7678 46.2863 34.7735C46.6344 34.7803 46.9102 35.1673 46.9025 35.6389C46.8947 36.1105 46.605 36.4878 46.257 36.4819C45.9088 36.4763 45.6329 36.0893 45.6408 35.6177Z" fill="black"/>
<path fill-rule="evenodd" clip-rule="evenodd" d="M55.078 41.4052C55.0751 41.3954 55.0848 41.4295 55.078 41.4052C55.7771 41.4052 56.875 42.1984 56.875 44.1147C56.875 46.0215 56.0735 48.1812 55.8843 48.6607C52.9972 55.4905 46.1064 59.2924 37.898 59.0518C30.2457 58.8276 23.7195 54.8417 20.8635 48.344C19.1367 48.3459 17.3562 47.5961 16.0028 46.4122C14.5763 45.1649 13.6967 43.5507 13.5251 41.8672C13.3915 40.5565 13.5544 39.3369 13.9707 38.2734L12.3667 36.9316C5.02637 30.814 27.9845 5.62548 35.3268 11.9472C35.3638 11.9789 37.8249 14.362 37.8308 14.3678C41.3711 12.884 50.857 10.059 50.8675 16.6355C50.8714 18.8194 49.4616 21.3661 47.2023 23.6771C49.8133 26.0671 49.1247 29.4623 49.5405 32.5773L50.4473 32.8256C52.176 33.304 53.4056 33.9421 54.0074 34.5658C54.609 35.1886 54.9073 35.7921 55.0156 36.4995C55.1169 37.0702 55.1033 38.078 54.3408 39.205C54.6153 39.9321 54.866 40.6571 55.078 41.4052ZM20.7339 46.5721C20.9903 46.5778 21.2448 46.5614 21.4944 46.5191C24.1769 46.0676 24.8789 43.1917 24.4372 40.3677C23.938 37.179 21.7528 36.0548 20.2697 35.975C19.8573 35.9537 19.4741 35.9903 19.1581 36.0528C16.5108 36.5794 15.016 38.8027 15.3105 41.6902C15.5767 44.3034 18.2543 46.5065 20.7339 46.5721ZM14.7381 36.8364C15.6264 35.5631 17.0783 34.6419 18.7262 34.3251C20.8236 28.7678 24.3261 23.6473 28.9616 20.1236C32.4017 17.2909 36.1117 15.2591 36.1117 15.2591C36.1117 15.2591 34.1138 12.9722 33.5103 12.8038C29.7981 11.8143 21.7811 17.2717 16.6619 24.4827C14.5909 27.4 11.6257 32.5666 13.0435 35.2242C13.218 35.5534 14.2077 36.3993 14.7381 36.8364ZM44.8339 45.2957C44.8396 45.3554 44.8026 45.4171 44.749 45.4392C44.749 45.4392 41.7662 46.8088 37.0283 45.3622C37.1987 46.7823 38.9209 47.3204 40.1242 47.5153C45.995 48.5124 51.4839 45.1986 52.7192 44.364C52.9314 44.2207 52.7166 44.5891 52.6783 44.6432C51.1658 46.569 47.0999 48.7992 41.8101 48.7983C39.503 48.7972 37.1971 47.9955 36.3506 46.7626C35.0372 44.8501 36.2854 42.058 38.4744 42.3485C42.1746 42.761 45.9679 42.4511 49.3933 40.8817C52.3799 39.513 53.508 38.0078 53.3385 36.7883C53.0753 34.8983 50.2733 34.6027 48.8569 34.1434C48.2407 33.9421 47.9364 33.7813 47.8673 32.6371C47.8371 32.1374 47.7492 30.3944 47.717 29.6734C47.6606 28.4117 47.5064 26.686 46.4223 25.9737C46.1394 25.7878 45.8255 25.6983 45.495 25.681C45.2314 25.6683 45.075 25.7046 44.991 25.7241C44.9722 25.7285 44.9568 25.732 44.945 25.734C44.3594 25.8322 44.0007 26.1284 43.5776 26.4777C43.5533 26.4978 43.5286 26.5182 43.5039 26.5385C42.1514 27.6513 41.0095 27.8331 39.739 27.7793C39.3433 27.7626 38.9355 27.7233 38.5053 27.6815C38.1095 27.6432 37.695 27.603 37.2536 27.5772L36.7143 27.5463C34.5868 27.4385 32.305 29.2519 31.9257 31.8275C31.502 34.7025 33.1089 36.4634 34.1539 37.6086C34.4122 37.8916 34.6362 38.1369 34.7867 38.3523C34.8832 38.4823 34.9954 38.6651 34.9954 38.8393C34.9954 39.0473 34.8587 39.2118 34.7253 39.3522C32.5546 41.5555 31.8605 45.0561 32.6786 47.9734C32.781 48.3372 32.9105 48.6856 33.0636 49.0186C34.9827 53.4452 40.9364 55.5069 46.7517 53.6318C50.8274 52.3178 54.4285 49.1422 55.1618 44.7615C55.3363 43.6201 55.0799 43.1793 54.7308 42.9664C54.3613 42.7422 53.9186 42.8201 53.9186 42.8201C53.9186 42.8201 53.7167 41.4564 53.1453 40.2167C51.4498 41.5371 49.2675 42.4651 47.6059 42.9356C44.9439 43.6896 42.0683 43.983 39.3175 43.6275C38.2016 43.4833 37.452 43.3864 37.1306 44.417C40.7999 45.7432 44.6836 45.1754 44.6836 45.1754C44.7587 45.1677 44.826 45.2215 44.8339 45.2957ZM34.2475 19.5576C32.2407 20.5711 30 22.3757 28.1805 24.4519C28.1162 24.526 28.2118 24.628 28.2907 24.5713C29.8624 23.4423 32.0173 22.3932 34.8403 21.7136C38.0023 20.9523 41.0467 21.2718 42.9061 21.6924C42.9997 21.7136 43.0581 21.5548 42.9754 21.5086C41.7467 20.8281 39.8608 20.3661 38.5232 20.3565C38.4578 20.3555 38.4208 20.2804 38.4598 20.2285C38.6908 19.9214 39.0077 19.6182 39.2973 19.3988C39.3617 19.3487 39.3227 19.2458 39.2407 19.2506C37.5767 19.3514 33.7754 21.0846 33.7892 21.0216C33.8866 20.5596 34.1937 19.9493 34.3527 19.6644C34.3908 19.5971 34.3166 19.523 34.2475 19.5576Z" fill="black"/>
</svg>
