<svg width="44" height="44" viewBox="0 0 44 44" fill="none" xmlns="http://www.w3.org/2000/svg">
<path d="M12.8337 35.7501C12.8337 36.9657 12.3508 38.1314 11.4912 38.991C10.6317 39.8505 9.4659 40.3334 8.25033 40.3334C7.03475 40.3334 5.86896 39.8505 5.00942 38.991C4.14988 38.1314 3.66699 36.9657 3.66699 35.7501C3.66699 34.5345 4.14988 33.3687 5.00942 32.5092C5.86896 31.6496 7.03475 31.1667 8.25033 31.1667C9.4659 31.1667 10.6317 31.6496 11.4912 32.5092C12.3508 33.3687 12.8337 34.5345 12.8337 35.7501ZM40.3337 35.7501C40.3337 36.9657 39.8508 38.1314 38.9912 38.991C38.1317 39.8505 36.9659 40.3334 35.7503 40.3334C34.5348 40.3334 33.369 39.8505 32.5094 38.991C31.6499 38.1314 31.167 36.9657 31.167 35.7501C31.167 34.5345 31.6499 33.3687 32.5094 32.5092C33.369 31.6496 34.5348 31.1667 35.7503 31.1667C36.9659 31.1667 38.1317 31.6496 38.9912 32.5092C39.8508 33.3687 40.3337 34.5345 40.3337 35.7501Z" stroke="#795CF5" stroke-width="2.75"/>
<path d="M35.75 31.1667C35.442 26.6696 33.7242 25.6667 27.9162 25.6667H16.0838C10.2758 25.6667 8.558 26.6696 8.25 31.1667" stroke="#795CF5" stroke-width="2.75" stroke-linecap="round" stroke-linejoin="round"/>
<path d="M22 11.9167L23.8333 9.16675M30.25 11.9167C30.25 14.1048 29.3808 16.2032 27.8336 17.7504C26.2865 19.2976 24.188 20.1667 22 20.1667C19.812 20.1667 17.7135 19.2976 16.1664 17.7504C14.6192 16.2032 13.75 14.1048 13.75 11.9167C13.75 9.72871 14.6192 7.63029 16.1664 6.08312C17.7135 4.53594 19.812 3.66675 22 3.66675C24.188 3.66675 26.2865 4.53594 27.8336 6.08312C29.3808 7.63029 30.25 9.72871 30.25 11.9167Z" stroke="#F95C5B" stroke-width="2.75" stroke-linecap="round"/>
</svg>
