<svg width="43" height="43" viewBox="0 0 43 43" fill="none" xmlns="http://www.w3.org/2000/svg">
<path d="M28.5206 29.5832H13.9801C13.393 29.5832 12.917 29.1072 12.917 28.5201V13.9796C12.917 13.3925 13.393 12.9165 13.9801 12.9165H28.5206C29.1077 12.9165 29.5837 13.3925 29.5837 13.9796V28.5201C29.5837 29.1072 29.1077 29.5832 28.5206 29.5832Z" stroke="#795CF5" stroke-width="2.5" stroke-miterlimit="10"/>
<path d="M26.6025 8.47327V5.66467L28.4137 3.85352" stroke="#1AD1B9" stroke-width="2.5" stroke-miterlimit="10" stroke-linecap="round" stroke-linejoin="round"/>
<path d="M16.0621 8.47327V5.66467L14.251 3.85352" stroke="#1AD1B9" stroke-width="2.5" stroke-miterlimit="10" stroke-linecap="round" stroke-linejoin="round"/>
<path d="M21.25 8.47508V1.25" stroke="#1AD1B9" stroke-width="2.5" stroke-miterlimit="10" stroke-linecap="round" stroke-linejoin="round"/>
<path d="M16.0621 34.0249V36.8335L14.251 38.6447" stroke="#1AD1B9" stroke-width="2.5" stroke-miterlimit="10" stroke-linecap="round" stroke-linejoin="round"/>
<path d="M26.6025 34.0249V36.8335L28.4137 38.6447" stroke="#1AD1B9" stroke-width="2.5" stroke-miterlimit="10" stroke-linecap="round" stroke-linejoin="round"/>
<path d="M21.416 34.0249V41.25" stroke="#1AD1B9" stroke-width="2.5" stroke-miterlimit="10" stroke-linecap="round" stroke-linejoin="round"/>
<path d="M34.0244 26.5198H36.833L38.6442 28.3309" stroke="#1AD1B9" stroke-width="2.5" stroke-miterlimit="10" stroke-linecap="round" stroke-linejoin="round"/>
<path d="M34.0244 15.9799H36.833L38.6442 14.1687" stroke="#1AD1B9" stroke-width="2.5" stroke-miterlimit="10" stroke-linecap="round" stroke-linejoin="round"/>
<path d="M34.0244 21.1682H41.2495" stroke="#1AD1B9" stroke-width="2.5" stroke-miterlimit="10" stroke-linecap="round" stroke-linejoin="round"/>
<path d="M8.47326 15.9799H5.66467L3.85352 14.1687" stroke="#1AD1B9" stroke-width="2.5" stroke-miterlimit="10" stroke-linecap="round" stroke-linejoin="round"/>
<path d="M8.47326 26.5198H5.66467L3.85352 28.3309" stroke="#1AD1B9" stroke-width="2.5" stroke-miterlimit="10" stroke-linecap="round" stroke-linejoin="round"/>
<path d="M8.47507 21.3333H1.25" stroke="#1AD1B9" stroke-width="2.5" stroke-miterlimit="10" stroke-linecap="round" stroke-linejoin="round"/>
</svg>
