<svg width="47" height="47" viewBox="0 0 47 47" fill="none" xmlns="http://www.w3.org/2000/svg">
<path d="M15.8547 39.5141L4.95759 39.3564C2.89225 39.3385 1.23198 37.6716 1.25015 35.6328L1.52444 4.90833C1.5426 2.87043 3.23193 1.23222 5.29819 1.25015L36.4364 1.52169C38.5017 1.53961 40.162 3.20649 40.1429 5.2444L39.9812 16.2145" stroke="#795CF5" stroke-width="2.5" stroke-miterlimit="10" stroke-linecap="round" stroke-linejoin="round"/>
<path d="M34.4561 30.5599C32.3999 30.5599 30.7335 32.2041 30.7335 34.2331C30.7335 36.262 32.3999 37.9062 34.4561 37.9062C36.5124 37.9062 38.1787 36.262 38.1787 34.2331C38.1787 32.2041 36.5124 30.5599 34.4561 30.5599ZM44.9045 31.6115L43.897 32.43C42.7477 33.3644 42.7477 35.1006 43.897 36.035L44.9045 36.8535C45.2618 37.1438 45.3538 37.6457 45.1225 38.0412L43.1328 41.4419C42.9015 41.8374 42.4147 42.0094 41.9812 41.8493L40.7593 41.3977C39.3655 40.8827 37.8408 41.7501 37.595 43.1996L37.3807 44.4697C37.3044 44.9202 36.9096 45.25 36.447 45.25H32.4665C32.0039 45.25 31.6091 44.9202 31.5328 44.4697L31.3185 43.1996C31.0738 41.7501 29.5492 40.8815 28.1541 41.3977L26.9323 41.8493C26.4987 42.0094 26.0119 41.8374 25.7806 41.4419L23.791 38.0412C23.5597 37.6457 23.6517 37.1438 24.0089 36.8535L25.0165 36.035C26.1657 35.1006 26.1657 33.3644 25.0165 32.43L24.0089 31.6115C23.6517 31.3211 23.5597 30.8192 23.791 30.4237L25.7806 27.0231C26.0119 26.6275 26.4987 26.4555 26.9323 26.6156L28.1541 27.0673C29.548 27.5823 31.0726 26.7148 31.3185 25.2654L31.5328 23.9952C31.6091 23.5447 32.0039 23.2149 32.4665 23.2149H36.447C36.9096 23.2149 37.3044 23.5447 37.3807 23.9952L37.595 25.2654C37.8396 26.7148 39.3643 27.5835 40.7593 27.0673L41.9812 26.6156C42.4147 26.4555 42.9015 26.6275 43.1328 27.0231L45.1225 30.4237C45.3538 30.8192 45.2618 31.3211 44.9045 31.6115Z" stroke="#F95C5B" stroke-width="2.5" stroke-miterlimit="10" stroke-linecap="round" stroke-linejoin="round"/>
<path d="M23.2968 19.2704H18.0962C17.1807 19.2704 16.4377 18.5382 16.4377 17.634V1.99306C16.4377 1.88372 16.5277 1.7959 16.6376 1.7959H24.7545C24.8653 1.7959 24.9543 1.88462 24.9543 1.99306V17.6349C24.9552 18.5382 24.2132 19.2704 23.2968 19.2704Z" stroke="#795CF5" stroke-width="2.5" stroke-miterlimit="10" stroke-linecap="round" stroke-linejoin="round"/>
</svg>
