<svg width="19" height="16" viewBox="0 0 19 16" fill="none" xmlns="http://www.w3.org/2000/svg">
<mask id="path-1-inside-1_2873_4194" fill="white">
<path d="M17.4489 3.79077L17.3755 9.97979H8.18001L6.79665 4.04453C6.79255 4.02701 6.78777 4.00949 6.78264 3.99196L6.72352 3.79077H17.4489ZM5.0432 1H1.13202C0.952603 1 0.789936 1.06717 0.672379 1.18075C0.552771 1.29238 0.47998 1.44685 0.47998 1.61721C0.47998 1.95827 0.772849 2.23443 1.13202 2.23443H5.19903L5.7957 4.25482L7.20913 10.3199L7.26893 10.5837C7.3202 10.7988 7.53207 10.9533 7.77983 10.9533H17.8727C18.157 10.9533 18.3901 10.7482 18.3945 10.4964L18.48 3.28616C18.482 3.03045 18.249 2.81725 17.9581 2.81725H6.67465L6.43099 1.99884C6.37119 1.78985 6.25773 1.60294 6.1125 1.44847C5.84492 1.17069 5.46217 1 5.0432 1Z"/>
</mask>
<path d="M17.4489 3.79077L18.9488 3.80858L18.9669 2.29077H17.4489V3.79077ZM17.3755 9.97979V11.4798H18.8578L18.8754 9.99759L17.3755 9.97979ZM8.18001 9.97979L6.71916 10.3203L6.98941 11.4798H8.18001V9.97979ZM6.79665 4.04453L8.2575 3.70405L8.25719 3.70274L6.79665 4.04453ZM6.78264 3.99196L8.22231 3.57082L8.2218 3.56907L6.78264 3.99196ZM6.72352 3.79077V2.29077H4.71933L5.28437 4.21366L6.72352 3.79077ZM0.672379 1.18075L1.69584 2.27735L1.70531 2.26851L1.71462 2.25951L0.672379 1.18075ZM5.19903 2.23443L6.63761 1.80958L6.32009 0.734429H5.19903V2.23443ZM5.7957 4.25482L7.25656 3.91437L7.24665 3.87185L7.23428 3.82997L5.7957 4.25482ZM7.20913 10.3199L8.67204 9.98826L8.66999 9.97943L7.20913 10.3199ZM7.26893 10.5837L5.80605 10.9153L5.80787 10.9233L5.80978 10.9313L7.26893 10.5837ZM18.3945 10.4964L19.8943 10.5229L19.8944 10.5142L18.3945 10.4964ZM18.48 3.28616L19.9799 3.30393L19.9799 3.29819L18.48 3.28616ZM6.67465 2.81725L5.23702 3.24526L5.55617 4.31725H6.67465V2.81725ZM6.43099 1.99884L4.98888 2.41152L4.99108 2.4192L4.99336 2.42685L6.43099 1.99884ZM6.1125 1.44847L7.20529 0.420953L7.19909 0.414352L7.1928 0.407827L6.1125 1.44847ZM17.4489 3.79077L15.9491 3.77296L15.8756 9.96198L17.3755 9.97979L18.8754 9.99759L18.9488 3.80858L17.4489 3.79077ZM17.3755 9.97979V8.47979H8.18001V9.97979V11.4798H17.3755V9.97979ZM8.18001 9.97979L9.64085 9.6393L8.2575 3.70405L6.79665 4.04453L5.33581 4.38502L6.71916 10.3203L8.18001 9.97979ZM6.79665 4.04453L8.25719 3.70274C8.24488 3.65013 8.23221 3.60468 8.22231 3.57082L6.78264 3.99196L5.34298 4.4131C5.34332 4.4143 5.34022 4.4039 5.33611 4.38633L6.79665 4.04453ZM6.78264 3.99196L8.2218 3.56907L8.16268 3.36788L6.72352 3.79077L5.28437 4.21366L5.34349 4.41485L6.78264 3.99196ZM6.72352 3.79077V5.29077H17.4489V3.79077V2.29077H6.72352V3.79077ZM5.0432 1V-0.5H1.13202V1V2.5H5.0432V1ZM1.13202 1V-0.5C0.574499 -0.5 0.0350267 -0.289196 -0.369864 0.101988L0.672379 1.18075L1.71462 2.25951C1.54485 2.42354 1.33071 2.5 1.13202 2.5V1ZM0.672379 1.18075L-0.351082 0.0841524C-0.755447 0.461548 -1.02002 1.00551 -1.02002 1.61721H0.47998H1.97998C1.97998 1.88819 1.86099 2.12322 1.69584 2.27735L0.672379 1.18075ZM0.47998 1.61721H-1.02002C-1.02002 2.86485 0.0247922 3.73443 1.13202 3.73443V2.23443V0.734429C1.52091 0.734429 1.97998 1.0517 1.97998 1.61721H0.47998ZM1.13202 2.23443V3.73443H5.19903V2.23443V0.734429H1.13202V2.23443ZM5.19903 2.23443L3.76045 2.65928L4.35713 4.67967L5.7957 4.25482L7.23428 3.82997L6.63761 1.80958L5.19903 2.23443ZM5.7957 4.25482L4.33485 4.59526L5.74828 10.6603L7.20913 10.3199L8.66999 9.97943L7.25656 3.91437L5.7957 4.25482ZM7.20913 10.3199L5.74624 10.6515L5.80605 10.9153L7.26893 10.5837L8.73182 10.2521L8.67202 9.98826L7.20913 10.3199ZM7.26893 10.5837L5.80978 10.9313C6.04563 11.9213 6.94495 12.4533 7.77983 12.4533V10.9533V9.45331C8.1192 9.45331 8.59476 9.67644 8.72809 10.236L7.26893 10.5837ZM7.77983 10.9533V12.4533H17.8727V10.9533V9.45331H7.77983V10.9533ZM17.8727 10.9533V12.4533C18.8118 12.4533 19.8727 11.7468 19.8943 10.5229L18.3945 10.4964L16.8948 10.4699C16.9075 9.74962 17.5023 9.45331 17.8727 9.45331V10.9533ZM18.3945 10.4964L19.8944 10.5142L19.9799 3.30393L18.48 3.28616L16.9801 3.26839L16.8946 10.4786L18.3945 10.4964ZM18.48 3.28616L19.9799 3.29819C19.9899 2.05857 18.9229 1.31725 17.9581 1.31725V2.81725V4.31725C17.575 4.31725 16.9742 4.00233 16.98 3.27413L18.48 3.28616ZM17.9581 2.81725V1.31725H6.67465V2.81725V4.31725H17.9581V2.81725ZM6.67465 2.81725L8.11229 2.38923L7.86863 1.57082L6.43099 1.99884L4.99336 2.42685L5.23702 3.24526L6.67465 2.81725ZM6.43099 1.99884L7.87311 1.58615C7.7402 1.12172 7.49504 0.729109 7.20529 0.420953L6.1125 1.44847L5.0197 2.47599C5.01933 2.4756 5.0153 2.47129 5.00955 2.46147C5.00364 2.45139 4.99554 2.43478 4.98888 2.41152L6.43099 1.99884ZM6.1125 1.44847L7.1928 0.407827C6.64401 -0.161885 5.87192 -0.5 5.0432 -0.5V1V2.5C5.04809 2.5 5.04857 2.50085 5.04626 2.49986C5.04472 2.49921 5.0395 2.4967 5.03219 2.48911L6.1125 1.44847Z" fill="white" mask="url(#path-1-inside-1_2873_4194)"/>
<path d="M11.3416 13.7977C11.3416 14.4616 10.775 14.9997 10.0778 14.9997C9.37861 14.9997 8.81201 14.4616 8.81201 13.7977C8.81201 13.7733 8.81406 13.749 8.81645 13.7247C8.85712 13.0951 9.40458 12.5977 10.0781 12.5977C10.7497 12.5977 11.2992 13.0951 11.3398 13.7247C11.3416 13.7487 11.3416 13.773 11.3416 13.7977Z" stroke="white" stroke-width="1.5" stroke-miterlimit="10" stroke-linecap="round" stroke-linejoin="round"/>
<path d="M16.8884 13.7977C16.8884 14.4616 16.3218 14.9997 15.6247 14.9997C14.9255 14.9997 14.3589 14.4616 14.3589 13.7977C14.3589 13.7733 14.3609 13.749 14.3609 13.7247C14.4016 13.0951 14.9511 12.5977 15.6247 12.5977C16.2962 12.5977 16.8457 13.0951 16.884 13.7247C16.8864 13.7487 16.8884 13.773 16.8884 13.7977Z" stroke="white" stroke-width="1.5" stroke-miterlimit="10" stroke-linecap="round" stroke-linejoin="round"/>
</svg>
