<svg width="47" height="43" viewBox="0 0 47 43" fill="none" xmlns="http://www.w3.org/2000/svg">
<path d="M1.25012 3.56337L4.84067 3.21366C6.91387 3.01205 8.86125 4.25993 9.57673 6.25023L19.1165 32.7911" stroke="#1AD1B9" stroke-width="2.5" stroke-miterlimit="10" stroke-linecap="round" stroke-linejoin="round"/>
<path d="M45.2499 25.7871L22.3282 34.3187" stroke="#1AD1B9" stroke-width="2.5" stroke-miterlimit="10" stroke-linecap="round" stroke-linejoin="round"/>
<path d="M19.1236 41.2509C21.4203 41.2509 23.2822 39.3562 23.2822 37.019C23.2822 34.6818 21.4203 32.7871 19.1236 32.7871C16.8268 32.7871 14.965 34.6818 14.965 37.019C14.965 39.3562 16.8268 41.2509 19.1236 41.2509Z" stroke="#1AD1B9" stroke-width="2.5" stroke-miterlimit="10" stroke-linecap="round" stroke-linejoin="round"/>
<path d="M39.0855 20.0901L28.0726 24.1892C26.067 24.9354 23.8464 23.8863 23.1121 21.8454L19.084 10.6383C18.3507 8.59741 19.3817 6.33766 21.3873 5.59046L32.4002 1.49138C34.4058 0.745132 36.6264 1.79427 37.3607 3.83521L41.3888 15.0422C42.1221 17.0832 41.0911 19.3429 39.0855 20.0901Z" stroke="#F95C5B" stroke-width="2.5" stroke-miterlimit="10" stroke-linecap="round" stroke-linejoin="round"/>
<path d="M29.09 3.6499L31.5789 10.5744L29.09 3.6499Z" stroke="#F95C5B" stroke-width="2.5" stroke-miterlimit="10" stroke-linecap="round" stroke-linejoin="round"/>
</svg>
