<svg width="18" height="16" viewBox="0 0 18 16" fill="none" xmlns="http://www.w3.org/2000/svg">
<path d="M7.39155 8.496V14.4508C7.39155 14.6165 7.25621 14.7501 7.08829 14.7501H1.05326C0.885337 14.7501 0.75 14.6165 0.75 14.4508V8.496C0.75 8.33032 0.885337 8.19678 1.05326 8.19678H7.08829C7.25621 8.19678 7.39155 8.33032 7.39155 8.496Z" stroke="white" stroke-width="1.5"/>
<path d="M16.4478 14.7501H10.4125C10.2447 14.7501 10.1094 14.6166 10.1094 14.451V8.49589C10.1094 8.33027 10.2447 8.19678 10.4125 8.19678H16.4478C16.6156 8.19678 16.7509 8.33027 16.7509 8.49589V14.451C16.7484 14.6166 16.6131 14.7501 16.4478 14.7501Z" stroke="white" stroke-width="1.5"/>
<path d="M12.2236 1.04911V7.00418C12.2236 7.16981 12.0882 7.3033 11.9203 7.3033H5.88529C5.71737 7.3033 5.58203 7.16981 5.58203 7.00418V1.04911C5.58203 0.883489 5.71737 0.75 5.88529 0.75H11.9203C12.0882 0.75 12.2236 0.883489 12.2236 1.04911Z" stroke="white" stroke-width="1.5"/>
</svg>
