<svg width="47" height="43" viewBox="0 0 47 43" fill="none" xmlns="http://www.w3.org/2000/svg">
<path d="M19.5142 23.3823V40.3958C19.5142 40.8692 19.142 41.2507 18.6802 41.2507H2.08395C1.62218 41.2507 1.25 40.8692 1.25 40.3958V23.3823C1.25 22.9089 1.62218 22.5273 2.08395 22.5273H18.6802C19.142 22.5273 19.5142 22.9089 19.5142 23.3823Z" stroke="#795CF5" stroke-width="2.5"/>
<path d="M44.4149 41.2507H27.818C27.3564 41.2507 26.9844 40.8694 26.9844 40.3961V23.3819C26.9844 22.9087 27.3564 22.5273 27.818 22.5273H44.4149C44.8765 22.5273 45.2486 22.9087 45.2486 23.3819V40.3961C45.2417 40.8694 44.8696 41.2507 44.4149 41.2507Z" stroke="#F95C5B" stroke-width="2.5"/>
<path d="M32.7954 2.10459V19.1188C32.7954 19.592 32.4233 19.9734 31.9615 19.9734H15.3652C14.9034 19.9734 14.5312 19.592 14.5312 19.1188V2.10459C14.5312 1.63139 14.9034 1.25 15.3652 1.25H31.9615C32.4233 1.25 32.7954 1.63139 32.7954 2.10459Z" stroke="#1AD1B9" stroke-width="2.5"/>
</svg>
