<svg width="47" height="47" viewBox="0 0 47 47" fill="none" xmlns="http://www.w3.org/2000/svg">
<path d="M34.2803 40.4091C33.851 43.1511 31.4318 45.25 28.5109 45.25H7.08657C3.86268 45.25 1.25 42.693 1.25 39.5378V6.96222C1.25 3.80701 3.86268 1.25 7.08657 1.25H28.5109C31.4318 1.25 33.851 3.34886 34.2803 6.09086" stroke="#1AD1B9" stroke-width="2.5" stroke-miterlimit="10" stroke-linecap="round" stroke-linejoin="round"/>
<path d="M26.5987 37.2539H8.92383V37.2928H26.5987V37.2539Z" stroke="#1AD1B9" stroke-width="2.5" stroke-miterlimit="10" stroke-linecap="round" stroke-linejoin="round"/>
<path d="M45.2504 13.8649V32.6343C45.2504 33.5262 44.4967 34.25 43.5658 34.25H32.2535C32.1409 34.25 32.0505 34.1624 32.0505 34.0553V12.4447C32.0505 12.3367 32.1419 12.25 32.2535 12.25H43.5667C44.4967 12.2491 45.2504 12.9729 45.2504 13.8649Z" stroke="#795CF5" stroke-width="2.5" stroke-miterlimit="10" stroke-linecap="round" stroke-linejoin="round"/>
<path d="M32.0505 18.8496H38.6505H32.0505Z" stroke="#795CF5" stroke-width="2.5" stroke-miterlimit="10" stroke-linecap="round" stroke-linejoin="round"/>
</svg>
