<svg width="24" height="24" viewBox="0 0 24 24" fill="none" xmlns="http://www.w3.org/2000/svg">
<path d="M21.5 9H21V8.5C21 7.122 19.878 6 18.5 6H16V3H19C19.2652 3 19.5196 2.89464 19.7071 2.70711C19.8946 2.51957 20 2.26522 20 2C20 1.73478 19.8946 1.48043 19.7071 1.29289C19.5196 1.10536 19.2652 1 19 1H11C10.7348 1 10.4804 1.10536 10.2929 1.29289C10.1054 1.48043 10 1.73478 10 2C10 2.26522 10.1054 2.51957 10.2929 2.70711C10.4804 2.89464 10.7348 3 11 3H14V6H11.437C10.9972 5.99948 10.5626 6.09599 10.1644 6.28268C9.76613 6.46936 9.41396 6.7416 9.133 7.08L7.532 9H7.5C6.8372 9.00079 6.20178 9.26444 5.73311 9.73311C5.26444 10.2018 5.00079 10.8372 5 11.5V13H2V10C2 9.73478 1.89464 9.48043 1.70711 9.29289C1.51957 9.10536 1.26522 9 1 9C0.734784 9 0.48043 9.10536 0.292893 9.29289C0.105357 9.48043 0 9.73478 0 10L0 18C0 18.2652 0.105357 18.5196 0.292893 18.7071C0.48043 18.8946 0.734784 19 1 19C1.26522 19 1.51957 18.8946 1.70711 18.7071C1.89464 18.5196 2 18.2652 2 18V15H5V17.171C5 17.972 5.312 18.726 5.879 19.293L7.707 21.121C8.273 21.688 9.027 22 9.829 22H18.5C19.708 22 20.717 21.14 20.95 20H21.5C22.878 20 24 18.878 24 17.5V11.5C24 10.122 22.878 9 21.5 9ZM22 17.5C22 17.6326 21.9473 17.7598 21.8536 17.8536C21.7598 17.9473 21.6326 18 21.5 18H20C19.7348 18 19.4804 18.1054 19.2929 18.2929C19.1054 18.4804 19 18.7348 19 19V19.5C19 19.6326 18.9473 19.7598 18.8536 19.8536C18.7598 19.9473 18.6326 20 18.5 20H9.829C9.69749 20.0003 9.56721 19.9746 9.4457 19.9243C9.32418 19.874 9.21382 19.8002 9.121 19.707L7.293 17.879C7.19975 17.7862 7.12583 17.6759 7.07554 17.5544C7.02524 17.4328 6.99957 17.3025 7 17.171V11.5C7 11.3674 7.05268 11.2402 7.14645 11.1464C7.24021 11.0527 7.36739 11 7.5 11H8C8.14657 10.9999 8.29134 10.9677 8.42406 10.9055C8.55678 10.8432 8.67419 10.7526 8.768 10.64L10.669 8.36C10.859 8.131 11.139 8 11.437 8H18.5C18.6326 8 18.7598 8.05268 18.8536 8.14645C18.9473 8.24021 19 8.36739 19 8.5V10C19 10.2652 19.1054 10.5196 19.2929 10.7071C19.4804 10.8946 19.7348 11 20 11H21.5C21.6326 11 21.7598 11.0527 21.8536 11.1464C21.9473 11.2402 22 11.3674 22 11.5V17.5Z" fill="#795CF5"/>
</svg>
