<svg width="24" height="24" viewBox="0 0 24 24" fill="none" xmlns="http://www.w3.org/2000/svg">
<path d="M5.41992 9.41998L7.99992 12" stroke="#1AD1B9" stroke-width="1.5" stroke-linecap="round" stroke-linejoin="round"/>
<path d="M4 10C5.10457 10 6 9.10457 6 8C6 6.89543 5.10457 6 4 6C2.89543 6 2 6.89543 2 8C2 9.10457 2.89543 10 4 10Z" stroke="#1AD1B9" stroke-width="1.5" stroke-linecap="round" stroke-linejoin="round"/>
<path d="M13.9999 6L5.41992 14.58" stroke="#1AD1B9" stroke-width="1.5" stroke-linecap="round" stroke-linejoin="round"/>
<path d="M4 18C5.10457 18 6 17.1046 6 16C6 14.8954 5.10457 14 4 14C2.89543 14 2 14.8954 2 16C2 17.1046 2.89543 18 4 18Z" stroke="#1AD1B9" stroke-width="1.5" stroke-linecap="round" stroke-linejoin="round"/>
<path d="M10.7998 14.8L13.9998 18" stroke="#795CF5" stroke-width="1.5" stroke-linecap="round" stroke-linejoin="round"/>
<path d="M16 12H14" stroke="#F95C5B" stroke-width="1.5" stroke-linecap="round" stroke-linejoin="round"/>
<path d="M22 12H20" stroke="#F95C5B" stroke-width="1.5" stroke-linecap="round" stroke-linejoin="round"/>
</svg>
