<svg width="25" height="21" viewBox="0 0 25 21" fill="none" xmlns="http://www.w3.org/2000/svg">
<path d="M22.643 3.98683L22.545 12.8283H10.2747L8.42883 4.34935C8.42335 4.32432 8.41697 4.29928 8.41013 4.27425L8.33124 3.98683H22.643ZM6.08906 0H0.870061C0.630657 0 0.413598 0.095962 0.256732 0.258217C0.0971294 0.41769 0 0.638356 0 0.881738C0 1.36897 0.390798 1.76348 0.870061 1.76348H6.29699L7.09318 4.64975L8.97923 13.3142L9.05903 13.691C9.12743 13.9984 9.41015 14.2191 9.74076 14.2191H23.2085C23.5879 14.2191 23.8988 13.9261 23.9048 13.5663L24.0188 3.26595C24.0215 2.90065 23.7105 2.59607 23.3225 2.59607H8.26603L7.9409 1.42691C7.8611 1.12837 7.7097 0.86134 7.5159 0.640674C7.15885 0.243845 6.64812 0 6.08906 0Z" fill="#F95C5B"/>
<path d="M14.4925 18.2829C14.4925 19.2314 13.7365 20.0001 12.8062 20.0001C11.8732 20.0001 11.1172 19.2314 11.1172 18.2829C11.1172 18.2482 11.1199 18.2134 11.1231 18.1786C11.1774 17.2793 11.9079 16.5686 12.8067 16.5686C13.7027 16.5686 14.436 17.2793 14.4903 18.1786C14.4925 18.2129 14.4925 18.2477 14.4925 18.2829Z" stroke="#1AD1B9" stroke-width="1.5" stroke-miterlimit="10" stroke-linecap="round" stroke-linejoin="round"/>
<path d="M21.8949 18.2829C21.8949 19.2314 21.1388 20.0001 20.2086 20.0001C19.2756 20.0001 18.5195 19.2314 18.5195 18.2829C18.5195 18.2482 18.5223 18.2134 18.5223 18.1786C18.5765 17.2793 19.3098 16.5686 20.2086 16.5686C21.1046 16.5686 21.8379 17.2793 21.889 18.1786C21.8922 18.2129 21.8949 18.2477 21.8949 18.2829Z" stroke="#1AD1B9" stroke-width="1.5" stroke-miterlimit="10" stroke-linecap="round" stroke-linejoin="round"/>
</svg>
