<svg width="24" height="24" viewBox="0 0 24 24" fill="none" xmlns="http://www.w3.org/2000/svg">
<path d="M11.25 16.2502H12.75L12 17.0002L11.25 16.2502Z" stroke="#F95C5B" stroke-width="1.5" stroke-linecap="round" stroke-linejoin="round"/>
<path d="M16.0015 14.0002V14.5002" stroke="#795CF5" stroke-width="1.5" stroke-linecap="round" stroke-linejoin="round"/>
<path d="M4.42147 11.2468C4.1416 12.3275 4.00047 13.4395 4.00147 14.5558C4.00147 18.7278 7.58347 20.9998 12.0015 20.9998C16.4195 20.9998 20.0015 18.7278 20.0015 14.5558C19.9965 13.4349 19.8304 12.3205 19.5085 11.2468" stroke="#1AD1B9" stroke-width="1.5" stroke-linecap="round" stroke-linejoin="round"/>
<path d="M7.99854 14.0002V14.5002" stroke="#795CF5" stroke-width="1.5" stroke-linecap="round" stroke-linejoin="round"/>
<path d="M8.49949 8.49991C8.11549 9.54991 7.41649 10.5279 6.15549 10.9999C4.22449 11.7219 2.57949 10.7029 2.49949 9.99991C2.38649 9.00591 3.67649 3.46991 6.49949 2.99991C8.42249 2.67891 10.1505 3.84491 10.1505 5.23491C11.4153 4.91369 12.742 4.92816 13.9995 5.27691C13.9995 3.88691 15.8435 2.67891 17.7665 2.99991C20.5895 3.46991 21.8795 9.00591 21.7665 9.99991C21.6865 10.7029 20.0415 11.7219 18.1105 10.9999C16.8495 10.5279 16.2555 9.54991 15.8715 8.49991" stroke="#F95C5B" stroke-width="1.5" stroke-linecap="round" stroke-linejoin="round"/>
</svg>
