<svg width="24" height="24" viewBox="0 0 24 24" fill="none" xmlns="http://www.w3.org/2000/svg">
<path d="M16 4C19.33 4.18 21 5.41 21 9.98V15.98C21 19.98 20 21.98 15 21.98H9C4 21.98 3 19.98 3 15.98V9.98C3 5.42 4.67 4.18 8 4" stroke="#1AD1B9" stroke-width="1.5" stroke-miterlimit="10" stroke-linecap="round" stroke-linejoin="round"/>
<path d="M10 6H14C16 6 16 5 16 4C16 2 15 2 14 2H10C9 2 8 2 8 4C8 6 9 6 10 6Z" stroke="#795CF5" stroke-width="1.5" stroke-miterlimit="10" stroke-linecap="round" stroke-linejoin="round"/>
<path d="M7.45312 11.41L11.5002 13.7521L15.5198 11.4238" stroke="#F95C5B" stroke-width="0.9" stroke-linecap="round" stroke-linejoin="round"/>
<path d="M11.5 17.9046V13.7475" stroke="#F95C5B" stroke-width="0.9" stroke-linecap="round" stroke-linejoin="round"/>
<path d="M15.9049 12.2029V14.7971C15.9049 14.82 15.9049 14.8383 15.9003 14.8613C15.5794 14.5817 15.1669 14.4167 14.7086 14.4167C14.2778 14.4167 13.879 14.5679 13.5628 14.82C13.1411 15.1546 12.8753 15.6725 12.8753 16.25C12.8753 16.5938 12.9715 16.9192 13.1411 17.1942C13.1824 17.2675 13.2328 17.3363 13.2878 17.4005L12.449 17.8634C11.9265 18.1567 11.074 18.1567 10.5515 17.8634L8.10403 16.5067C7.54944 16.1996 7.0957 15.4296 7.0957 14.7971V12.2029C7.0957 11.5704 7.54944 10.8004 8.10403 10.4934L10.5515 9.13669C11.074 8.84335 11.9265 8.84335 12.449 9.13669L14.8965 10.4934C15.4511 10.8004 15.9049 11.5704 15.9049 12.2029Z" stroke="#F95C5B" stroke-width="0.9" stroke-linecap="round" stroke-linejoin="round"/>
<path d="M16.5417 16.25C16.5417 16.8 16.2988 17.2904 15.9183 17.625C15.5929 17.9092 15.1713 18.0834 14.7083 18.0834C13.6954 18.0834 12.875 17.2629 12.875 16.25C12.875 15.6725 13.1408 15.1546 13.5625 14.82C13.8788 14.5679 14.2775 14.4167 14.7083 14.4167C15.7213 14.4167 16.5417 15.2371 16.5417 16.25Z" stroke="#795CF5" stroke-width="0.9" stroke-miterlimit="10" stroke-linecap="round" stroke-linejoin="round"/>
<path d="M14.8229 15.6771V16.3646L14.25 16.7084" stroke="#F95C5B" stroke-width="0.9" stroke-miterlimit="10" stroke-linecap="round" stroke-linejoin="round"/>
</svg>
