<svg width="45" height="45" viewBox="0 0 45 45" fill="none" xmlns="http://www.w3.org/2000/svg">
<path d="M20.1288 26.2734C20.3902 26.013 20.5374 25.6594 20.5381 25.2905C20.5388 24.9216 20.3929 24.5675 20.1325 24.3061C19.8721 24.0447 19.5186 23.8975 19.1496 23.8968C18.7807 23.8961 18.4266 24.042 18.1652 24.3024L20.1288 26.2734ZM18.3933 13.7615C18.7031 13.9474 19.0732 14.0055 19.4251 13.9233C19.777 13.8412 20.0831 13.6253 20.2786 13.3213C20.474 13.0174 20.5435 12.6493 20.4723 12.2951C20.4011 11.9408 20.1948 11.6281 19.897 11.4234L18.3933 13.7615ZM23.1771 34.3019L22.1943 35.2846L22.2611 35.3477L23.1771 34.3019ZM33.0486 24.5342C32.9494 24.3808 32.8209 24.2484 32.6706 24.1447C32.5202 24.0409 32.3509 23.9678 32.1722 23.9295C31.8115 23.8521 31.4347 23.9212 31.1249 24.1216C30.8151 24.322 30.5976 24.6373 30.5203 24.998C30.4429 25.3588 30.512 25.7355 30.7124 26.0453L33.0486 24.5342ZM24.1468 35.1511L25.1295 34.1684L25.0961 34.135L25.0627 34.1072L24.1468 35.1511ZM36.6457 18.573L25.8044 29.381L27.7698 31.3501L38.6093 20.5403L36.6457 18.573ZM17.583 29.381L15.0354 26.8408L13.0718 28.8136L15.6195 31.3538L17.583 29.381ZM15.0354 18.6565L25.8786 7.84667L23.9132 5.87755L13.0718 16.6873L15.0354 18.6565ZM32.535 5.0988H33.5901V2.31754H32.5332L32.535 5.0988ZM39.401 10.8894V11.9407H42.1823V10.8894H39.401ZM33.5901 5.0988C35.3256 5.0988 36.49 5.1025 37.3559 5.21746C38.1828 5.32871 38.5296 5.51969 38.7558 5.74405L40.7193 3.77492C39.8905 2.94796 38.8596 2.61421 37.7248 2.46217C36.6309 2.31384 35.2477 2.31754 33.5901 2.31754V5.0988ZM42.1823 10.8894C42.1823 9.23544 42.186 7.85594 42.0376 6.76384C41.8856 5.63094 41.5481 4.60188 40.7193 3.77492L38.7521 5.74405C38.9783 5.9684 39.1692 6.31327 39.2805 7.13467C39.3955 7.99871 39.401 9.15571 39.401 10.8894H42.1823ZM15.0373 26.8426C13.808 25.6189 12.9884 24.7956 12.4581 24.1021C11.9519 23.4421 11.8444 23.0638 11.8444 22.7486H9.06314C9.06314 23.9204 9.55449 24.8846 10.2498 25.7932C10.9192 26.6683 11.9 27.6418 13.0718 28.8117L15.0373 26.8426ZM15.6176 31.3501C16.7895 32.5182 17.7685 33.4972 18.6455 34.1647C19.5559 34.8582 20.5219 35.3458 21.6937 35.3458V32.5646C21.373 32.5646 20.9928 32.4552 20.3291 31.9527C19.6356 31.4224 18.8105 30.6047 17.583 29.381L15.6176 31.3501ZM38.6093 20.5403C40.0908 19.0662 41.1217 18.0705 41.665 16.7652L39.0969 15.6991C38.817 16.374 38.2867 16.9358 36.6457 18.573L38.6093 20.5403ZM39.401 11.9407C39.401 14.2565 39.3769 15.0241 39.0969 15.6991L41.665 16.7652C42.2064 15.4599 42.1823 14.0285 42.1823 11.9407H39.401ZM25.8767 7.84852C27.5177 6.21129 28.0832 5.68286 28.76 5.40288L27.6994 2.833C26.3922 3.37257 25.3946 4.40163 23.9132 5.87755L25.8767 7.84852ZM32.5332 2.31754C30.438 2.31754 29.0066 2.29344 27.6994 2.833L28.76 5.40288C29.4386 5.12475 30.2136 5.0988 32.535 5.0988L32.5332 2.31754ZM16.3092 30.08L20.1288 26.2734L18.1652 24.3024L14.3457 28.1109L16.3092 30.08ZM19.897 11.4234L18.7308 10.6724L17.2252 13.0105L18.3933 13.7615L19.897 11.4234ZM18.7308 10.6724C17.5793 9.93075 16.6485 9.33 15.8494 8.89984C15.0298 8.45855 14.2641 8.14519 13.4167 8.02096L13.0107 10.7725C13.4186 10.8319 13.8636 10.9895 14.5292 11.3473C15.2116 11.7163 16.0385 12.2466 17.2252 13.0105L18.7308 10.6724ZM5.1082 15.8604C6.14355 14.8137 7.20066 13.7887 8.27883 12.7862C8.71443 12.3832 9.16597 11.9979 9.63237 11.631C10.0458 11.3121 10.3091 11.1564 10.4334 11.1044L9.36722 8.53457C8.8907 8.73296 8.39008 9.07598 7.93395 9.42827C7.45558 9.79725 6.9327 10.2478 6.40241 10.7318C5.34183 11.6996 4.17741 12.8622 3.14464 13.8913L5.1082 15.8604ZM13.4167 8.02096C12.0453 7.82262 10.6457 8.00013 9.36722 8.53457L10.4334 11.1044C11.2465 10.7621 12.1372 10.6486 13.0107 10.7725L13.4167 8.02096ZM4.09397 18.4914L4.7967 18.7696L5.8202 16.1849L5.11933 15.9067L4.09397 18.4914ZM7.57054 20.5885L9.35054 22.3648L11.316 20.3957L9.53781 18.6194L7.57054 20.5885ZM4.7967 18.7696L5.00808 18.8549L6.06681 16.2831L5.8202 16.1849L4.7967 18.7696ZM9.5341 18.6194L9.34683 18.434L7.40922 20.429L7.57054 20.5885L9.5341 18.6194ZM5.00808 18.8549C5.90179 19.222 6.71576 19.7578 7.40922 20.4309L9.34683 18.434C8.40006 17.5151 7.28686 16.7852 6.06681 16.2831L5.00808 18.8549ZM3.14464 13.8913C2.81436 14.2201 2.57115 14.626 2.43697 15.0724C2.30278 15.5187 2.28185 15.9915 2.37605 16.4479C2.47025 16.9044 2.67662 17.3302 2.97654 17.687C3.27646 18.0437 3.66049 18.3202 4.09397 18.4914L5.11933 15.9067L5.10635 15.8993L5.10079 15.8845V15.8715L5.1082 15.8604L3.14464 13.8913ZM30.7142 26.0453L31.467 27.2079L33.8014 25.6967L33.0486 24.5342L30.7142 26.0453ZM28.6079 39.2785L28.4522 39.4361L30.4176 41.4034L30.5733 41.2495L28.6079 39.2785ZM31.467 27.2079C32.2347 28.3945 32.765 29.2159 33.1358 29.8964C33.4936 30.5602 33.6512 31.0034 33.7106 31.4076L36.4622 30.9997C36.3361 30.1523 36.0209 29.3865 35.5796 28.5707C35.1476 27.7734 34.545 26.8463 33.8014 25.6967L31.467 27.2079ZM30.5733 41.2495C31.6061 40.2186 32.7705 39.056 33.7421 37.9991C34.226 37.4707 34.6785 36.9497 35.0493 36.4731C35.4016 36.0189 35.7465 35.5183 35.9449 35.0417L33.3787 33.9719C33.233 34.2566 33.0557 34.5241 32.8502 34.7692C32.4827 35.2344 32.0967 35.6847 31.6932 36.119C30.6869 37.1935 29.6582 38.2469 28.6079 39.2785L30.5733 41.2495ZM33.7106 31.4076C33.8367 32.2531 33.7254 33.1394 33.3768 33.9719L35.9449 35.0417C36.4826 33.7654 36.6615 32.3702 36.4622 30.9997L33.7106 31.4076ZM25.0627 34.1072L24.093 33.2562L22.2611 35.3477L23.229 36.1969L25.0627 34.1072ZM28.6394 39.488C28.2408 38.4886 28.0016 37.8842 27.6864 37.3112L25.2482 38.6462C25.4632 39.0356 25.6338 39.4584 26.0547 40.5189L28.6394 39.488ZM23.1641 36.1375C23.9725 36.9423 24.2951 37.2667 24.5695 37.6172L26.7575 35.9002C26.3551 35.3866 25.8916 34.9268 25.1276 34.1666L23.1641 36.1375ZM27.6882 37.3094C27.4168 36.8152 27.1055 36.3439 26.7575 35.9002L24.5695 37.6172C24.8242 37.941 25.0504 38.2841 25.2482 38.6462L27.6882 37.3094ZM30.8941 16.6873C30.4786 17.1007 29.9163 17.3328 29.3301 17.3328C28.744 17.3328 28.1817 17.1007 27.7661 16.6873L25.8026 18.6565C26.7395 19.5901 28.0083 20.1144 29.331 20.1144C30.6538 20.1144 31.9226 19.5901 32.8595 18.6565L30.8941 16.6873ZM27.7661 16.6873C27.5607 16.4839 27.3976 16.2417 27.2862 15.9749C27.1749 15.708 27.1176 15.4218 27.1176 15.1326C27.1176 14.8435 27.1749 14.5572 27.2862 14.2903C27.3976 14.0235 27.5607 13.7813 27.7661 13.5779L25.8026 11.6088C25.3384 12.0705 24.97 12.6195 24.7187 13.2241C24.4673 13.8286 24.3379 14.4769 24.3379 15.1317C24.3379 15.7864 24.4673 16.4347 24.7187 17.0393C24.97 17.6439 25.3384 18.1928 25.8026 18.6546L27.7661 16.6873ZM27.7661 13.5779C28.1817 13.1639 28.7444 12.9315 29.331 12.9315C29.9176 12.9315 30.4803 13.1639 30.896 13.5779L32.8595 11.6088C31.9226 10.6751 30.6538 10.1509 29.331 10.1509C28.0083 10.1509 26.7395 10.6751 25.8026 11.6088L27.7661 13.5779ZM30.896 13.5779C31.1014 13.7813 31.2645 14.0235 31.3758 14.2903C31.4871 14.5572 31.5444 14.8435 31.5444 15.1326C31.5444 15.4218 31.4871 15.708 31.3758 15.9749C31.2645 16.2417 31.0996 16.4839 30.8941 16.6873L32.8595 18.6565C33.3237 18.1947 33.6921 17.6458 33.9434 17.0412C34.1948 16.4366 34.3242 15.7883 34.3242 15.1335C34.3242 14.4788 34.1948 13.8305 33.9434 13.2259C33.6921 12.6213 33.3237 12.0705 32.8595 11.6088L30.896 13.5779ZM28.4503 39.4343C28.4659 39.4216 28.4834 39.4116 28.5022 39.4046L28.5449 39.4027L28.5894 39.425C28.6116 39.4435 28.6277 39.4645 28.6376 39.488L26.0529 40.5171C26.7649 42.3027 29.0789 42.7347 30.4139 41.4034L28.4503 39.4343ZM25.8044 29.381C24.8569 30.3266 24.1412 31.0367 23.5275 31.5652C22.9138 32.0973 22.4984 32.355 22.174 32.4756L23.1344 35.0862C23.928 34.7933 24.6437 34.2778 25.3464 33.6697C26.0492 33.0615 26.8446 32.2698 27.7661 31.3519L25.8044 29.381ZM22.174 32.4756C22.0204 32.5356 21.8586 32.5658 21.6937 32.5646V35.3458C22.1931 35.3446 22.6721 35.2581 23.1344 35.0862L22.174 32.4756ZM24.1579 33.3192L23.6387 32.7982L21.6696 34.7636L22.1925 35.2846L24.1579 33.3192ZM13.0718 16.6873C12.1726 17.5848 11.3957 18.3579 10.7912 19.0458C10.1905 19.7319 9.67687 20.4272 9.37093 21.1893L11.9501 22.2276C12.0817 21.8994 12.3524 21.4859 12.8827 20.8796C13.4112 20.277 14.112 19.578 15.0354 18.6546L13.0718 16.6873ZM9.37093 21.1893C9.16708 21.6838 9.0625 22.2137 9.06314 22.7486H11.8444C11.8444 22.5817 11.8741 22.4186 11.9501 22.2276L9.37093 21.1893ZM9.35054 22.3648L9.67687 22.6911L11.6423 20.7257L11.3197 20.3957L9.35054 22.3648Z" fill="#B11E67"/>
</svg>
