<svg width="44" height="44" viewBox="0 0 44 44" fill="none" xmlns="http://www.w3.org/2000/svg">
<path d="M5.5 40.3335H38.5" stroke="#F95C5B" stroke-width="2.71875" stroke-linecap="round" stroke-linejoin="round"/>
<path d="M5.5 20.1667C5.5 18.4379 5.5 17.5744 6.03717 17.0372C6.57433 16.5001 7.43783 16.5001 9.16667 16.5001C10.8955 16.5001 11.759 16.5001 12.2962 17.0372C12.8333 17.5744 12.8333 18.4379 12.8333 20.1667V31.1667C12.8333 32.8956 12.8333 33.7591 12.2962 34.2963C11.759 34.8334 10.8955 34.8334 9.16667 34.8334C7.43783 34.8334 6.57433 34.8334 6.03717 34.2963C5.5 33.7591 5.5 32.8956 5.5 31.1667V20.1667ZM18.3333 12.8334C18.3333 11.1046 18.3333 10.2411 18.8705 9.70392C19.4077 9.16675 20.2712 9.16675 22 9.16675C23.7288 9.16675 24.5923 9.16675 25.1295 9.70392C25.6667 10.2411 25.6667 11.1046 25.6667 12.8334V31.1667C25.6667 32.8956 25.6667 33.7591 25.1295 34.2963C24.5923 34.8334 23.7288 34.8334 22 34.8334C20.2712 34.8334 19.4077 34.8334 18.8705 34.2963C18.3333 33.7591 18.3333 32.8956 18.3333 31.1667V12.8334ZM31.1667 7.33341C31.1667 5.60458 31.1667 4.74108 31.7038 4.20391C32.241 3.66675 33.1045 3.66675 34.8333 3.66675C36.5622 3.66675 37.4257 3.66675 37.9628 4.20391C38.5 4.74108 38.5 5.60458 38.5 7.33341V31.1667C38.5 32.8956 38.5 33.7591 37.9628 34.2963C37.4257 34.8334 36.5622 34.8334 34.8333 34.8334C33.1045 34.8334 32.241 34.8334 31.7038 34.2963C31.1667 33.7591 31.1667 32.8956 31.1667 31.1667V7.33341Z" stroke="#1AD1B9" stroke-width="2.71875"/>
</svg>
