<svg width="44" height="44" viewBox="0 0 44 44" fill="none" xmlns="http://www.w3.org/2000/svg">
<path d="M6.86046 37.6842C9.06046 40.3333 13.1525 40.3333 21.3401 40.3333H22.6601C30.8478 40.3333 34.9416 40.3333 37.1416 37.6842M6.86046 37.6842C4.66046 35.0332 5.41579 31.0108 6.92462 22.9625C7.99712 17.2425 8.53246 14.3807 10.5693 12.6903M37.1416 37.6842C39.3416 35.0332 38.5863 31.0108 37.0775 22.9625C36.005 17.2425 35.4678 14.3807 33.431 12.6903M33.431 12.6903C31.396 11 28.4828 11 22.662 11H21.3383C15.5175 11 12.6061 11 10.5693 12.6903" stroke="#F95C5B" stroke-width="2.75"/>
<path d="M18.3334 26.2167L20.7772 28.4167L25.6667 22.9167" stroke="#795CF5" stroke-width="2.75" stroke-linecap="round" stroke-linejoin="round"/>
<path d="M16.5 11.0001V9.16675C16.5 7.70806 17.0795 6.30911 18.1109 5.27766C19.1424 4.24621 20.5413 3.66675 22 3.66675C23.4587 3.66675 24.8576 4.24621 25.8891 5.27766C26.9205 6.30911 27.5 7.70806 27.5 9.16675V11.0001" stroke="#F95C5B" stroke-width="2.75" stroke-linecap="round"/>
</svg>
