<svg width="44" height="44" viewBox="0 0 44 44" fill="none" xmlns="http://www.w3.org/2000/svg">
<path d="M3.66663 22.0001C3.66663 13.3577 3.66663 9.03658 6.35063 6.35075C9.03829 3.66675 13.3576 3.66675 22 3.66675C30.6423 3.66675 34.9635 3.66675 37.6475 6.35075C40.3333 9.03841 40.3333 13.3577 40.3333 22.0001C40.3333 30.6424 40.3333 34.9636 37.6475 37.6476C34.9653 40.3334 30.6423 40.3334 22 40.3334C13.3576 40.3334 9.03646 40.3334 6.35063 37.6476C3.66663 34.9654 3.66663 30.6424 3.66663 22.0001Z" stroke="#795CF5" stroke-width="2.5"/>
<path d="M11 28.9668L13.0955 31.1668L18.3333 25.6668M11 16.1335L13.0955 18.3335L18.3333 12.8335" stroke="#F95C5B" stroke-width="2.5" stroke-linecap="round" stroke-linejoin="round"/>
<path d="M23.8333 16.5H32.9999M23.8333 29.3333H32.9999" stroke="#F95C5B" stroke-width="2.5" stroke-linecap="round"/>
</svg>
