<svg width="57" height="57" viewBox="0 0 57 57" fill="none" xmlns="http://www.w3.org/2000/svg">
<path d="M29.8867 8.36133C38.8597 8.93284 46.1669 15.637 47.6609 24.3279" stroke="#795CF5" stroke-width="2.5" stroke-miterlimit="10" stroke-linecap="round"/>
<path d="M9.62109 24.3285C11.1115 15.6584 18.3857 8.96637 27.3287 8.36621" stroke="#795CF5" stroke-width="2.5" stroke-miterlimit="10" stroke-linecap="round"/>
<path d="M9.62109 30.917C11.1115 39.5878 18.3857 46.2798 27.3294 46.88" stroke="#795CF5" stroke-width="2.5" stroke-miterlimit="10" stroke-linecap="round"/>
<path d="M29.8867 46.8852C38.8605 46.3145 46.1677 39.6103 47.6616 30.918" stroke="#795CF5" stroke-width="2.5" stroke-miterlimit="10" stroke-linecap="round"/>
<path d="M29.9141 8.43457C34.8342 9.31404 38.8377 15.244 39.9886 23.0225" stroke="#795CF5" stroke-width="2.5" stroke-miterlimit="10" stroke-linecap="round"/>
<path d="M17.3008 22.9765C18.4553 15.2567 22.4208 9.36828 27.2994 8.44727" stroke="#795CF5" stroke-width="2.5" stroke-miterlimit="10" stroke-linecap="round"/>
<path d="M17.3008 32.2695C18.4553 39.99 22.4208 45.8784 27.2994 46.7994" stroke="#795CF5" stroke-width="2.5" stroke-miterlimit="10" stroke-linecap="round"/>
<path d="M29.9141 46.8113C34.8342 45.9318 38.8377 40.0018 39.9886 32.2227" stroke="#795CF5" stroke-width="2.5" stroke-miterlimit="10" stroke-linecap="round"/>
<path d="M36.7573 27.0645L40.3905 28.2871L36.7573 29.5096C33.3411 30.6591 30.6598 33.3412 29.5096 36.7574L28.287 40.3905L27.0645 36.7574C25.9151 33.3412 23.233 30.6598 19.8168 29.5096L16.1836 28.2871L19.8168 27.0645C23.233 25.9151 25.9143 23.233 27.0645 19.8168L28.287 16.1836L29.5096 19.8168C30.6598 23.233 33.3411 25.9144 36.7573 27.0645Z" stroke="#1AD1B9" stroke-width="2.5" stroke-miterlimit="10" stroke-linecap="round"/>
<path d="M28.2266 1.25L28.2724 16.3614" stroke="#1AD1B9" stroke-width="2.5" stroke-miterlimit="10" stroke-linecap="round" stroke-linejoin="round"/>
<path d="M28.2266 40.1387L28.2724 55.2501" stroke="#1AD1B9" stroke-width="2.5" stroke-miterlimit="10" stroke-linecap="round" stroke-linejoin="round"/>
<path d="M55.2481 28.2266L40.1367 28.2724" stroke="#1AD1B9" stroke-width="2.5" stroke-miterlimit="10" stroke-linecap="round" stroke-linejoin="round"/>
<path d="M16.3614 28.2266L1.25 28.2724" stroke="#1AD1B9" stroke-width="2.5" stroke-miterlimit="10" stroke-linecap="round" stroke-linejoin="round"/>
<path d="M36.8277 27.0636L40.4609 28.2861L36.8277 29.5086C33.4116 30.6581 30.7302 33.3402 29.58 36.7564L28.3575 40.3896L27.135 36.7564C25.9855 33.3402 23.3034 30.6588 19.8872 29.5086L16.254 28.2861L19.8872 27.0636C23.3034 25.9141 25.9848 23.232 27.135 19.8158L28.3575 16.1826L29.58 19.8158C30.7302 23.232 33.4116 25.9134 36.8277 27.0636Z" stroke="#1AD1B9" stroke-width="2.5" stroke-miterlimit="10" stroke-linecap="round"/>
</svg>
