<svg width="60" height="60" viewBox="0 0 60 60" fill="none" xmlns="http://www.w3.org/2000/svg">
<path d="M50.9676 27.2243C50.9755 26.9771 50.9789 26.73 50.9789 26.4805C50.9789 12.5459 39.8468 1.25 26.1144 1.25C12.382 1.25 1.25 12.5459 1.25 26.4805C1.25 40.3956 12.3516 51.6801 26.058 51.711" stroke="#B11E67" stroke-width="2.5" stroke-miterlimit="10" stroke-linecap="round" stroke-linejoin="round"/>
<path d="M26.3398 36.6064V37.5905V38.5745" stroke="#B11E67" stroke-width="2.5" stroke-linecap="round"/>
<path d="M26.3398 14.959V15.943V16.927" stroke="#B11E67" stroke-width="2.5" stroke-linecap="round"/>
<path d="M32.2453 21.8478C32.2453 19.1305 29.6021 16.9277 26.3414 16.9277C23.0807 16.9277 20.4375 19.1305 20.4375 21.8478C20.4375 24.565 23.0807 26.7678 26.3414 26.7678C29.6021 26.7678 32.2453 28.9706 32.2453 31.6878C32.2453 34.405 29.6021 36.6078 26.3414 36.6078C23.0807 36.6078 20.4375 34.405 20.4375 31.6878" stroke="#B11E67" stroke-width="2.5" stroke-linecap="round"/>
<path d="M51.8722 42.6562L55.2484 43.8115L51.8722 44.9669C48.6977 46.0532 46.206 48.5879 45.1372 51.8164L44.0011 55.25L42.8651 51.8164C41.7969 48.5879 39.3046 46.0539 36.1301 44.9669L32.7539 43.8115L36.1301 42.6562C39.3046 41.5699 41.7963 39.0351 42.8651 35.8066L44.0011 32.373L45.1372 35.8066C46.206 39.0351 48.6977 41.5692 51.8722 42.6562Z" stroke="#1AD1B9" stroke-width="2.5" stroke-miterlimit="10" stroke-linecap="round"/>
</svg>
