<svg width="54" height="54" viewBox="0 0 54 54" fill="none" xmlns="http://www.w3.org/2000/svg">
<path d="M34.0615 2.61719C37.1957 3.62089 40.1147 5.30572 42.5736 7.61031" stroke="#1AD1B9" stroke-width="2.5" stroke-miterlimit="10" stroke-linecap="round" stroke-linejoin="round"/>
<path d="M49.1016 28.8872C49.8969 25.4335 49.867 21.7902 48.9365 18.2617" stroke="#1AD1B9" stroke-width="2.5" stroke-miterlimit="10" stroke-linecap="round" stroke-linejoin="round"/>
<path d="M5.33437 28.9199C4.54516 25.5806 4.5576 22.151 5.30371 18.8887" stroke="#795CF5" stroke-width="2.5" stroke-miterlimit="10" stroke-linecap="round" stroke-linejoin="round"/>
<path d="M11.2971 8.06271C12.6551 6.71289 14.2109 5.51407 15.9548 4.51376C17.7955 3.45796 19.7213 2.69103 21.6841 2.2011" stroke="#795CF5" stroke-width="2.5" stroke-miterlimit="10" stroke-linecap="round" stroke-linejoin="round"/>
<path d="M11.4287 39.751C14.0895 42.3788 17.3278 44.2503 20.8138 45.2845" stroke="#F95C5B" stroke-width="2.5" stroke-miterlimit="10" stroke-linecap="round" stroke-linejoin="round"/>
<path d="M33.1669 45.4405C34.9766 44.9462 36.7553 44.2192 38.4583 43.2423C40.2333 42.2242 41.8167 41.0005 43.192 39.6177" stroke="#F95C5B" stroke-width="2.5" stroke-miterlimit="10" stroke-linecap="round" stroke-linejoin="round"/>
<path d="M6.0472 19.1391C9.3871 20.033 12.8167 18.0657 13.7075 14.7451C14.5983 11.4245 12.6129 8.00802 9.27301 7.11413C5.93311 6.22024 2.50346 8.18748 1.61268 11.5081C0.721898 14.8287 2.7073 18.2452 6.0472 19.1391Z" stroke="#795CF5" stroke-width="2.5" stroke-miterlimit="10" stroke-linecap="round" stroke-linejoin="round"/>
<path d="M25.3675 52.3818C28.7074 53.2756 32.1371 51.3084 33.0278 47.9878C33.9186 44.6672 31.9332 41.2507 28.5933 40.3568C25.2534 39.4629 21.8238 41.4302 20.933 44.7508C20.0422 48.0714 22.0276 51.4879 25.3675 52.3818Z" stroke="#F95C5B" stroke-width="2.5" stroke-miterlimit="10" stroke-linecap="round" stroke-linejoin="round"/>
<path d="M44.7269 18.601C48.0668 19.4949 51.4964 17.5276 52.3872 14.207C53.278 10.8864 51.2926 7.46993 47.9527 6.57605C44.6128 5.68216 41.1832 7.6494 40.2924 10.97C39.4016 14.2906 41.387 17.7071 44.7269 18.601Z" stroke="#1AD1B9" stroke-width="2.5" stroke-miterlimit="10" stroke-linecap="round" stroke-linejoin="round"/>
</svg>
