<svg width="61" height="57" viewBox="0 0 61 57" fill="none" xmlns="http://www.w3.org/2000/svg">
<path d="M22.3009 22.9419C24.2684 22.9419 25.8634 21.3866 25.8634 19.468C25.8634 17.5495 24.2684 15.9941 22.3009 15.9941C20.3333 15.9941 18.7383 17.5495 18.7383 19.468C18.7383 21.3866 20.3333 22.9419 22.3009 22.9419Z" stroke="#1AD1B9" stroke-width="2.5" stroke-miterlimit="10" stroke-linecap="round" stroke-linejoin="round"/>
<path d="M55.6873 23.0454C57.6549 23.0454 59.2499 21.4901 59.2499 19.5715C59.2499 17.653 57.6549 16.0977 55.6873 16.0977C53.7198 16.0977 52.1248 17.653 52.1248 19.5715C52.1248 21.4901 53.7198 23.0454 55.6873 23.0454Z" stroke="#1AD1B9" stroke-width="2.5" stroke-miterlimit="10" stroke-linecap="round" stroke-linejoin="round"/>
<path d="M4.81258 39.9947C6.78014 39.9947 8.37516 38.4393 8.37516 36.5208C8.37516 34.6022 6.78014 33.0469 4.81258 33.0469C2.84502 33.0469 1.25 34.6022 1.25 36.5208C1.25 38.4393 2.84502 39.9947 4.81258 39.9947Z" stroke="#1AD1B9" stroke-width="2.5" stroke-miterlimit="10" stroke-linecap="round" stroke-linejoin="round"/>
<path d="M39.047 39.271C41.0145 39.271 42.6095 37.7157 42.6095 35.7971C42.6095 33.8786 41.0145 32.3232 39.047 32.3232C37.0794 32.3232 35.4844 33.8786 35.4844 35.7971C35.4844 37.7157 37.0794 39.271 39.047 39.271Z" stroke="#1AD1B9" stroke-width="2.5" stroke-miterlimit="10" stroke-linecap="round" stroke-linejoin="round"/>
<path d="M36.5257 33.3445L24.8164 21.9268" stroke="#1AD1B9" stroke-width="2.5" stroke-miterlimit="10" stroke-linecap="round" stroke-linejoin="round"/>
<path d="M19.7556 21.8965L7.30469 34.0375" stroke="#1AD1B9" stroke-width="2.5" stroke-miterlimit="10" stroke-linecap="round" stroke-linejoin="round"/>
<path d="M53.1607 22.0195L41.5586 33.3328" stroke="#1AD1B9" stroke-width="2.5" stroke-miterlimit="10" stroke-linecap="round" stroke-linejoin="round"/>
<path d="M55.4902 30.25V50.4847C55.4902 53.1167 53.4959 55.25 51.0353 55.25H9.46273C7.00218 55.25 5.00781 53.1167 5.00781 50.4847V47.3167" stroke="#F95C5B" stroke-width="2.5" stroke-miterlimit="10" stroke-linecap="round" stroke-linejoin="round"/>
<path d="M5.00781 26.65V6.01533C5.00781 3.38333 7.00218 1.25 9.46273 1.25H51.0353C53.4959 1.25 55.4902 3.38333 55.4902 6.01533V9.58333" stroke="#F95C5B" stroke-width="2.5" stroke-miterlimit="10" stroke-linecap="round" stroke-linejoin="round"/>
</svg>
