<svg width="50" height="40" viewBox="0 0 50 40" fill="none" xmlns="http://www.w3.org/2000/svg">
<path d="M30.457 25.478H34.6322C33.6405 27.7021 32.2104 29.6851 30.457 31.323V25.478Z" fill="#795CF5"/>
<path d="M30.457 25.4779H34.6322C33.6405 27.702 32.2104 29.685 30.457 31.3229V25.4779Z" fill="#795CF5"/>
<path d="M34.7382 10.9559H25.429V25.478H15.939V36.0669C6.9586 34.9987 0 27.3624 0 18.0992C0 8.1019 8.10376 0 18.1033 0C25.566 0 31.9712 4.51384 34.7382 10.9559Z" fill="#795CF5"/>
<path d="M30.459 25.4779V31.3229C28.4207 33.2292 25.9386 34.6699 23.1881 35.4697C21.5772 35.9408 19.8677 36.1928 18.0979 36.1928C17.3637 36.1928 16.6404 36.149 15.9336 36.0614V25.4779H30.459Z" fill="#795CF5"/>
<path d="M36.2057 18.0992C36.2057 19.8302 35.9646 21.501 35.5099 23.0896C35.2743 23.9113 34.9839 24.7111 34.6387 25.478H25.4336V10.9559H34.7373C35.6852 13.1471 36.2057 15.5629 36.2057 18.0992Z" fill="#795CF5"/>
<path d="M34.7382 10.9559H25.429V25.478H15.939V36.0669C6.9586 34.9987 0 27.3624 0 18.0992C0 8.1019 8.10376 0 18.1033 0C25.566 0 31.9712 4.51384 34.7382 10.9559Z" fill="#795CF5"/>
<path d="M29.459 25.478C30.0113 25.478 30.459 25.9257 30.459 26.478V31.323C28.4207 33.2293 25.9386 34.67 23.1881 35.4698C21.5772 35.9409 19.8677 36.1929 18.0979 36.1929C17.3637 36.1929 16.6404 36.1491 15.9336 36.0614V26.478C15.9336 25.9257 16.3813 25.478 16.9336 25.478H29.459Z" fill="#137F6A"/>
<path d="M30.4574 31.3229V39C30.4574 39.5522 30.0097 40 29.4574 40H16.9375C16.3852 40 15.9375 39.5522 15.9375 39V36.0668C16.6498 36.149 17.3731 36.1983 18.1018 36.1983C19.8661 36.1983 21.5756 35.9463 23.192 35.4752C25.9426 34.6699 28.4192 33.2292 30.4574 31.3229Z" fill="#1AD1B9"/>
<path d="M48.4434 25.478H35.918C35.3657 25.478 34.918 25.9257 34.918 26.478V39.0001C34.918 39.5524 35.3657 40.0001 35.918 40.0001H48.4434C48.9957 40.0001 49.4434 39.5524 49.4434 39.0001V26.478C49.4434 25.9257 48.9957 25.478 48.4434 25.478Z" fill="#FFCB00"/>
<path d="M36.2057 18.0992C36.2057 19.8302 35.9646 21.501 35.5099 23.0896C35.2743 23.9113 34.9839 24.7111 34.6387 25.478H26.4336C25.8813 25.478 25.4336 25.0303 25.4336 24.478V11.9559C25.4336 11.4036 25.8813 10.9559 26.4336 10.9559H34.7373C35.6852 13.1471 36.2057 15.5629 36.2057 18.0992Z" fill="#B11E67"/>
<path d="M38.9477 10.9559C39.4999 10.9559 39.9477 11.4036 39.9477 11.9559V24.478C39.9477 25.0303 39.4999 25.478 38.9477 25.478H34.6328C34.978 24.7111 35.2684 23.9113 35.504 23.0896C35.9588 21.5065 36.1999 19.8302 36.1999 18.0992C36.1999 15.5629 35.6793 13.1471 34.7314 10.9559H38.9477Z" fill="#F95C5B"/>
</svg>
