<svg width="44" height="44" viewBox="0 0 44 44" fill="none" xmlns="http://www.w3.org/2000/svg">
<path d="M9.16667 10.0001H12.8333V11.8334C12.8333 13.8501 14.4833 15.5001 16.5 15.5001H27.5C29.5167 15.5001 31.1667 13.8501 31.1667 11.8334V10.0001H34.8333V19.1667H38.5V10.0001C38.5 7.98341 36.85 6.33341 34.8333 6.33341H27.17C26.4 4.20675 24.3833 2.66675 22 2.66675C19.6167 2.66675 17.6 4.20675 16.83 6.33341H9.16667C7.15 6.33341 5.5 7.98341 5.5 10.0001V35.6667C5.5 37.6834 7.15 39.3334 9.16667 39.3334H20.1667V35.6667H9.16667V10.0001ZM22 6.33341C23.0083 6.33341 23.8333 7.15841 23.8333 8.16675C23.8333 9.17508 23.0083 10.0001 22 10.0001C20.9917 10.0001 20.1667 9.17508 20.1667 8.16675C20.1667 7.15841 20.9917 6.33341 22 6.33341Z" fill="#795CF5"/>
<path d="M39.8751 22.4583C39.1234 21.7066 37.8768 21.7066 37.1251 22.4583L28.4351 31.1666L24.2918 27.0416C23.5401 26.2899 22.3118 26.2899 21.5418 27.0416C20.7901 27.7933 20.7901 29.0399 21.5418 29.7916L27.1334 35.3649C27.8484 36.0799 29.0034 36.0799 29.7184 35.3649L39.8568 25.2083C40.6268 24.4566 40.6268 23.2099 39.8751 22.4583Z" fill="#1AD1B9"/>
</svg>
