<svg width="43" height="39" viewBox="0 0 43 39" fill="none" xmlns="http://www.w3.org/2000/svg">
<path d="M41.25 13.0976C41.25 16.6103 38.3658 19.4579 34.8079 19.4579C31.25 19.4579 28.3658 16.6103 28.3658 13.0976C28.3658 12.8873 28.3759 12.6794 28.3961 12.4741H27.6618C27.682 12.6794 27.6921 12.8873 27.6921 13.0976C27.6921 16.6103 24.8079 19.4579 21.25 19.4579C17.6921 19.4579 14.8079 16.6103 14.8079 13.0976C14.8079 12.8873 14.818 12.6794 14.8382 12.4741H14.1039C14.1241 12.6794 14.1342 12.8873 14.1342 13.0976C14.1342 16.6103 11.25 19.4579 7.69211 19.4579C4.13421 19.4579 1.25 16.6103 1.25 13.0976C1.25 13.0951 1.25 13.0926 1.25 13.0901C1.34095 12.6811 1.42937 12.2837 1.52032 11.8746L2.86432 8.88818L4.84916 4.47837C5.73337 2.51541 7.70474 1.25 9.88074 1.25H32.6193C34.7953 1.25 36.7675 2.51541 37.6508 4.47837L39.6357 8.88818L40.9797 11.8746C41.0706 12.2837 41.1591 12.6811 41.25 13.0901C41.25 13.0926 41.25 13.0951 41.25 13.0976Z" stroke="#1AD1B9" stroke-width="2.5" stroke-miterlimit="10" stroke-linecap="round" stroke-linejoin="round"/>
<path d="M5.07812 23.6147V32.6871C5.07812 35.2071 7.21034 37.2499 9.84023 37.2499H32.7825C35.4124 37.2499 37.5447 35.2071 37.5447 32.6871V23.6147" stroke="#F95C5B" stroke-width="2.5" stroke-miterlimit="10" stroke-linecap="round" stroke-linejoin="round"/>
</svg>
