<svg width="44" height="44" viewBox="0 0 44 44" fill="none" xmlns="http://www.w3.org/2000/svg">
<path d="M33.209 22.6071C32.8414 22.6126 32.4767 22.6724 32.1266 22.7846C31.4387 20.843 29.307 19.8267 27.3653 20.5147C27.2386 20.5596 27.1144 20.6114 26.9933 20.6697C26.6447 20.1985 26.1907 19.8153 25.6676 19.5507C25.1446 19.2861 24.5669 19.1475 23.9807 19.1458C23.6976 19.1477 23.4156 19.1821 23.1403 19.2485V12.537C23.0993 10.4524 21.376 8.79586 19.2914 8.83693C17.2648 8.87693 15.6313 10.5103 15.5914 12.537V26.8957C13.6055 24.9913 10.5301 24.8129 8.33727 26.4747C6.93573 27.5257 6.59848 29.488 7.56872 30.9466L12.7622 38.7375C13.84 40.3579 15.302 41.6864 17.0179 42.6046C18.7337 43.5228 20.6501 44.0021 22.5962 43.9999H25.2362C29.9652 44.0033 34.24 41.1846 36.0998 36.8367C36.6868 35.4654 36.9873 33.9885 36.9827 32.4968V26.3808C36.9802 24.2977 35.2921 22.6095 33.209 22.6071ZM34.0494 32.4968C34.0514 33.5916 33.8292 34.6752 33.3967 35.681C31.9988 38.9503 28.7845 41.0697 25.2288 41.0665H22.5888C21.1254 41.0677 19.6844 40.7067 18.3944 40.0158C17.1044 39.3248 16.0053 38.3254 15.1953 37.1066L10.0092 29.3186C9.95749 29.2401 9.93764 29.1448 9.95372 29.0521C9.96979 28.9595 10.0206 28.8765 10.0957 28.8199C11.258 27.9397 12.9107 28.1502 13.8152 29.2937L15.9111 31.9117C16.417 32.5443 17.3399 32.647 17.9726 32.1412C18.1443 32.0039 18.2829 31.8297 18.3783 31.6316C18.4736 31.4334 18.5231 31.2164 18.5232 30.9965V12.537C18.5278 12.4265 18.5542 12.318 18.6007 12.2177C18.6472 12.1175 18.7131 12.0273 18.7944 11.9525C18.8758 11.8777 18.9711 11.8196 19.0749 11.7816C19.1788 11.7436 19.289 11.7264 19.3995 11.731C19.6104 11.7398 19.8104 11.8275 19.9596 11.9768C20.1089 12.1261 20.1967 12.326 20.2055 12.537V25.2266C20.2055 26.0366 20.8621 26.6933 21.6721 26.6933C22.4822 26.6933 23.1388 26.0366 23.1388 25.2266V22.9195C23.1385 22.4554 23.5146 22.0789 23.9788 22.0786C24.4429 22.0784 24.8194 22.4545 24.8196 22.9186V26.3807C24.8196 27.1907 25.4762 27.8474 26.2863 27.8474C27.0963 27.8474 27.753 27.1908 27.753 26.3807V24.0738C27.7576 23.9633 27.7839 23.8549 27.8305 23.7546C27.877 23.6543 27.9428 23.5642 28.0242 23.4893C28.1056 23.4145 28.2009 23.3564 28.3047 23.3184C28.4085 23.2804 28.5188 23.2632 28.6293 23.2678C28.8402 23.2766 29.0401 23.3644 29.1894 23.5137C29.3387 23.6629 29.4264 23.8629 29.4352 24.0738V27.5351C29.4352 28.3451 30.0918 29.0018 30.9019 29.0018C31.7119 29.0018 32.3686 28.3452 32.3686 27.5351V26.3808C32.3683 25.9167 32.7444 25.5402 33.2085 25.5399C33.6727 25.5397 34.0491 25.9158 34.0494 26.3799V32.4968Z" fill="#1AD1B9"/>
<path d="M20.2 5.86663C20.2 6.67669 19.5433 7.3333 18.7333 7.3333C17.9234 7.3333 17.2667 6.67669 17.2667 5.86671V1.46668C17.2667 0.65661 17.9233 0 18.7333 0C19.5434 0 20.2 0.65661 20.2 1.46668V5.86663Z" fill="#F95C5B"/>
<path d="M23.6946 8.68824C23.5167 8.76199 23.326 8.79996 23.1334 8.79998C22.7445 8.79989 22.3716 8.6454 22.0967 8.37048C21.5239 7.7978 21.5237 6.86917 22.0964 6.29631L25.2072 3.18551C25.219 3.17326 25.231 3.16127 25.2432 3.14945C25.8259 2.58671 26.7544 2.60291 27.3171 3.18551C27.8799 3.76821 27.8637 4.69666 27.2811 5.25941L24.1703 8.37021C24.0341 8.50643 23.8725 8.6145 23.6946 8.68824Z" fill="#F95C5B"/>
<path d="M15.3703 8.33433C14.8076 8.91693 13.879 8.93304 13.2964 8.3703L10.1856 5.25959C9.63664 4.69121 9.63664 3.79014 10.1856 3.22175C10.7483 2.63914 11.6769 2.62295 12.2595 3.18569L15.3703 6.29649C15.9193 6.86487 15.9193 7.76594 15.3703 8.33433Z" fill="#F95C5B"/>
<path d="M12.8667 13.2H8.46668C7.6567 13.2 7 12.5434 7 11.7333C7 10.9233 7.6567 10.2667 8.46668 10.2667H12.8667C13.6768 10.2667 14.3334 10.9233 14.3334 11.7333C14.3334 12.5434 13.6767 13.2 12.8667 13.2Z" fill="#F95C5B"/>
<path d="M24.1328 11.7333C24.1328 12.5433 24.7894 13.2 25.5995 13.2H29.9995C30.8095 13.2 31.4662 12.5433 31.4662 11.7333C31.4662 10.9232 30.8096 10.2666 29.9995 10.2666H25.5995C24.7894 10.2666 24.1328 10.9232 24.1328 11.7333Z" fill="#1AD1B9"/>
</svg>
