<svg width="44" height="44" viewBox="0 0 44 44" fill="none" xmlns="http://www.w3.org/2000/svg">
<g clip-path="url(#clip0_2421_4464)">
<path d="M34.0645 3.92329L22.5787 0.0934532C22.2026 -0.0318021 21.7961 -0.0318021 21.42 0.0934532L9.93419 3.92329C8.10801 4.5299 6.51945 5.69659 5.3942 7.25759C4.26895 8.81859 3.66425 10.6945 3.66602 12.6188V22C3.66602 35.8655 20.5327 43.5233 21.255 43.8423C21.4894 43.9464 21.7429 44.0002 21.9994 44.0002C22.2558 44.0002 22.5093 43.9464 22.7437 43.8423C23.466 43.5233 40.3327 35.8655 40.3327 22V12.6188C40.3345 10.6945 39.7298 8.81859 38.6045 7.25759C37.4793 5.69659 35.8907 4.5299 34.0645 3.92329ZM36.666 22C36.666 32.0008 25.0812 38.5605 21.9994 40.1298C18.9139 38.566 7.33269 32.0265 7.33269 22V12.6188C7.33279 11.4643 7.69619 10.3391 8.37139 9.40265C9.04659 8.46619 9.99935 7.76594 11.0947 7.40112L21.9994 3.76562L32.904 7.40112C33.9994 7.76594 34.9521 8.46619 35.6273 9.40265C36.3025 10.3391 36.6659 11.4643 36.666 12.6188V22Z" fill="#1AD1B9"/>
<path d="M28.0504 15.2168L20.3724 22.9168L16.2584 18.6268C16.0933 18.4463 15.8938 18.3006 15.6715 18.1984C15.4493 18.0962 15.2088 18.0396 14.9643 18.0317C14.7198 18.0239 14.4762 18.0651 14.2478 18.1529C14.0195 18.2406 13.811 18.3732 13.6347 18.5428C13.4584 18.7124 13.3178 18.9155 13.2212 19.1403C13.1246 19.365 13.074 19.6069 13.0723 19.8515C13.0706 20.0961 13.1179 20.3386 13.2114 20.5647C13.3049 20.7907 13.4426 20.9958 13.6166 21.1678L17.8443 25.5678C18.1596 25.9084 18.5406 26.1814 18.9645 26.3705C19.3883 26.5596 19.8461 26.6607 20.3101 26.6678H20.3706C20.8254 26.6693 21.2759 26.5805 21.6961 26.4064C22.1162 26.2324 22.4976 25.9766 22.8181 25.654L30.6501 17.822C30.8212 17.6513 30.9569 17.4486 31.0496 17.2254C31.1423 17.0022 31.1902 16.763 31.1905 16.5213C31.1907 16.2797 31.1434 16.0403 31.0511 15.817C30.9589 15.5936 30.8235 15.3906 30.6529 15.2196C30.4822 15.0485 30.2794 14.9127 30.0563 14.82C29.8331 14.7273 29.5939 14.6795 29.3522 14.6792C29.1106 14.6789 28.8712 14.7263 28.6479 14.8185C28.4245 14.9108 28.2215 15.0461 28.0504 15.2168Z" fill="#B11E67"/>
</g>
<defs>
<clipPath id="clip0_2421_4464">
<rect width="44" height="44" fill="white"/>
</clipPath>
</defs>
</svg>
