<svg width="44" height="44" viewBox="0 0 44 44" fill="none" xmlns="http://www.w3.org/2000/svg">
<path d="M22 19.25C19.7257 19.25 17.875 21.1007 17.875 23.375C17.875 25.6493 19.7257 27.5 22 27.5C24.2743 27.5 26.125 25.6493 26.125 23.375C26.125 21.1007 24.2743 19.25 22 19.25ZM22 24.75C21.646 24.7342 21.3117 24.5824 21.0668 24.3263C20.8218 24.0701 20.6851 23.7294 20.6851 23.375C20.6851 23.0206 20.8218 22.6799 21.0668 22.4237C21.3117 22.1676 21.646 22.0158 22 22C22.354 22.0158 22.6883 22.1676 22.9332 22.4237C23.1782 22.6799 23.3149 23.0206 23.3149 23.375C23.3149 23.7294 23.1782 24.0701 22.9332 24.3263C22.6883 24.5824 22.354 24.7342 22 24.75Z" fill="#F95C5B"/>
<path d="M37.125 33C36.2747 33.0025 35.4459 33.2682 34.7527 33.7606C34.0594 34.253 33.5355 34.9479 33.253 35.75H31.0283L27.6567 30.1304L29.8018 30.7065C30.0877 30.7843 30.3912 30.7673 30.6666 30.6579C30.9421 30.5486 31.1746 30.3529 31.3294 30.1001L32.0994 28.8516C37.1828 28.6 41.25 24.3966 41.25 19.25C41.25 14.1378 37.2391 9.955 32.2011 9.65387C30.5718 5.61275 26.6173 2.75 22 2.75C17.3828 2.75 13.4283 5.61275 11.7989 9.65387C6.76088 9.955 2.75 14.1378 2.75 19.25C2.75 24.3966 6.8145 28.6028 11.902 28.8516L12.672 30.1001C12.8271 30.3521 13.0595 30.5473 13.3345 30.6565C13.6095 30.7658 13.9125 30.7833 14.1983 30.7065L16.3433 30.1304L12.9717 35.75H10.747C10.4645 34.9479 9.94064 34.253 9.24735 33.7606C8.55406 33.2682 7.72535 33.0025 6.875 33C4.60075 33 2.75 34.8507 2.75 37.125C2.75 39.3993 4.60075 41.25 6.875 41.25C7.72535 41.2475 8.55406 40.9818 9.24735 40.4894C9.94064 39.997 10.4645 39.3021 10.747 38.5H13.75C13.9873 38.5 14.2205 38.4385 14.427 38.3217C14.6334 38.2048 14.8062 38.0365 14.9284 37.8331L18.7413 31.4806L19.3064 33.3919C19.3908 33.676 19.5649 33.9252 19.8025 34.1023C20.0401 34.2795 20.3286 34.3751 20.625 34.375H23.375C23.6716 34.3751 23.9602 34.2792 24.1978 34.1018C24.4355 33.9244 24.6094 33.6749 24.6936 33.3905L25.2601 31.4792L29.0716 37.8317C29.1936 38.0354 29.3663 38.204 29.5728 38.3211C29.7793 38.4382 30.0126 38.4998 30.25 38.5H33.253C33.5355 39.3021 34.0594 39.997 34.7527 40.4894C35.4459 40.9818 36.2747 41.2475 37.125 41.25C39.3993 41.25 41.25 39.3993 41.25 37.125C41.25 34.8507 39.3993 33 37.125 33ZM6.875 38.5C6.52097 38.4842 6.18668 38.3324 5.94175 38.0763C5.69683 37.8201 5.56013 37.4794 5.56013 37.125C5.56013 36.7706 5.69683 36.4299 5.94175 36.1738C6.18668 35.9176 6.52097 35.7658 6.875 35.75C7.22903 35.7658 7.56332 35.9176 7.80825 36.1738C8.05317 36.4299 8.18987 36.7706 8.18987 37.125C8.18987 37.4794 8.05317 37.8201 7.80825 38.0763C7.56332 38.3324 7.22903 38.4842 6.875 38.5ZM12.6706 16.6512L11.2035 19.0327C11.0353 19.306 10.968 19.6295 11.0132 19.9471C11.0584 20.2648 11.2133 20.5566 11.451 20.7721L13.343 22.4868C13.2761 23.077 13.2761 23.673 13.343 24.2632L11.4524 25.9779C11.4359 25.9916 11.4276 26.0123 11.4125 26.0274C8.0795 25.5544 5.5 22.7109 5.5 19.25C5.5 15.9046 7.90625 13.1175 11.0756 12.507C11.0271 12.9196 11.0018 13.3346 11 13.75C11 14.1147 11.1449 14.4644 11.4027 14.7223C11.6606 14.9801 12.0103 15.125 12.375 15.125C12.7397 15.125 13.0894 14.9801 13.3473 14.7223C13.6051 14.4644 13.75 14.1147 13.75 13.75C13.75 9.20013 17.4501 5.5 22 5.5C26.5499 5.5 30.25 9.20013 30.25 13.75C30.25 14.1147 30.3949 14.4644 30.6527 14.7223C30.9106 14.9801 31.2603 15.125 31.625 15.125C31.9897 15.125 32.3394 14.9801 32.5973 14.7223C32.8551 14.4644 33 14.1147 33 13.75C32.9982 13.3346 32.9729 12.9196 32.9244 12.507C34.4916 12.8097 35.9049 13.6479 36.9221 14.8781C37.9392 16.1082 38.4971 17.6538 38.5 19.25C38.5 22.7109 35.9205 25.5544 32.5875 26.0288C32.5738 26.0123 32.5655 25.9916 32.549 25.9779L30.6584 24.2632C30.7251 23.673 30.7251 23.077 30.6584 22.4868L32.549 20.7721C32.7867 20.5566 32.9416 20.2648 32.9868 19.9471C33.032 19.6295 32.9647 19.306 32.7965 19.0327L31.3294 16.6499C31.1746 16.3976 30.9422 16.2021 30.6671 16.0928C30.392 15.9835 30.0889 15.9662 29.8031 16.0435L27.1494 16.7558C26.611 16.3796 26.0316 16.0659 25.4224 15.8208L24.6936 13.3595C24.6094 13.0751 24.4355 12.8256 24.1978 12.6482C23.9602 12.4708 23.6716 12.3749 23.375 12.375H20.625C20.3284 12.3749 20.0398 12.4708 19.8022 12.6482C19.5645 12.8256 19.3906 13.0751 19.3064 13.3595L18.5776 15.8208C17.9616 16.0682 17.3841 16.3818 16.8492 16.7558L14.1983 16.0435C13.9125 15.9662 13.6094 15.9835 13.3343 16.0928C13.0592 16.2021 12.8268 16.3976 12.672 16.6499L12.6706 16.6512ZM23.892 28.5588C23.6765 28.6258 23.4808 28.745 23.3223 28.9056C23.1638 29.0663 23.0473 29.2636 22.9831 29.48L22.3479 31.625H21.6521L21.0169 29.48C20.9527 29.2636 20.8362 29.0663 20.6777 28.9056C20.5192 28.745 20.3235 28.6258 20.108 28.5588C19.3469 28.3257 18.6394 27.9444 18.0262 27.4368C17.8576 27.2943 17.6568 27.1951 17.4411 27.1477C17.2255 27.1003 17.0016 27.106 16.7887 27.1645L14.4746 27.7846L14.1446 27.2484L15.7451 25.7991C15.9249 25.636 16.0582 25.4282 16.1316 25.1968C16.2051 24.9655 16.2159 24.7188 16.1631 24.4819C16.0017 23.7528 16.0017 22.9972 16.1631 22.2681C16.2159 22.0312 16.2051 21.7845 16.1316 21.5532C16.0582 21.3218 15.9249 21.114 15.7451 20.9509L14.1446 19.503L14.4746 18.9654L16.7887 19.5855C17.2219 19.7038 17.6825 19.5992 18.0262 19.3132C18.6392 18.8051 19.3468 18.4233 20.108 18.1899C20.3235 18.1228 20.5192 18.0037 20.6777 17.843C20.8362 17.6823 20.9527 17.485 21.0169 17.2686L21.6521 15.125H22.3479L22.9831 17.27C23.1138 17.7086 23.4548 18.0538 23.892 18.1912C24.6529 18.4238 25.3601 18.8051 25.9724 19.3132C26.3161 19.602 26.7823 19.7024 27.2099 19.5855L29.5254 18.9654L29.8554 19.5016L28.2549 20.9509C28.0753 21.1142 27.9421 21.322 27.8684 21.5532C27.7948 21.7845 27.7834 22.0311 27.8355 22.2681C27.918 22.6366 27.9592 23.0079 27.9592 23.375C27.9592 23.7421 27.918 24.1134 27.8355 24.4819C27.7296 24.9631 27.8905 25.4664 28.2549 25.7991L29.8554 27.2484L29.5254 27.7846L27.2099 27.1645C26.9969 27.1071 26.7732 27.1019 26.5578 27.1492C26.3424 27.1966 26.1416 27.2953 25.9724 27.4368C25.3602 27.9454 24.653 28.3258 23.892 28.5588ZM37.125 38.5C36.7601 38.4998 36.4103 38.3547 36.1524 38.0966C35.8946 37.8385 35.7498 37.4885 35.75 37.1236C35.7502 36.7588 35.8953 36.4089 36.1534 36.1511C36.4115 35.8932 36.7615 35.7484 37.1264 35.7486C37.4912 35.7488 37.8411 35.8939 38.0989 36.152C38.3568 36.4102 38.5016 36.7601 38.5014 37.125C38.5012 37.4899 38.3561 37.8397 38.098 38.0976C37.8398 38.3554 37.4899 38.5002 37.125 38.5Z" fill="#795CF5"/>
</svg>
