<svg width="44" height="44" viewBox="0 0 44 44" fill="none" xmlns="http://www.w3.org/2000/svg">
<path d="M20.625 8.25C22.3294 8.25 23.9336 8.57227 25.4375 9.2168C26.9414 9.86133 28.252 10.7493 29.3691 11.8809C30.4863 13.0124 31.3672 14.3229 32.0117 15.8125C32.6562 17.3021 32.9857 18.9062 33 20.625C33 21.5273 32.9427 22.3724 32.8281 23.1602C32.7135 23.9479 32.5345 24.6999 32.291 25.416C32.0475 26.1322 31.7324 26.8411 31.3457 27.543C30.959 28.2448 30.5007 28.9609 29.9707 29.6914C29.5553 30.2643 29.1901 30.7799 28.875 31.2383C28.5599 31.6966 28.3021 32.1549 28.1016 32.6133C27.901 33.0716 27.7507 33.5729 27.6504 34.1172C27.5501 34.6615 27.5 35.2988 27.5 36.0293V39.875C27.5 40.4479 27.3926 40.985 27.1777 41.4863C26.9629 41.9876 26.6693 42.4245 26.2969 42.7969C25.9245 43.1693 25.4876 43.4629 24.9863 43.6777C24.485 43.8926 23.9479 44 23.375 44H17.875C17.3021 44 16.765 43.8926 16.2637 43.6777C15.7624 43.4629 15.3255 43.1693 14.9531 42.7969C14.5807 42.4245 14.2871 41.9876 14.0723 41.4863C13.8574 40.985 13.75 40.4479 13.75 39.875V36.0078C13.75 35.2773 13.6999 34.6471 13.5996 34.1172C13.4993 33.5872 13.349 33.0931 13.1484 32.6348C12.9479 32.1764 12.6901 31.7109 12.375 31.2383C12.0599 30.7656 11.6947 30.25 11.2793 29.6914C10.7493 28.9609 10.2982 28.252 9.92578 27.5645C9.55339 26.877 9.23828 26.168 8.98047 25.4375C8.72266 24.707 8.53646 23.9479 8.42188 23.1602C8.30729 22.3724 8.25 21.5273 8.25 20.625C8.25 18.9206 8.57227 17.3164 9.2168 15.8125C9.86133 14.3086 10.7493 12.998 11.8809 11.8809C13.0124 10.7637 14.3229 9.88281 15.8125 9.23828C17.3021 8.59375 18.9062 8.26432 20.625 8.25ZM24.75 39.875V38.5H16.5V39.875C16.5 40.2474 16.6361 40.5697 16.9082 40.8418C17.1803 41.1139 17.5026 41.25 17.875 41.25H23.375C23.7474 41.25 24.0697 41.1139 24.3418 40.8418C24.6139 40.5697 24.75 40.2474 24.75 39.875ZM30.25 20.625C30.25 19.293 29.9993 18.0469 29.498 16.8867C28.9967 15.7266 28.3092 14.7025 27.4355 13.8145C26.5618 12.9264 25.5449 12.2389 24.3848 11.752C23.2246 11.265 21.9714 11.0143 20.625 11C19.293 11 18.0469 11.2507 16.8867 11.752C15.7266 12.2533 14.7025 12.9408 13.8145 13.8145C12.9264 14.6882 12.2389 15.7051 11.752 16.8652C11.265 18.0254 11.0143 19.2786 11 20.625C11 21.8997 11.1289 22.9954 11.3867 23.9121C11.6445 24.8288 11.9811 25.6452 12.3965 26.3613C12.8118 27.0775 13.2487 27.7507 13.707 28.3809C14.1654 29.0111 14.6022 29.6699 15.0176 30.3574C15.4329 31.0449 15.7767 31.8184 16.0488 32.6777C16.321 33.5371 16.4714 34.5612 16.5 35.75H24.75C24.7643 34.5612 24.9076 33.5443 25.1797 32.6992C25.4518 31.8542 25.7956 31.0807 26.2109 30.3789C26.6263 29.6771 27.0632 29.0182 27.5215 28.4023C27.9798 27.7865 28.4167 27.1133 28.832 26.3828C29.2474 25.6523 29.584 24.8288 29.8418 23.9121C30.0996 22.9954 30.2357 21.8997 30.25 20.625Z" fill="#795CF5"/>
<path d="M19.6582 5.0918C19.9303 5.36393 20.2526 5.5 20.625 5.5C20.9974 5.5 21.3197 5.36393 21.5918 5.0918C21.8639 4.81966 22 4.4974 22 4.125V1.375C22 1.0026 21.8639 0.680339 21.5918 0.408203C21.3197 0.136068 20.9974 0 20.625 0C20.2526 0 19.9303 0.136068 19.6582 0.408203C19.3861 0.680339 19.25 1.0026 19.25 1.375V4.125C19.25 4.4974 19.3861 4.81966 19.6582 5.0918Z" fill="#1AD1B9"/>
<path d="M1.375 19.9375H4.125C4.4974 19.9375 4.81966 19.8014 5.0918 19.5293C5.36393 19.2572 5.5 18.9349 5.5 18.5625C5.5 18.1901 5.36393 17.8678 5.0918 17.5957C4.81966 17.3236 4.4974 17.1875 4.125 17.1875H1.375C1.0026 17.1875 0.680339 17.3236 0.408203 17.5957C0.136068 17.8678 0 18.1901 0 18.5625C0 18.9349 0.136068 19.2572 0.408203 19.5293C0.680339 19.8014 1.0026 19.9375 1.375 19.9375Z" fill="#1AD1B9"/>
<path d="M6.23047 25.9531C5.95833 25.681 5.63607 25.5449 5.26367 25.5449C5.06315 25.5449 4.83398 25.5951 4.57617 25.6953C4.31836 25.7956 4.0319 25.903 3.7168 26.0176C3.40169 26.1322 3.10807 26.2539 2.83594 26.3828C2.5638 26.5117 2.34896 26.6048 2.19141 26.6621C1.91927 26.791 1.70443 26.9629 1.54688 27.1777C1.38932 27.3926 1.31055 27.6432 1.31055 27.9297C1.31055 28.3164 1.44661 28.6458 1.71875 28.918C1.99089 29.1901 2.31315 29.3262 2.68555 29.3262C2.88607 29.3118 3.11523 29.2617 3.37305 29.1758C3.63086 29.0898 3.91732 28.9824 4.23242 28.8535C4.54753 28.7246 4.84115 28.6029 5.11328 28.4883C5.38542 28.3737 5.60026 28.2806 5.75781 28.209C6.02995 28.0801 6.24479 27.9082 6.40234 27.6934C6.5599 27.4785 6.63867 27.2279 6.63867 26.9414C6.63867 26.5547 6.5026 26.2253 6.23047 25.9531Z" fill="#1AD1B9"/>
<path d="M8.12109 12.6543C8.39323 12.3822 8.5293 12.0599 8.5293 11.6875C8.5293 11.444 8.472 11.2148 8.35742 11C8.24284 10.7852 8.08529 10.6204 7.88477 10.5059L5.52148 9.08789C5.27799 8.94466 5.04167 8.87305 4.8125 8.87305C4.4401 8.87305 4.11784 9.00911 3.8457 9.28125C3.57357 9.55339 3.4375 9.87565 3.4375 10.248C3.45182 10.5059 3.51628 10.735 3.63086 10.9355C3.74544 11.1361 3.90299 11.3008 4.10352 11.4297L6.44531 12.8691C6.66016 12.998 6.89648 13.0625 7.1543 13.0625C7.52669 13.0625 7.84896 12.9264 8.12109 12.6543Z" fill="#1AD1B9"/>
<path d="M10.7207 2.81445C10.4486 3.08659 10.3125 3.40885 10.3125 3.78125C10.3125 4.02474 10.3698 4.24674 10.4844 4.44727L11.8164 6.85352C11.9453 7.06836 12.1172 7.24023 12.332 7.36914C12.5469 7.49805 12.776 7.5625 13.0195 7.5625C13.3919 7.5625 13.7142 7.42643 13.9863 7.1543C14.2585 6.88216 14.3945 6.55273 14.3945 6.16602C14.3945 5.93685 14.3372 5.72201 14.2227 5.52148L12.8906 3.11523C12.7617 2.90039 12.5898 2.72852 12.375 2.59961C12.1602 2.4707 11.931 2.40625 11.6875 2.40625C11.3151 2.40625 10.9928 2.54232 10.7207 2.81445Z" fill="#1AD1B9"/>
<path d="M40.8418 17.5957C40.5697 17.3236 40.2474 17.1875 39.875 17.1875H37.125C36.7526 17.1875 36.4303 17.3236 36.1582 17.5957C35.8861 17.8678 35.75 18.1901 35.75 18.5625C35.75 18.9349 35.8861 19.2572 36.1582 19.5293C36.4303 19.8014 36.7526 19.9375 37.125 19.9375H39.875C40.2474 19.9375 40.5697 19.8014 40.8418 19.5293C41.1139 19.2572 41.25 18.9349 41.25 18.5625C41.25 18.1901 41.1139 17.8678 40.8418 17.5957Z" fill="#1AD1B9"/>
<path d="M39.5098 28.918C39.7819 28.6458 39.918 28.3236 39.918 27.9512C39.918 27.6504 39.8392 27.3926 39.6816 27.1777C39.5241 26.9629 39.3164 26.7982 39.0586 26.6836C38.8867 26.6263 38.6647 26.5332 38.3926 26.4043C38.1204 26.2754 37.834 26.1465 37.5332 26.0176C37.2324 25.8887 36.946 25.7741 36.6738 25.6738C36.4017 25.5736 36.1797 25.5234 36.0078 25.5234C35.6211 25.5378 35.2917 25.6738 35.0195 25.9316C34.7474 26.1895 34.6113 26.5117 34.6113 26.8984C34.6257 27.1849 34.7116 27.4427 34.8691 27.6719C35.0267 27.901 35.2344 28.0729 35.4922 28.1875C35.6784 28.2878 35.9004 28.388 36.1582 28.4883C36.416 28.5885 36.7025 28.7103 37.0176 28.8535C37.3327 28.9967 37.6263 29.1113 37.8984 29.1973C38.1706 29.2832 38.3854 29.3262 38.543 29.3262C38.9154 29.3262 39.2376 29.1901 39.5098 28.918Z" fill="#1AD1B9"/>
<path d="M33.1289 12.6543C33.401 12.9264 33.7233 13.0625 34.0957 13.0625C34.3535 13.0625 34.5898 12.998 34.8047 12.8691L37.1465 11.4297C37.3613 11.2865 37.526 11.1146 37.6406 10.9141C37.7552 10.7135 37.8125 10.4915 37.8125 10.248C37.8125 9.87565 37.6764 9.55339 37.4043 9.28125C37.1322 9.00911 36.8099 8.87305 36.4375 8.87305C36.2083 8.87305 35.972 8.94466 35.7285 9.08789L33.3652 10.5059C33.1647 10.6204 33.0072 10.7852 32.8926 11C32.778 11.2148 32.7207 11.444 32.7207 11.6875C32.7207 12.0599 32.8568 12.3822 33.1289 12.6543Z" fill="#1AD1B9"/>
<path d="M27.0273 5.52148C26.9128 5.72201 26.8555 5.93685 26.8555 6.16602C26.8555 6.55273 26.9915 6.88216 27.2637 7.1543C27.5358 7.42643 27.8581 7.5625 28.2305 7.5625C28.4883 7.5625 28.7246 7.49805 28.9395 7.36914C29.1543 7.24023 29.319 7.06836 29.4336 6.85352L30.7656 4.44727C30.8802 4.24674 30.9375 4.02474 30.9375 3.78125C30.9375 3.40885 30.8014 3.08659 30.5293 2.81445C30.2572 2.54232 29.9349 2.40625 29.5625 2.40625C29.3047 2.40625 29.0684 2.4707 28.8535 2.59961C28.6387 2.72852 28.474 2.90039 28.3594 3.11523L27.0273 5.52148Z" fill="#1AD1B9"/>
</svg>
