<svg width="44" height="44" viewBox="0 0 44 44" fill="none" xmlns="http://www.w3.org/2000/svg">
<g clip-path="url(#clip0_869_1201)">
<path d="M34.375 22C34.375 19.9375 32.725 18.15 30.6625 17.875C29.15 14.575 25.85 12.375 22 12.375C21.725 12.375 21.3125 12.375 21.0375 12.5125C20.2125 11.55 19.1125 11 17.875 11C15.5375 11 13.75 12.7875 13.75 15.125C13.75 15.675 13.8875 16.0875 14.025 16.6375C12.925 18.15 12.375 19.9375 12.375 22C12.375 25.0938 12.925 25.85 14.025 27.3625C13.8875 27.9125 13.75 28.325 13.75 28.875C13.75 31.2125 15.5375 33 17.875 33C19.1125 33 20.2125 32.45 21.0375 31.4875C21.3125 31.4875 21.725 31.625 22 31.625C25.85 31.625 29.15 29.2875 30.6625 26.125C32.725 25.85 34.375 24.0625 34.375 22ZM17.875 13.75C18.7 13.75 19.25 14.3 19.25 15.125C19.25 15.95 18.7 16.5 17.875 16.5C17.05 16.5 16.5 15.95 16.5 15.125C16.5 14.3 17.05 13.75 17.875 13.75ZM17.875 30.25C17.05 30.25 16.5 29.7 16.5 28.875C16.5 28.05 17.05 27.5 17.875 27.5C18.7 27.5 19.25 28.05 19.25 28.875C19.25 29.7 18.7 30.25 17.875 30.25ZM22 28.875C22 26.5375 20.2125 24.75 17.875 24.75C17.1875 24.75 16.5 24.8875 15.95 25.3C15.4 24.3375 15.125 23.2375 15.125 22C15.125 20.1438 15.4 19.6625 15.95 18.7C16.5 19.1125 17.1875 19.25 17.875 19.25C20.2125 19.25 22 17.4625 22 15.125C24.6125 15.125 26.675 16.5 27.9125 18.5625C26.8125 19.3875 26.125 20.625 26.125 22C26.125 23.375 26.8125 24.6125 27.9125 25.4375C26.675 27.5 24.6125 28.875 22 28.875ZM30.25 23.375C29.425 23.375 28.875 22.825 28.875 22C28.875 21.175 29.425 20.625 30.25 20.625C31.075 20.625 31.625 21.175 31.625 22C31.625 22.825 31.075 23.375 30.25 23.375Z" fill="#F95C5B"/>
<path d="M22 42.6247C21.725 42.6247 21.5875 42.6247 21.3125 42.4872L4.8125 32.8622C4.4 32.5872 4.125 32.1747 4.125 31.6247V12.3747C4.125 11.8247 4.4 11.4122 4.8125 11.1372L21.3125 1.51216C21.725 1.23716 22.275 1.23716 22.6875 1.51216L38.0078 10.449C38.6586 10.8287 38.8771 11.6649 38.4951 12.3143C38.1169 12.9571 37.2918 13.1758 36.6449 12.8046L23.0024 4.97493C22.3822 4.61899 21.6191 4.62125 21.0011 4.98086L7.86921 12.6212C7.25367 12.9793 6.875 13.6378 6.875 14.3499V29.7869C6.875 30.4991 7.25367 31.1575 7.86921 31.5156L20.9942 39.152C21.6159 39.5137 22.3841 39.5137 23.0058 39.152L36.1308 31.5156C36.7463 31.1575 37.125 30.4991 37.125 29.7869V21.9995C37.125 21.2402 37.7405 20.6246 38.4999 20.6245C39.2593 20.6245 39.875 21.2401 39.875 21.9995V31.6247C39.875 32.1747 39.6 32.5872 39.1875 32.8622L22.6875 42.4872C22.4125 42.6247 22.275 42.6247 22 42.6247Z" fill="#1AD1B9"/>
</g>
<defs>
<clipPath id="clip0_869_1201">
<rect width="44" height="44" fill="white"/>
</clipPath>
</defs>
</svg>
