<?xml version="1.0" encoding="UTF-8"?>
<svg id="Layer_1" xmlns="http://www.w3.org/2000/svg" version="1.1" viewBox="0 0 1080 1080">
  <!-- Generator: Adobe Illustrator 30.0.0, SVG Export Plug-In . SVG Version: 2.1.1 Build 123)  -->
  <defs>
    <style>
      .st0 {
        fill: #fff;
      }

      .st1 {
        fill: #da2628;
      }

      .st2 {
        fill: #db2426;
      }
    </style>
  </defs>
  <path class="st0" d="M761.09,641.23c-3.35,3.06-10.51,3.5-13.55-.33-7.07-8.89,5.11-29.3,16.26-22.25,5.75,3.63,1.65,18.61-2.7,22.59Z"/>
  <polygon class="st2" points="142.97 436.35 139.76 465.7 175.07 465.7 180.58 436.35 142.97 436.35"/>
  <polygon points="133.57 480.38 171.34 480.38 152.46 586.08 112.25 584.94 133.57 480.38"/>
  <polygon points="181.49 480.38 218.41 480.38 224.14 553.52 259.23 480.38 298.9 480.38 239.05 583.56 195.02 583.56 181.49 480.38"/>
  <path class="st1" d="M293.51,528.18s29.46,15.17,21.57,32.84c0,0,0,0,0,0-10.33,48.12-199.13,50.68-206.67,48.56-.02,0-.02.02-.01.03,10.75,12.99,136.87,5.07,135.37,6.32-.01.01-.01.03,0,.03,31.77-1.37,107.06-12.34,103.36-59.68,0,0-1.97-23.84-53.01-32.68,0,0,0,0,0,0-.03,0-6.82.17-.61,4.58,0,0,0,0,0,0Z"/>
  <path d="M411.82,502.94l-11.52,55.98c-1.28,2.99-10.93,2.63-12.06,1.08l10.77-55.37c1.72-3.31,9.4-1.08,12.81-1.69Z"/>
  <path d="M509.64,500.05l-12.49,60.01c-5.1,2.32-8.51,2.87-12.01-1.86-10.66,8.87-26.81,4.78-26.58-10.65.28-18.89,15.22-38.97,34.58-25.52l5.63-21.85,10.87-.13ZM472.89,551.79c17.73,9.36,26.39-31.23,6.17-23.8-6.21,2.48-11.02,19.26-6.17,23.8Z"/>
  <path d="M791.16,546.01l2.29-1.24,20.64-39.32c2.56-2.65,7.62-1.05,11.07-1.43.35,2.08-.39,3.57-1.11,5.39-6.46,16.46-20.44,33.11-27.03,49.96-1.68,3.78-14.65,3.51-15.85.88l-5.57-55.31c.98-1.4,10.4-1.96,11.4.73l4.17,40.33Z"/>
  <path d="M429.46,519.69c-.63,8.27,4.27.03,8.85-.9,30.18-4.26,13.58,24.74,12.02,41.02-.68,3.84-10.75,3.81-11.64,1.11-1.15-3.48,5.22-20.94,5-26.87-.24-6.38-4.77-7.89-10.02-4.9-8.61,4.92-9.01,22.71-11.55,31.45-2.06,1.38-10.53,3.56-11.46.34l7.96-41.33,10.84.09Z"/>
  <path d="M703.93,560.54c-.91-1.29,1.02-3.01-1.7-2.74-1.86.18-2.66,2.13-4.22,2.79-24.11,10.12-27.36-20.99-5.53-24.53,5.04-.82,10.57.59,15.35-1.86,3.32-11.29-14.12-7.54-20.08-4.38-4.43-14.71,25.27-14.69,30.44-7.95s-3.15,29.46-3.92,37.97c-2.01,1.32-8.93,2.68-10.33.7ZM701.56,542.06c-4.21.16-11.72,1.82-11.74,7.25-.03,9.62,17.33,2.82,15.84-5.87-.98-2.21-2.4-1.45-4.11-1.39Z"/>
  <path d="M845.82,558.36c-4.46,1.71-9.86,5.41-14.96,4.56-15.5-2.61-11.6-22.42,3.8-26.33,2.81-.71,14.86-1.25,15.32-1.87,1.87-2.56.12-6.34-2.8-7.19-5.54-1.63-13.92,2.72-16.32,1.31-2.72-10.79,13.14-11.45,20.44-10.43,17.49,2.43,10.19,17.57,7.86,28.69-.69,3.3-.8,11.21-1.77,13.23-1.66,3.49-11.2,2.75-11.58-1.96ZM842.66,542.56c-12.02,1.43-13.08,12.98-3.36,11.72,4.04-.53,10.27-7.03,9.59-10.44-.43-2.16-4.64-1.46-6.23-1.27Z"/>
  <path d="M556.55,519.03l-8.95,41.55c-3.78.45-10.91,3.28-10.06-2.55h-1.48c-7.19,6.4-21.9,7.71-24.07-3.94-1.09-11.7,4.15-23.43,5.59-35.02l8.71-.85,2.1,1.46c2.92,7.16-12.1,32.81.66,33.46,12.69.65,14-24.44,15.93-33.17l11.56-.94Z"/>
  <path d="M593.12,519.71l-2.04,7.95c-1.54,1.11-10.55-4.91-15.5-.03-6.81,6.71,11.48,8.05,14.02,14.07,6.49,15.39-22.25,26.32-33.05,18.02l.58-8.04c6.89.75,17.3,5.9,19.7-3.51-.31-4.54-16.76-4.65-15.66-16.86,1.25-13.84,21.77-16.24,31.95-11.59Z"/>
  <path d="M619.59,506.56l-.97,10.95c7.27,1.91,13.51-.57,6.99,8.56l-9.57,1.43-4.2,22.45c.82,4.22,10.28,1.41,9.76,5.06-1,11.12-18.92,8.84-21.55.61-2.05-6.41,6.27-26.13,2.6-28.61-1.44-.98-4.71.34-6.02-1.93,2.02-5.38,2.39-7.23,8.83-6.65l3.12-9.38,11.01-2.48Z"/>
  <path d="M735.83,559.14c-2.03,2.08-11.05,1.57-11.47-1.22l11.89-56.86,1.44-1.56,9.95.84-11.81,58.8Z"/>
  <path d="M879.21,559.14c-2.03,2.08-11.05,1.57-11.47-1.22l11.89-56.86,1.44-1.56,9.95.84-11.81,58.8Z"/>
  <path d="M645.88,532.35c-6.62,6.94-4.57,22.26-7.86,27.64-1.5,2.45-11.68,4.14-11.43-1.33.54-11.58,6.62-25.7,7.45-37.65,1.44-2.95,6.17-1.91,8.83-2.04,2.8,8.27,4.71.46,10.39-.73,10.04-2.1,7.07,3.89,4.32,10.31-4.2.57-8.54.47-11.71,3.79Z"/>
  <path d="M656.56,561.12l8.43-41.02c1.08-1.54,12.96-2.44,11.38,2.3l-8.91,38.17c-2.46,3.5-7.5.36-10.9.55Z"/>
  <path d="M678.64,510.89c-1.68,1.73-8.24,1.76-10.38.28-1.83-1.27-.32-6.69.51-8.65,1.42-1.87,9.44-2.05,11.15-.94,1.7,1.1-.28,8.29-1.28,9.32Z"/>
  <path d="M926.12,528.16c-10.95-1.46-19.91-2.65-23.7,9.79-4.57,15.02,4.99,17.27,17.7,14.22,2.08,14.76-21.63,13.06-27.99,4.49-9.05-12.21,1.08-35.76,15.73-38.25,3.41-.58,11.31-.7,14.69-.17,6.99,1.08,3.4,4.98,3.56,9.93Z"/>
  <path d="M933.89,524.46c2.65-2.51,8.46-5.93,12.12-6.38,13.77-1.67,26.05,1.41,25.59,17.53-.45,15.84-14.19,29.2-30.31,27.23-20.4-2.49-19.45-26.96-7.4-38.39ZM953.23,550.8c4.35-3.98,8.45-18.96,2.7-22.59-11.15-7.04-23.33,13.36-16.26,22.25,3.05,3.83,10.2,3.4,13.55.33Z"/>
</svg>