<svg width="44" height="44" viewBox="0 0 44 44" fill="none" xmlns="http://www.w3.org/2000/svg">
<path d="M33.21 22.6071C32.8424 22.6126 32.4777 22.6724 32.1276 22.7846C31.4397 20.843 29.308 19.8267 27.3663 20.5147C27.2396 20.5596 27.1154 20.6114 26.9943 20.6697C26.6456 20.1985 26.1917 19.8153 25.6686 19.5507C25.1455 19.2861 24.5679 19.1475 23.9817 19.1458C23.6986 19.1477 23.4166 19.1821 23.1413 19.2485V12.537C23.1002 10.4524 21.377 8.79586 19.2924 8.83693C17.2657 8.87693 15.6323 10.5103 15.5924 12.537V26.8957C13.6065 24.9913 10.5311 24.8129 8.33825 26.4747C6.93671 27.5257 6.59946 29.488 7.5697 30.9466L12.7632 38.7375C13.841 40.3579 15.303 41.6864 17.0188 42.6046C18.7347 43.5228 20.6511 44.0021 22.5972 43.9999H25.2372C29.9662 44.0033 34.241 41.1846 36.1008 36.8367C36.6878 35.4654 36.9883 33.9885 36.9837 32.4968V26.3808C36.9812 24.2977 35.2931 22.6095 33.21 22.6071ZM34.0504 32.4968C34.0523 33.5916 33.8302 34.6752 33.3977 35.681C31.9997 38.9503 28.7855 41.0697 25.2298 41.0665H22.5898C21.1263 41.0677 19.6854 40.7067 18.3954 40.0158C17.1053 39.3248 16.0063 38.3254 15.1963 37.1066L10.0102 29.3186C9.95847 29.2401 9.93862 29.1448 9.95469 29.0521C9.97077 28.9595 10.0216 28.8765 10.0967 28.8199C11.259 27.9397 12.9117 28.1502 13.8162 29.2937L15.9121 31.9117C16.418 32.5443 17.3409 32.647 17.9735 32.1412C18.1453 32.0039 18.2839 31.8297 18.3792 31.6316C18.4746 31.4334 18.5241 31.2164 18.5242 30.9965V12.537C18.5288 12.4265 18.5551 12.318 18.6017 12.2177C18.6482 12.1175 18.714 12.0273 18.7954 11.9525C18.8768 11.8777 18.9721 11.8196 19.0759 11.7816C19.1797 11.7436 19.29 11.7264 19.4005 11.731C19.6114 11.7398 19.8113 11.8275 19.9606 11.9768C20.1099 12.1261 20.1976 12.326 20.2064 12.537V25.2266C20.2064 26.0366 20.863 26.6933 21.6731 26.6933C22.4832 26.6933 23.1398 26.0366 23.1398 25.2266V22.9195C23.1395 22.4554 23.5156 22.0789 23.9797 22.0786C24.4439 22.0784 24.8203 22.4545 24.8206 22.9186V26.3807C24.8206 27.1907 25.4772 27.8474 26.2873 27.8474C27.0973 27.8474 27.754 27.1908 27.754 26.3807V24.0738C27.7586 23.9633 27.7849 23.8549 27.8314 23.7546C27.878 23.6543 27.9438 23.5642 28.0252 23.4893C28.1065 23.4145 28.2019 23.3564 28.3057 23.3184C28.4095 23.2804 28.5198 23.2632 28.6302 23.2678C28.8412 23.2766 29.0411 23.3644 29.1904 23.5137C29.3397 23.6629 29.4274 23.8629 29.4362 24.0738V27.5351C29.4362 28.3451 30.0928 29.0018 30.9029 29.0018C31.7129 29.0018 32.3696 28.3452 32.3696 27.5351V26.3808C32.3693 25.9167 32.7454 25.5402 33.2095 25.5399C33.6736 25.5397 34.0501 25.9158 34.0504 26.3799V32.4968Z" fill="#795CF5"/>
<path d="M20.201 5.86663C20.201 6.67669 19.5443 7.3333 18.7343 7.3333C17.9243 7.3333 17.2676 6.67669 17.2676 5.86671V1.46668C17.2676 0.65661 17.9242 0 18.7343 0C19.5444 0 20.201 0.65661 20.201 1.46668V5.86663Z" fill="#1AD1B9"/>
<path d="M23.6956 8.68824C23.5176 8.76199 23.3269 8.79996 23.1344 8.79998C22.7455 8.79989 22.3726 8.6454 22.0976 8.37048C21.5249 7.7978 21.5247 6.86917 22.0974 6.29631L25.2082 3.18551C25.22 3.17326 25.232 3.16127 25.2442 3.14945C25.8269 2.58671 26.7554 2.60291 27.3181 3.18551C27.8809 3.76821 27.8647 4.69666 27.2821 5.25941L24.1713 8.37021C24.0351 8.50643 23.8735 8.6145 23.6956 8.68824Z" fill="#1AD1B9"/>
<path d="M15.3713 8.33433C14.8085 8.91693 13.88 8.93304 13.2974 8.3703L10.1866 5.25959C9.63762 4.69121 9.63762 3.79014 10.1866 3.22175C10.7493 2.63914 11.6779 2.62295 12.2605 3.18569L15.3713 6.29649C15.9202 6.86487 15.9202 7.76594 15.3713 8.33433Z" fill="#1AD1B9"/>
<path d="M12.8677 13.2H8.46766C7.65768 13.2 7.00098 12.5434 7.00098 11.7333C7.00098 10.9233 7.65768 10.2667 8.46766 10.2667H12.8677C13.6778 10.2667 14.3344 10.9233 14.3344 11.7333C14.3344 12.5434 13.6777 13.2 12.8677 13.2Z" fill="#1AD1B9"/>
<path d="M24.1348 11.7333C24.1348 12.5433 24.7914 13.2 25.6014 13.2H30.0015C30.8115 13.2 31.4682 12.5433 31.4682 11.7333C31.4682 10.9232 30.8115 10.2666 30.0015 10.2666H25.6014C24.7914 10.2666 24.1348 10.9232 24.1348 11.7333Z" fill="#1AD1B9"/>
</svg>
