<svg width="44" height="44" viewBox="0 0 44 44" fill="none" xmlns="http://www.w3.org/2000/svg">
<g clip-path="url(#clip0_881_1342)">
<path d="M40.0469 8.76562C37.9145 8.76562 36.1797 10.5004 36.1797 12.6328V23.5518C34.663 22.3823 32.478 22.4917 31.0877 23.8821L22.5986 32.3716C22.3833 32.5873 22.1832 32.8178 22 33.0614C21.8168 32.8178 21.6167 32.5873 21.4014 32.3716L12.9123 23.8821C11.522 22.4917 9.33702 22.3823 7.82031 23.5518V12.6328C7.82031 10.5004 6.08549 8.76562 3.95312 8.76562C1.82076 8.76562 0.0859375 10.5004 0.0859375 12.6328V29.3141C0.0859375 30.8928 0.609898 32.4561 1.56123 33.7159L8.93999 43.4877C9.06017 43.6469 9.21562 43.7759 9.39413 43.8648C9.57264 43.9537 9.76933 44 9.96875 44H34.0312C34.4355 44 34.8164 43.8103 35.06 43.4877L42.4388 33.7159C43.3901 32.4561 43.9141 30.8928 43.9141 29.3141V12.6328C43.9141 10.5004 42.1792 8.76562 40.0469 8.76562ZM20.7109 41.4219H10.6106L3.61866 32.1624C3.00309 31.3472 2.66406 30.3357 2.66406 29.3141V12.6328C2.66406 11.922 3.24234 11.3438 3.95312 11.3438C4.66391 11.3438 5.24219 11.922 5.24219 12.6328V24.4808C5.24219 26.2025 5.91259 27.8211 7.12998 29.0385L12.261 34.1694C12.7645 34.6728 13.5806 34.6727 14.084 34.1694C14.5875 33.6659 14.5875 32.8498 14.084 32.3464L9.26595 27.5284C8.76245 27.0249 8.76245 26.2085 9.26604 25.7051C9.76955 25.2017 10.5858 25.2017 11.0892 25.7052L19.5784 34.1947C20.3035 34.9199 20.7109 35.9035 20.7109 36.9291V41.4219ZM41.3359 29.3141C41.3359 30.3356 40.9969 31.3472 40.3813 32.1624L33.3894 41.4219H23.2891V36.9291C23.2891 35.9035 23.6965 34.9199 24.4216 34.1946L32.9108 25.7051C33.4142 25.2016 34.2305 25.2016 34.734 25.705C35.2375 26.2084 35.2375 27.0249 34.734 27.5283L29.916 32.3463C29.4125 32.8496 29.4125 33.6658 29.916 34.1693C30.4194 34.6726 31.2355 34.6727 31.739 34.1693L36.87 29.0384C38.0874 27.821 38.7578 26.2024 38.7578 24.4808V12.6328C38.7578 11.922 39.3361 11.3438 40.0469 11.3438C40.7577 11.3438 41.3359 11.922 41.3359 12.6328V29.3141Z" fill="#795CF5"/>
<path d="M15.125 19.7656H28.875C29.5869 19.7656 30.1641 19.1885 30.1641 18.4766V13.3203C30.1641 10.5591 28.4182 8.19852 25.9726 7.2826C26.4488 6.545 26.7266 5.66792 26.7266 4.72656C26.7266 2.12034 24.6062 0 22 0C19.3938 0 17.2734 2.12034 17.2734 4.72656C17.2734 5.66792 17.5512 6.545 18.0274 7.2826C15.5818 8.19852 13.8359 10.5591 13.8359 13.3203V18.4766C13.8359 19.1885 14.4131 19.7656 15.125 19.7656ZM22 2.57812C23.1846 2.57812 24.1484 3.54191 24.1484 4.72656C24.1484 5.91121 23.1846 6.875 22 6.875C20.8154 6.875 19.8516 5.91121 19.8516 4.72656C19.8516 3.54191 20.8154 2.57812 22 2.57812ZM16.4141 13.3203C16.4141 11.1879 18.1489 9.45312 20.2812 9.45312H23.7188C25.8511 9.45312 27.5859 11.1879 27.5859 13.3203V17.1875H16.4141V13.3203Z" fill="#F95C5B"/>
</g>
<defs>
<clipPath id="clip0_881_1342">
<rect width="44" height="44" fill="white"/>
</clipPath>
</defs>
</svg>
