<svg width="44" height="44" viewBox="0 0 44 44" fill="none" xmlns="http://www.w3.org/2000/svg">
<g clip-path="url(#clip0_881_1308)">
<path d="M42.5993 23.8609L30.1253 37.8621C26.6493 41.7634 21.659 44.0001 16.4358 44.0001H7.33333C3.289 44.0001 0 40.7111 0 36.6667V27.5001C0 23.4557 3.289 20.1667 7.33333 20.1667H23.5712C25.6612 20.1667 27.4927 21.2832 28.501 22.9516L34.3988 16.4726C35.3907 15.3817 36.7473 14.7437 38.2213 14.6741C39.677 14.6191 41.1052 15.1122 42.1978 16.1077C44.4235 18.1354 44.6032 21.6151 42.5975 23.8627L42.5993 23.8609ZM39.7302 18.8156C39.3653 18.4819 38.8887 18.2986 38.3955 18.3334C37.9005 18.3572 37.444 18.5717 37.1122 18.9366L28.9978 27.8557C28.292 29.8174 26.543 31.3207 24.3888 31.6287L14.927 32.9799C13.9168 33.1156 12.9947 32.4262 12.8517 31.4234C12.7087 30.4206 13.4053 29.4911 14.4082 29.3481L23.87 27.9969C24.8967 27.8521 25.6667 26.9611 25.6667 25.9252C25.6667 24.7702 24.7262 23.8297 23.5712 23.8297H7.33333C5.31117 23.8297 3.66667 25.4742 3.66667 27.4964V36.6631C3.66667 38.6852 5.31117 40.3297 7.33333 40.3297H16.4358C20.614 40.3297 24.6052 38.5386 27.3882 35.4201L39.8622 21.4171C40.5368 20.6617 40.4782 19.4921 39.7302 18.8119V18.8156Z" fill="#795CF5"/>
<path d="M15.5836 0C13.0518 0 11.0003 2.0515 11.0003 4.58333C11.0003 7.11517 13.0518 9.16667 15.5836 9.16667C18.1154 9.16667 20.1669 7.11517 20.1669 4.58333C20.1669 2.0515 18.1154 0 15.5836 0Z" fill="#F95C5B"/>
<path d="M20.6876 16.863C17.9248 14.0305 13.2443 14.0305 10.4796 16.863C9.77195 17.5908 8.61145 17.6018 7.88728 16.896C7.16128 16.1883 7.14661 15.0297 7.85428 14.3037C9.93328 12.1733 12.6778 11 15.5836 11C18.4894 11 21.2339 12.1733 23.3129 14.3037C24.0188 15.0278 24.0059 16.1883 23.2799 16.896C22.9243 17.2425 22.4623 17.4167 22.0003 17.4167C21.5236 17.4167 21.0469 17.2315 20.6876 16.863Z" fill="#F95C5B"/>
</g>
<defs>
<clipPath id="clip0_881_1308">
<rect width="44" height="44" fill="white"/>
</clipPath>
</defs>
</svg>
