<svg width="42" height="42" viewBox="0 0 42 42" fill="none" xmlns="http://www.w3.org/2000/svg">
<g clip-path="url(#clip0_2108_4308)">
<path d="M29.951 14.0875C29.4492 14.2208 28.9983 14.4999 28.6551 14.8895C28.312 15.2791 28.0921 15.7616 28.0232 16.2762C27.9543 16.7907 28.0396 17.3142 28.2681 17.7803C28.4967 18.2464 28.8583 18.6343 29.3073 18.8948C29.7563 19.1554 30.2725 19.277 30.7906 19.2443C31.3087 19.2115 31.8055 19.0259 32.2181 18.7108C32.6307 18.3958 32.9406 17.9654 33.1087 17.4742C33.2767 16.983 33.2953 16.4531 33.1622 15.9513C33.0738 15.618 32.9206 15.3054 32.7113 15.0314C32.5021 14.7574 32.2409 14.5273 31.9427 14.3542C31.6445 14.1811 31.3151 14.0685 30.9733 14.0227C30.6316 13.977 30.2842 13.999 29.951 14.0875ZM21.201 8.83753C20.6992 8.97083 20.2483 9.24992 19.9051 9.63949C19.562 10.0291 19.3421 10.5116 19.2732 11.0262C19.2043 11.5407 19.2896 12.0642 19.5181 12.5303C19.7467 12.9964 20.1083 13.3843 20.5573 13.6448C21.0063 13.9054 21.5225 14.027 22.0406 13.9943C22.5587 13.9615 23.0555 13.7759 23.4681 13.4608C23.8807 13.1458 24.1906 12.7154 24.3587 12.2242C24.5267 11.733 24.5453 11.2031 24.4122 10.7013C24.3238 10.368 24.1706 10.0554 23.9613 9.78141C23.7521 9.50738 23.4909 9.27725 23.1927 9.10418C22.8945 8.93111 22.5651 8.81848 22.2233 8.77273C21.8816 8.72697 21.5342 8.74899 21.201 8.83753ZM12.451 14.0875C11.9492 14.2208 11.4983 14.4999 11.1551 14.8895C10.812 15.2791 10.5921 15.7616 10.5232 16.2762C10.4543 16.7907 10.5396 17.3142 10.7681 17.7803C10.9967 18.2464 11.3583 18.6343 11.8073 18.8948C12.2563 19.1554 12.7725 19.277 13.2906 19.2443C13.8087 19.2115 14.3055 19.0259 14.7181 18.7108C15.1307 18.3958 15.4406 17.9654 15.6087 17.4742C15.7767 16.983 15.7953 16.4531 15.6622 15.9513C15.5738 15.618 15.4206 15.3054 15.2113 15.0314C15.0021 14.7574 14.7409 14.5273 14.4427 14.3542C14.1445 14.1811 13.8151 14.0685 13.4733 14.0227C13.1316 13.977 12.7842 13.999 12.451 14.0875ZM12.451 24.5875C11.9492 24.7208 11.4983 24.9999 11.1551 25.3895C10.812 25.7791 10.5921 26.2616 10.5232 26.7762C10.4543 27.2907 10.5396 27.8142 10.7681 28.2803C10.9967 28.7464 11.3583 29.1343 11.8073 29.3948C12.2563 29.6554 12.7725 29.777 13.2906 29.7443C13.8087 29.7115 14.3055 29.5259 14.7181 29.2108C15.1307 28.8958 15.4406 28.4654 15.6087 27.9742C15.7767 27.483 15.7953 26.9531 15.6622 26.4513C15.5738 26.118 15.4206 25.8054 15.2113 25.5314C15.0021 25.2574 14.7409 25.0273 14.4427 24.8542C14.1445 24.6811 13.8151 24.5685 13.4733 24.5227C13.1316 24.477 12.7842 24.499 12.451 24.5875Z" fill="#1AD1B9"/>
<path d="M21.8743 0.0121957C19.0568 -0.0857723 16.2484 0.384578 13.6165 1.39521C10.9846 2.40584 8.58323 3.93605 6.55542 5.89462C4.52761 7.85319 2.91492 10.2 1.8135 12.7952C0.712074 15.3903 0.144473 18.1807 0.144531 20.9999C0.151015 26.5675 2.36559 31.9052 6.30245 35.842C10.2393 39.7789 15.577 41.9935 21.1445 41.9999C21.736 41.9999 22.317 41.9614 22.8945 41.9124C23.3327 41.8755 23.741 41.675 24.038 41.3507C24.335 41.0264 24.4991 40.6022 24.4975 40.1624L24.4415 33.8834C24.4274 32.6426 24.7833 31.4258 25.464 30.3882C26.1446 29.3507 27.119 28.5395 28.2628 28.0583C29.4066 27.5772 30.6678 27.4478 31.8855 27.6868C33.1031 27.9257 34.2219 28.5222 35.099 29.3999L35.274 29.5749C35.6713 29.9756 36.1635 30.2693 36.7047 30.4287C37.246 30.5881 37.8188 30.6081 38.3698 30.4867C38.9119 30.3729 39.4167 30.1246 39.8378 29.7647C40.2589 29.4048 40.5827 28.9448 40.7795 28.4269C41.7457 25.89 42.2076 23.1888 42.1393 20.4749C41.9423 15.1445 39.7499 10.0825 35.9964 6.29248C32.243 2.50242 27.2026 0.260892 21.8743 0.0121957ZM37.5928 26.9622L37.5683 26.9377C36.2004 25.5721 34.4572 24.6442 32.5604 24.2722C30.6637 23.9001 28.6991 24.1007 26.9167 24.8484C25.1343 25.5961 23.6146 26.857 22.5509 28.4709C21.4872 30.0848 20.9276 31.9786 20.9433 33.9114L20.9853 38.4999C16.344 38.4791 11.9011 36.6153 8.63398 33.3186C5.36686 30.022 3.54315 25.5625 3.56403 20.9212C3.58492 16.2799 5.44869 11.837 8.74535 8.56989C12.042 5.30277 16.5015 3.47906 21.1428 3.49995C21.3475 3.49995 21.554 3.49995 21.7605 3.51045C26.1992 3.71893 30.3976 5.58724 33.5238 8.74516C36.6499 11.9031 38.4757 16.1201 38.6393 20.5607C38.697 22.737 38.3438 24.9046 37.598 26.9499L37.5928 26.9622Z" fill="#F95C5B"/>
</g>
<defs>
<clipPath id="clip0_2108_4308">
<rect width="42" height="42" fill="white"/>
</clipPath>
</defs>
</svg>
