<svg width="44" height="44" viewBox="0 0 44 44" fill="none" xmlns="http://www.w3.org/2000/svg">
<path d="M19.984 34.9199C20.3526 34.7128 20.625 34.3457 20.625 33.9229V31.25C20.625 30.6977 21.0727 30.25 21.625 30.25H22.375C22.9273 30.25 23.375 30.6977 23.375 31.25V33.9227C23.375 34.3456 23.6475 34.7127 24.0163 34.9198C25.272 35.625 26.125 36.9597 26.125 38.5C26.125 40.7743 24.2743 42.625 22 42.625C19.7257 42.625 17.875 40.7743 17.875 38.5C17.875 36.9598 18.7289 35.6251 19.984 34.9199ZM20.625 38.5C20.625 38.8647 20.7699 39.2144 21.0277 39.4723C21.2856 39.7301 21.6353 39.875 22 39.875C22.3647 39.875 22.7144 39.7301 22.9723 39.4723C23.2301 39.2144 23.375 38.8647 23.375 38.5C23.375 38.1353 23.2301 37.7856 22.9723 37.5277C22.7144 37.2699 22.3647 37.125 22 37.125C21.6353 37.125 21.2856 37.2699 21.0277 37.5277C20.7699 37.7856 20.625 38.1353 20.625 38.5ZM39.875 30.25C39.875 32.5243 38.0243 34.375 35.75 34.375C35.1389 34.3743 34.5356 34.2379 33.9836 33.9757C33.4316 33.7136 32.9447 33.3321 32.558 32.859C32.1712 32.3858 31.8944 31.8328 31.7473 31.2396C31.657 30.8757 31.6171 30.5023 31.6276 30.1296C31.6395 29.7066 31.4651 29.2836 31.1023 29.0658L28.9973 27.8024C28.5295 27.5216 28.3731 26.9177 28.6458 26.4452L29.0211 25.7946C29.3005 25.3105 29.9224 25.1494 30.4017 25.4369L32.5303 26.7139C32.8962 26.9334 33.3554 26.8855 33.7248 26.6722C34.3372 26.3186 35.0347 26.128 35.75 26.125C38.0243 26.125 39.875 27.9757 39.875 30.25ZM37.125 30.25C37.125 29.8853 36.9801 29.5356 36.7223 29.2777C36.4644 29.0199 36.1147 28.875 35.75 28.875C35.3853 28.875 35.0356 29.0199 34.7777 29.2777C34.5199 29.5356 34.375 29.8853 34.375 30.25C34.375 30.6147 34.5199 30.9644 34.7777 31.2223C35.0356 31.4801 35.3853 31.625 35.75 31.625C36.1147 31.625 36.4644 31.4801 36.7223 31.2223C36.9801 30.9644 37.125 30.6147 37.125 30.25ZM39.875 13.75C39.875 16.0243 38.0243 17.875 35.75 17.875C35.0347 17.872 34.3371 17.6814 33.7248 17.3278C33.3554 17.1145 32.8962 17.0666 32.5304 17.286L30.4677 18.5233C29.9884 18.8108 29.3665 18.6497 29.0872 18.1656L28.7119 17.5153C28.4392 17.0426 28.5957 16.4386 29.0637 16.1579L31.1017 14.9356C31.4648 14.7178 31.6393 14.2945 31.6273 13.8713C31.6167 13.4987 31.6566 13.1252 31.7468 12.7613C31.8937 12.168 32.1706 11.6147 32.5573 11.1414C32.9441 10.6681 33.4311 10.2866 33.9832 10.0243C34.5353 9.7621 35.1388 9.62571 35.75 9.625C36.8438 9.625 37.8928 10.0594 38.6663 10.8327C39.4399 11.606 39.8746 12.6548 39.875 13.7486M37.125 13.7486C37.125 13.384 36.9801 13.0342 36.7223 12.7764C36.4644 12.5185 36.1147 12.3736 35.75 12.3736C35.3853 12.3736 35.0356 12.5185 34.7777 12.7764C34.5199 13.0342 34.375 13.384 34.375 13.7486C34.375 14.1133 34.5199 14.463 34.7777 14.7209C35.0356 14.9788 35.3853 15.1236 35.75 15.1236C36.1147 15.1236 36.4644 14.9788 36.7223 14.7209C36.9801 14.463 37.125 14.1133 37.125 13.7486ZM12.9009 29.064C12.5365 29.2827 12.3618 29.7083 12.3734 30.1331C12.3745 30.1719 12.375 30.2109 12.375 30.25C12.375 32.5243 10.5243 34.375 8.25 34.375C5.97575 34.375 4.125 32.5243 4.125 30.25C4.125 27.9757 5.97575 26.125 8.25 26.125C8.96527 26.128 9.66283 26.3186 10.2752 26.6722C10.6446 26.8855 11.1038 26.9334 11.4697 26.7139L13.5158 25.4864C13.9951 25.1988 14.617 25.36 14.8964 25.8441L15.2717 26.4947C15.5444 26.9672 15.388 27.5711 14.9202 27.8519L12.9009 29.064ZM9.625 30.25C9.625 29.8853 9.48013 29.5356 9.22227 29.2777C8.96441 29.0199 8.61467 28.875 8.25 28.875C7.88533 28.875 7.53559 29.0199 7.27773 29.2777C7.01987 29.5356 6.875 29.8853 6.875 30.25C6.875 30.6147 7.01987 30.9644 7.27773 31.2223C7.53559 31.4801 7.88533 31.625 8.25 31.625C8.61467 31.625 8.96441 31.4801 9.22227 31.2223C9.48013 30.9644 9.625 30.6147 9.625 30.25ZM27.5 22C27.5 18.9668 25.0333 16.5 22 16.5C18.9668 16.5 16.5 18.9668 16.5 22C16.5 25.0332 18.9668 27.5 22 27.5C25.0333 27.5 27.5 25.0332 27.5 22ZM24.75 22C24.75 23.5166 23.5166 24.75 22 24.75C20.4834 24.75 19.25 23.5166 19.25 22C19.25 20.4834 20.4848 19.25 22 19.25C23.5152 19.25 24.75 20.4834 24.75 22Z" fill="#F95C5B"/>
<path d="M11 8.625V8.25C11 5.97575 12.8507 4.125 15.125 4.125C17.3993 4.125 19.25 5.97575 19.25 8.25V8.625C19.25 9.17728 19.6977 9.625 20.25 9.625H20.625C22.1416 9.625 23.375 10.8584 23.375 12.375C23.375 12.3803 23.3793 12.3846 23.3846 12.3846H26.1154C26.1207 12.3846 26.125 12.3803 26.125 12.375C26.1222 11.136 25.7011 9.93422 24.9299 8.96442C24.2958 8.16695 23.4555 7.56476 22.5061 7.2192C22.1311 7.08271 21.8369 6.77524 21.7289 6.39107C20.917 3.50239 18.2696 1.375 15.125 1.375C11.9804 1.375 9.33304 3.50238 8.52107 6.39107C8.41308 6.77524 8.11892 7.08271 7.74393 7.2192C6.79445 7.56476 5.95419 8.16695 5.32007 8.96442C4.54892 9.93422 4.12782 11.136 4.125 12.375C4.125 15.4082 6.59313 17.875 9.625 17.875H14.125C14.6773 17.875 15.125 17.4273 15.125 16.875V16.125C15.125 15.5727 14.6773 15.125 14.125 15.125H9.625C8.10838 15.125 6.875 13.8916 6.875 12.375C6.875 10.8584 8.10838 9.625 9.625 9.625H10C10.5523 9.625 11 9.17728 11 8.625Z" fill="#1AD1B9"/>
</svg>
