<svg width="79" height="31" viewBox="0 0 79 31" fill="none" xmlns="http://www.w3.org/2000/svg">
<g filter="url(#filter0_n_4463_6702)">
<path d="M38.4447 15.6357C39.6931 14.8273 40.8271 13.8606 41.8792 12.8199C42.1334 12.5528 42.3911 12.2861 42.6454 12.019C42.8807 11.735 43.1127 11.4507 43.348 11.1668C43.8253 10.6025 44.2374 9.96877 44.569 9.31487C44.9109 8.66201 45.187 7.97852 45.3701 7.26457C45.5562 6.55393 45.6795 5.81892 45.6496 5.06826C45.6262 4.32125 45.4741 3.5551 45.1251 2.83162C44.7828 2.10884 44.1998 1.45415 43.4711 0.978953C43.126 0.722379 42.7123 0.530579 42.2946 0.377248C41.8773 0.220955 41.4372 0.119149 40.9926 0.0617408C40.5516 0.00172019 40.1028 -0.0142511 39.6633 0.0125981C39.2207 0.0361412 38.7847 0.0962475 38.362 0.193601C37.5174 0.382391 36.7087 0.724374 36.0168 1.16801C35.315 1.60765 34.7063 2.1465 34.1858 2.73026C33.6619 3.31368 33.2189 3.94722 32.8424 4.60252C32.4526 5.25347 32.1721 5.9455 31.8789 6.62725C31.3417 8.01374 31.0425 9.46044 30.9286 10.9111C30.4403 16.7314 33.3857 22.6037 38.2548 26.0738C39.4699 26.9367 40.7674 27.6674 42.1051 28.2736C43.4511 28.8657 44.8391 29.3156 46.2242 29.6605C47.6147 29.9851 49.0077 30.1843 50.3699 30.2816C50.7121 30.2987 51.0487 30.3032 51.388 30.3139L51.8922 30.3266C52.058 30.3196 52.2269 30.3159 52.3927 30.309C52.7239 30.298 53.0555 30.284 53.38 30.2723C53.7065 30.2399 54.026 30.2097 54.3492 30.177C56.8062 29.9257 58.993 29.2222 60.8743 28.3798C62.7573 27.5196 64.3542 26.4986 65.7038 25.4404C68.4139 23.3191 70.2242 21.1178 71.566 19.1945C72.9052 17.262 73.8018 15.5893 74.4894 14.2122C75.1738 12.8318 75.6396 11.74 75.9878 10.8904C75.9905 11.1329 75.9843 11.3955 75.9732 11.6724C75.952 12.4179 75.8959 13.1687 75.8215 13.8968C75.6727 15.3529 75.4158 16.756 75.1207 17.9609C74.537 20.3743 73.8379 21.9985 74.2441 21.726C74.422 21.6006 74.8623 20.9937 75.3748 20.0174C75.8872 19.0411 76.4681 17.6979 76.9477 16.1351C77.4334 14.5789 77.7987 12.8219 78.0094 11.0642C78.1128 10.1866 78.1825 9.30256 78.2087 8.44099C78.2174 7.64941 78.3008 6.56344 77.9747 5.85128C77.81 5.51148 77.493 5.38338 77.0827 5.59563C76.677 5.79639 76.2496 6.24315 75.8988 6.64689C75.5357 7.0703 75.2674 7.40771 74.9805 7.75817C74.694 8.10568 74.4148 8.44796 74.14 8.78171C73.0406 10.1167 72.0195 11.3252 71.1245 12.3431C69.3373 14.3853 68.055 15.6598 67.9137 16.0999C67.7604 16.5238 68.8104 16.0749 70.5432 14.7329C71.4097 14.0619 72.4407 13.1595 73.556 12.0384C73.9048 11.6883 74.2738 11.3074 74.6327 10.9254C74.2001 11.7932 73.6555 12.8829 72.9131 14.2245C72.1642 15.5624 71.2269 17.1622 69.8879 18.9572C68.5471 20.737 66.7852 22.7339 64.2744 24.6215C63.0132 25.5542 61.5568 26.446 59.878 27.1924C58.1873 27.9198 56.2827 28.5205 54.1451 28.7417C53.8498 28.7713 53.5544 28.8009 53.2557 28.8302C52.9579 28.8506 52.6516 28.8522 52.3476 28.8659L51.8886 28.8818C51.7336 28.8839 51.5799 28.8742 51.4255 28.8704C51.1134 28.8624 50.8016 28.8515 50.486 28.8431C49.2299 28.7506 47.9403 28.5829 46.6543 28.2781C45.373 27.9617 44.0874 27.5522 42.843 27.0093C41.6069 26.4523 40.4061 25.7853 39.2864 24.998C38.1743 24.2026 37.1687 23.2744 36.2798 22.2476C36.0695 21.9838 35.8338 21.7325 35.6386 21.4554C35.4434 21.1782 35.2445 20.9037 35.0493 20.6266C34.6954 20.0521 34.3349 19.474 34.0504 18.8588C33.4559 17.6437 33.0094 16.3601 32.7319 15.0368C32.4681 13.715 32.3796 12.3603 32.4727 11.0121C32.5689 9.66729 32.8436 8.32574 33.3253 7.04423C33.8269 5.77073 34.4736 4.52404 35.389 3.50815C36.2983 2.48565 37.4626 1.69257 38.8208 1.3918C40.1733 1.07849 41.6711 1.22859 42.6967 1.96141C43.228 2.31476 43.6491 2.77048 43.909 3.32336C44.1729 3.87066 44.299 4.48763 44.3202 5.12078C44.3483 5.75463 44.2511 6.40259 44.0834 7.03437C43.9221 7.6698 43.6795 8.29393 43.3715 8.88446C43.0627 9.48387 42.724 10.0384 42.2668 10.5748C42.0466 10.8453 41.8363 11.1199 41.6095 11.3868C41.3701 11.6434 41.1306 11.9 40.8915 12.1537C39.8996 13.1438 38.8414 14.0764 37.6578 14.8555C37.5136 14.9544 37.3722 15.0596 37.2249 15.1551L36.7702 15.4316C36.4662 15.6129 36.1713 15.807 35.8617 15.9757C35.2333 16.3033 34.617 16.647 33.9631 16.921C33.33 17.2272 32.6627 17.464 32.0078 17.714C31.6817 17.8422 31.3392 17.9298 31.0082 18.0395C30.6747 18.14 30.3461 18.2589 30.0051 18.3317C27.3122 19.0403 24.5679 19.343 21.9625 19.1963C19.3586 19.0677 16.9047 18.5477 14.7222 17.7953C12.5407 17.0341 10.6283 16.0611 9.00413 15.0279C5.75789 12.9407 3.71909 10.648 2.49007 9.01218C1.89424 8.17975 1.44944 7.51825 1.19071 7.0552C0.914347 6.59634 0.0225043 1.80604 0.00057165 1.81875C-0.0247646 1.83111 0.813432 6.40358 1.04562 6.89083C1.26019 7.38226 1.6669 8.318 2.22756 9.19169C3.38654 10.907 5.39774 13.3016 8.67583 15.5147C10.3181 16.6066 12.2649 17.6459 14.51 18.4585C16.752 19.2678 19.2929 19.8445 22.0064 20.0112C24.7212 20.1989 27.5848 19.9055 30.4046 19.2009C31.8047 18.8266 33.2126 18.3754 34.5577 17.7653C35.2462 17.4888 35.8882 17.1298 36.5549 16.7972C36.8793 16.618 37.1916 16.4227 37.5132 16.2373L37.9929 15.9514L38.4512 15.6394" fill="#252525"/>
</g>
<defs>
<filter id="filter0_n_4463_6702" x="0" y="0" width="78.2245" height="30.3266" filterUnits="userSpaceOnUse" color-interpolation-filters="sRGB">
<feFlood flood-opacity="0" result="BackgroundImageFix"/>
<feBlend mode="normal" in="SourceGraphic" in2="BackgroundImageFix" result="shape"/>
<feTurbulence type="fractalNoise" baseFrequency="5.8890829086303711 5.8890829086303711" stitchTiles="stitch" numOctaves="3" result="noise" seed="4064" />
<feColorMatrix in="noise" type="luminanceToAlpha" result="alphaNoise" />
<feComponentTransfer in="alphaNoise" result="coloredNoise1">
<feFuncA type="discrete" tableValues="1 1 1 1 1 1 1 1 1 1 1 1 1 1 1 1 1 1 1 1 1 1 1 1 1 1 1 1 1 1 1 1 1 1 1 1 1 1 1 1 1 1 1 1 1 1 1 1 1 1 1 0 0 0 0 0 0 0 0 0 0 0 0 0 0 0 0 0 0 0 0 0 0 0 0 0 0 0 0 0 0 0 0 0 0 0 0 0 0 0 0 0 0 0 0 0 0 0 0 0 "/>
</feComponentTransfer>
<feComposite operator="in" in2="shape" in="coloredNoise1" result="noise1Clipped" />
<feFlood flood-color="rgba(0, 0, 0, 0.25)" result="color1Flood" />
<feComposite operator="in" in2="noise1Clipped" in="color1Flood" result="color1" />
<feMerge result="effect1_noise_4463_6702">
<feMergeNode in="shape" />
<feMergeNode in="color1" />
</feMerge>
</filter>
</defs>
</svg>
