<svg width="54" height="54" viewBox="0 0 54 54" fill="none" xmlns="http://www.w3.org/2000/svg">
<path d="M38.9459 45.7706C38.4679 48.8242 35.7737 51.1616 32.5208 51.1616H8.66163C5.07135 51.1616 2.16174 48.314 2.16174 44.8003V8.52295C2.16174 5.0092 5.07135 2.16162 8.66163 2.16162H32.5208C35.7737 2.16162 38.4679 4.49899 38.9459 7.55258" stroke="white" stroke-width="4.32353" stroke-miterlimit="10" stroke-linecap="round" stroke-linejoin="round"/>
<path d="M30.3958 42.2583H10.7122V42.3016H30.3958V42.2583Z" stroke="white" stroke-width="4.32353" stroke-miterlimit="10" stroke-linecap="round" stroke-linejoin="round"/>
<path d="M51.1618 16.21V37.1123C51.1618 38.1055 50.3224 38.9116 49.2857 38.9116H36.6878C36.5625 38.9116 36.4618 38.814 36.4618 38.6948V14.6284C36.4618 14.5082 36.5635 14.4116 36.6878 14.4116H49.2868C50.3224 14.4106 51.1618 15.2167 51.1618 16.21Z" stroke="white" stroke-width="4.32353" stroke-miterlimit="10" stroke-linecap="round" stroke-linejoin="round"/>
<path d="M36.4619 21.7622H43.8119H36.4619Z" stroke="white" stroke-width="4.32353" stroke-miterlimit="10" stroke-linecap="round" stroke-linejoin="round"/>
</svg>
