<svg width="36" height="36" viewBox="0 0 36 36" fill="none" xmlns="http://www.w3.org/2000/svg">
<circle cx="17.7293" cy="17.7294" r="16.7862" fill="white" stroke="black" stroke-width="1.88609"/>
<path d="M12.8844 20.4524C12.1384 19.4957 11.6937 18.29 11.6937 16.9796C11.6937 13.8739 14.1928 11.356 17.2758 11.356C17.3169 11.356 17.358 11.3566 17.3985 11.3578" stroke="#B11E67" stroke-width="1.13165" stroke-miterlimit="10" stroke-linecap="round"/>
<path d="M19.241 11.3169H23.3921" stroke="#B11E67" stroke-width="1.13165" stroke-miterlimit="10" stroke-linecap="round"/>
<path d="M22.6432 10.1851L23.769 11.2948" stroke="#B11E67" stroke-width="1.13165" stroke-miterlimit="10" stroke-linecap="round"/>
<path d="M22.6432 12.4047L23.769 11.2949" stroke="#B11E67" stroke-width="1.13165" stroke-miterlimit="10" stroke-linecap="round"/>
<path d="M22.6453 15.334C23.252 16.2338 23.6059 17.3198 23.6059 18.4893C23.6059 21.595 21.1069 24.1129 18.0239 24.1129C17.9828 24.1129 17.9417 24.1123 17.9012 24.1111" stroke="#1AD1B9" stroke-width="1.13165" stroke-miterlimit="10" stroke-linecap="round"/>
<path d="M16.2223 24.1475H12.0713" stroke="#1AD1B9" stroke-width="1.13165" stroke-miterlimit="10" stroke-linecap="round"/>
<path d="M12.9291 25.2792L11.8033 24.1694" stroke="#1AD1B9" stroke-width="1.13165" stroke-miterlimit="10" stroke-linecap="round"/>
<path d="M12.9291 23.0596L11.8033 24.1693" stroke="#1AD1B9" stroke-width="1.13165" stroke-miterlimit="10" stroke-linecap="round"/>
<path d="M17.7316 20.248V20.4995V20.751" stroke="#1AD1B9" stroke-width="1.13165" stroke-linecap="round"/>
<path d="M17.7316 14.7134V14.9649V15.2163" stroke="#1AD1B9" stroke-width="1.13165" stroke-linecap="round"/>
<path d="M19.2412 16.4747C19.2412 15.78 18.5654 15.2168 17.7317 15.2168C16.898 15.2168 16.2222 15.78 16.2222 16.4747C16.2222 17.1694 16.898 17.7326 17.7317 17.7326C18.5654 17.7326 19.2412 18.2958 19.2412 18.9905C19.2412 19.6852 18.5654 20.2483 17.7317 20.2483C16.898 20.2483 16.2222 19.6852 16.2222 18.9905" stroke="#1AD1B9" stroke-width="1.13165" stroke-linecap="round"/>
</svg>
