<svg width="36" height="36" viewBox="0 0 36 36" fill="none" xmlns="http://www.w3.org/2000/svg">
<circle cx="17.7293" cy="17.7294" r="16.7862" fill="white" stroke="black" stroke-width="1.88609"/>
<path d="M17.8998 15.7642C18.1423 15.1042 18.5371 14.5145 19.0517 14.0592L21.3958 11.9823C22.1888 11.2797 23.1659 10.8822 24.1726 10.8524L25.7793 10.8043C26.0129 10.7974 26.1294 11.1066 25.9622 11.2905L19.8969 17.9601" stroke="#1AD1B9" stroke-width="1.13165" stroke-miterlimit="10" stroke-linecap="round" stroke-linejoin="round"/>
<path d="M16.2335 22.063L14.1801 24.7019C14.1546 24.7348 14.1281 24.7659 14.1007 24.796C13.5207 25.4339 12.5634 25.4373 11.965 24.7794C11.3447 24.0973 11.3699 22.9889 12.0195 22.3594L14.5655 20.2285" stroke="#1AD1B9" stroke-width="1.13165" stroke-miterlimit="10" stroke-linecap="round" stroke-linejoin="round"/>
<path d="M9.43048 14.0739L12.3288 17.2609C12.6847 17.6522 13.1668 17.8721 13.67 17.8724L14.8307 17.8734C15.2272 17.8738 15.6016 18.0743 15.8463 18.4171L20.2033 24.5203C20.8004 25.3568 21.9283 25.4313 22.6123 24.6792C23.2963 23.9271 23.2286 22.6872 22.4678 22.0303L16.9176 17.2405C16.6055 16.9711 16.4232 16.5587 16.4232 16.1224V14.8502C16.4232 14.2966 16.2232 13.7654 15.8671 13.3738L12.9672 10.1851" stroke="#F95C5B" stroke-width="1.13165" stroke-miterlimit="10" stroke-linecap="round" stroke-linejoin="round"/>
<path d="M13.7706 16.1947L10.636 12.748" stroke="#F95C5B" stroke-width="1.13165" stroke-miterlimit="10" stroke-linecap="round" stroke-linejoin="round"/>
<path d="M14.927 14.9236L11.7922 11.4766" stroke="#F95C5B" stroke-width="1.13165" stroke-miterlimit="10" stroke-linecap="round" stroke-linejoin="round"/>
</svg>
