<svg width="64" height="64" viewBox="0 0 64 64" fill="none" xmlns="http://www.w3.org/2000/svg">
<circle cx="31.8928" cy="31.8931" r="30.1964" fill="white" stroke="black" stroke-width="3.39286"/>
<path d="M16.9642 19.8904L19.4026 19.6531C20.8105 19.5163 22.133 20.3631 22.6188 21.7136L29.0973 39.7233" stroke="#795CF5" stroke-width="2.03571" stroke-miterlimit="10" stroke-linecap="round" stroke-linejoin="round"/>
<path d="M46.8448 34.9707L31.2787 40.76" stroke="#795CF5" stroke-width="2.03571" stroke-miterlimit="10" stroke-linecap="round" stroke-linejoin="round"/>
<path d="M29.1032 45.4639C30.6629 45.4639 31.9273 44.1783 31.9273 42.5923C31.9273 41.0064 30.6629 39.7207 29.1032 39.7207C27.5435 39.7207 26.2791 41.0064 26.2791 42.5923C26.2791 44.1783 27.5435 45.4639 29.1032 45.4639Z" stroke="#795CF5" stroke-width="2.03571" stroke-miterlimit="10" stroke-linecap="round" stroke-linejoin="round"/>
<path d="M42.658 31.1049L35.1791 33.8863C33.8171 34.3927 32.3091 33.6808 31.8105 32.2959L29.075 24.6912C28.577 23.3063 29.2771 21.7729 30.6391 21.2659L38.118 18.4844C39.48 17.978 40.988 18.6899 41.4867 20.0749L44.2222 27.6795C44.7202 29.0644 44.02 30.5978 42.658 31.1049Z" stroke="#F95C5B" stroke-width="2.03571" stroke-miterlimit="10" stroke-linecap="round" stroke-linejoin="round"/>
<path d="M35.8706 19.9492L37.5607 24.6475L35.8706 19.9492Z" stroke="#F95C5B" stroke-width="2.03571" stroke-miterlimit="10" stroke-linecap="round" stroke-linejoin="round"/>
</svg>
