<svg width="36" height="36" viewBox="0 0 36 36" fill="none" xmlns="http://www.w3.org/2000/svg">
<circle cx="17.7293" cy="17.7294" r="16.7862" fill="white" stroke="black" stroke-width="1.88609"/>
<path d="M16.4508 18.4564V24.2347C16.4508 24.3955 16.3231 24.525 16.1647 24.525H10.4712C10.3127 24.525 10.1851 24.3955 10.1851 24.2347V18.4564C10.1851 18.2956 10.3127 18.166 10.4712 18.166H16.1647C16.3231 18.166 16.4508 18.2956 16.4508 18.4564Z" stroke="#795CF5" stroke-width="1.13165"/>
<path d="M24.9935 24.525H19.2998C19.1414 24.525 19.0138 24.3955 19.0138 24.2348V18.4563C19.0138 18.2955 19.1414 18.166 19.2998 18.166H24.9935C25.1519 18.166 25.2795 18.2955 25.2795 18.4563V24.2348C25.2771 24.3955 25.1495 24.525 24.9935 24.525Z" stroke="#F95C5B" stroke-width="1.13165"/>
<path d="M21.0074 11.2297V17.0082C21.0074 17.169 20.8797 17.2985 20.7213 17.2985H15.0278C14.8694 17.2985 14.7417 17.169 14.7417 17.0082V11.2297C14.7417 11.069 14.8694 10.9395 15.0278 10.9395H20.7213C20.8797 10.9395 21.0074 11.069 21.0074 11.2297Z" stroke="#1AD1B9" stroke-width="1.13165"/>
</svg>
