<svg width="44" height="44" viewBox="0 0 44 44" fill="none" xmlns="http://www.w3.org/2000/svg">
<path d="M3.66667 4.58333C3.66667 2.0515 5.71817 0 8.25 0C10.7818 0 12.8333 2.0515 12.8333 4.58333C12.8333 7.11517 10.7818 9.16667 8.25 9.16667C5.71817 9.16667 3.66667 7.11517 3.66667 4.58333ZM12.8333 18.3333C11.8213 18.3333 11 19.1528 11 20.1667V27.5H7.33333C5.31117 27.5 3.66667 25.8555 3.66667 23.8333V18.3333C3.66667 16.3112 5.31117 14.6667 7.33333 14.6667H25.6667C26.6787 14.6667 27.5 13.8472 27.5 12.8333C27.5 11.8195 26.6787 11 25.6667 11H7.33333C3.289 11 0 14.289 0 18.3333V23.8333C0 26.5357 1.485 28.875 3.66667 30.1473V42.1667C3.66667 43.1805 4.488 44 5.5 44C6.512 44 7.33333 43.1805 7.33333 42.1667V31.1667H11V42.1667C11 43.1805 11.8213 44 12.8333 44C13.8453 44 14.6667 43.1805 14.6667 42.1667V20.1667C14.6667 19.1528 13.8453 18.3333 12.8333 18.3333Z" fill="#1AD1B9"/>
<path d="M29.333 29.333C28.3228 29.333 27.4997 28.5117 27.4997 27.4997V23.833C27.4997 22.821 28.3228 21.9997 29.333 21.9997H32.9997C34.0098 21.9997 34.833 22.821 34.833 23.833V27.4997C34.833 28.5117 34.0098 29.333 32.9997 29.333H29.333Z" fill="#F95C5B"/>
<path d="M29.333 34.833V38.4997C29.333 39.5117 28.5098 40.333 27.4997 40.333H23.833C22.8228 40.333 21.9997 39.5117 21.9997 38.4997V34.833C21.9997 33.821 22.8228 32.9997 23.833 32.9997H27.4997C28.5098 32.9997 29.333 33.821 29.333 34.833Z" fill="#F95C5B"/>
<path d="M38.4997 32.9997C39.5098 32.9997 40.333 33.821 40.333 34.833V38.4997C40.333 39.5117 39.5098 40.333 38.4997 40.333H34.833C33.8228 40.333 32.9997 39.5117 32.9997 38.4997V34.833C32.9997 33.821 33.8228 32.9997 34.833 32.9997H38.4997Z" fill="#F95C5B"/>
</svg>
