<svg width="44" height="44" viewBox="0 0 44 44" fill="none" xmlns="http://www.w3.org/2000/svg">
<g clip-path="url(#clip0_1926_3965)">
<path d="M33.209 22.6069C32.8414 22.6123 32.4767 22.6721 32.1266 22.7843C31.4387 20.8428 29.307 19.8264 27.3653 20.5145C27.2386 20.5594 27.1144 20.6111 26.9933 20.6694C26.6447 20.1982 26.1907 19.815 25.6676 19.5504C25.1446 19.2859 24.5669 19.1472 23.9807 19.1456C23.6976 19.1475 23.4156 19.1819 23.1403 19.2482V12.5367C23.0993 10.4522 21.376 8.79561 19.2914 8.83669C17.2648 8.87668 15.6313 10.5101 15.5914 12.5367V26.8954C13.6055 24.9911 10.5301 24.8127 8.33727 26.4745C6.93573 27.5255 6.59848 29.4878 7.56872 30.9464L12.7622 38.7373C13.84 40.3577 15.302 41.6861 17.0179 42.6043C18.7337 43.5225 20.6501 44.0019 22.5962 43.9997H25.2362C29.9652 44.0031 34.24 41.1843 36.0998 36.8365C36.6868 35.4651 36.9873 33.9882 36.9827 32.4966V26.3805C36.9802 24.2974 35.2921 22.6093 33.209 22.6069ZM34.0494 32.4966C34.0514 33.5914 33.8292 34.675 33.3967 35.6807C31.9988 38.9501 28.7845 41.0694 25.2288 41.0663H22.5888C21.1254 41.0674 19.6844 40.7065 18.3944 40.0155C17.1044 39.3246 16.0053 38.3251 15.1953 37.1063L10.0092 29.3184C9.95749 29.2398 9.93764 29.1446 9.95372 29.0519C9.96979 28.9593 10.0206 28.8762 10.0957 28.8197C11.258 27.9395 12.9107 28.1499 13.8152 29.2934L15.9111 31.9114C16.417 32.5441 17.3399 32.6468 17.9726 32.141C18.1443 32.0036 18.2829 31.8295 18.3783 31.6313C18.4736 31.4332 18.5231 31.2161 18.5232 30.9962V12.5367C18.5278 12.4263 18.5542 12.3178 18.6007 12.2175C18.6472 12.1172 18.7131 12.0271 18.7944 11.9522C18.8758 11.8774 18.9711 11.8193 19.0749 11.7813C19.1788 11.7433 19.289 11.7261 19.3995 11.7308C19.6104 11.7396 19.8104 11.8273 19.9596 11.9766C20.1089 12.1259 20.1967 12.3258 20.2055 12.5367V25.2263C20.2055 26.0363 20.8621 26.693 21.6721 26.693C22.4822 26.693 23.1388 26.0364 23.1388 25.2263V22.9193C23.1385 22.4551 23.5146 22.0787 23.9788 22.0784C24.4429 22.0781 24.8194 22.4542 24.8196 22.9184V26.3805C24.8196 27.1904 25.4762 27.8471 26.2863 27.8471C27.0963 27.8471 27.753 27.1905 27.753 26.3805V24.0736C27.7576 23.9631 27.7839 23.8546 27.8305 23.7543C27.877 23.6541 27.9428 23.5639 28.0242 23.4891C28.1056 23.4142 28.2009 23.3562 28.3047 23.3182C28.4085 23.2802 28.5188 23.263 28.6293 23.2676C28.8402 23.2764 29.0401 23.3641 29.1894 23.5134C29.3387 23.6627 29.4264 23.8626 29.4352 24.0736V27.5348C29.4352 28.3448 30.0918 29.0015 30.9019 29.0015C31.7119 29.0015 32.3686 28.3449 32.3686 27.5348V26.3805C32.3683 25.9164 32.7444 25.54 33.2085 25.5397C33.6727 25.5394 34.0491 25.9155 34.0494 26.3797V32.4966Z" fill="#F95C5B"/>
<path d="M20.2 5.86663C20.2 6.67669 19.5433 7.3333 18.7333 7.3333C17.9234 7.3333 17.2667 6.67669 17.2667 5.86671V1.46668C17.2667 0.65661 17.9233 0 18.7333 0C19.5434 0 20.2 0.65661 20.2 1.46668V5.86663Z" fill="#1AD1B9"/>
<path d="M23.6946 8.68824C23.5167 8.76199 23.326 8.79996 23.1334 8.79998C22.7445 8.79989 22.3716 8.6454 22.0967 8.37048C21.5239 7.7978 21.5237 6.86917 22.0964 6.29631L25.2072 3.18551C25.219 3.17326 25.231 3.16127 25.2432 3.14945C25.8259 2.58671 26.7544 2.60291 27.3171 3.18551C27.8799 3.76821 27.8637 4.69666 27.2811 5.25941L24.1703 8.37021C24.0341 8.50643 23.8725 8.6145 23.6946 8.68824Z" fill="#1AD1B9"/>
<path d="M15.3703 8.33433C14.8076 8.91693 13.879 8.93304 13.2964 8.3703L10.1856 5.25959C9.63664 4.69121 9.63664 3.79014 10.1856 3.22175C10.7483 2.63914 11.6769 2.62295 12.2595 3.18569L15.3703 6.29649C15.9193 6.86487 15.9193 7.76594 15.3703 8.33433Z" fill="#1AD1B9"/>
<path d="M12.8667 13.2H8.46668C7.6567 13.2 7 12.5434 7 11.7333C7 10.9233 7.6567 10.2667 8.46668 10.2667H12.8667C13.6768 10.2667 14.3334 10.9233 14.3334 11.7333C14.3334 12.5434 13.6767 13.2 12.8667 13.2Z" fill="#1AD1B9"/>
<path d="M24.1328 11.7333C24.1328 12.5433 24.7894 13.2 25.5995 13.2H29.9995C30.8095 13.2 31.4662 12.5433 31.4662 11.7333C31.4662 10.9232 30.8096 10.2666 29.9995 10.2666H25.5995C24.7894 10.2666 24.1328 10.9232 24.1328 11.7333Z" fill="#1AD1B9"/>
</g>
<defs>
<clipPath id="clip0_1926_3965">
<rect width="44" height="44" fill="white"/>
</clipPath>
</defs>
</svg>
