<svg width="44" height="44" viewBox="0 0 44 44" fill="none" xmlns="http://www.w3.org/2000/svg">
<g clip-path="url(#clip0_1926_3960)">
<path d="M42.1667 33.0002H33.2292C33.1577 33.0002 23.6757 24.7062 23.6757 24.7062L23.6225 24.6585L25.6997 22.7445C26.2093 22.2642 26.8748 22.002 27.5715 22.002C27.7145 22.002 28.5358 22.0478 30.7047 22.9682C32.0632 23.542 33.4785 23.8353 34.9067 23.8353H42.1685C43.1823 23.8353 44.0018 23.0158 44.0018 22.002C44.0018 20.9882 43.1823 20.1687 42.1685 20.1687H34.9067C33.9698 20.1687 33.0367 19.9762 32.1347 19.593C29.1738 18.3353 27.9675 18.3353 27.5715 18.3353C25.938 18.3353 24.3833 18.9513 23.2027 20.0587L22.0422 21.1275L20.8047 20C19.624 18.9257 18.095 18.3335 16.4578 18.3335C16.0563 18.3335 14.839 18.3335 11.8727 19.5912C10.9652 19.9743 10.0302 20.1668 9.0915 20.1668H1.83333C0.8195 20.1668 0 20.9863 0 22.0002C0 23.014 0.8195 23.8335 1.83333 23.8335H9.0915C10.5215 23.8335 11.9368 23.542 13.299 22.9663C14.9838 22.2532 16.0343 22.0002 16.5 22.0002C17.1802 22.0002 17.8328 22.2532 18.337 22.7115L19.338 23.6227L15.5448 27.1207C14.5145 28.151 14.3697 29.735 15.1983 30.8845C15.6952 31.5793 16.467 32.0157 17.314 32.0835C18.1518 32.1568 18.9933 31.847 19.5452 31.2897L22.4858 28.5525L29.8687 35.1323L24.1523 39.5947C22.9277 40.548 21.076 40.548 19.8513 39.5947L11.9002 33.3888C11.5775 33.1358 11.1797 33.0002 10.7727 33.0002H1.83333C0.8195 33.0002 0 33.8197 0 34.8335C0 35.8473 0.8195 36.6668 1.83333 36.6668H10.1402L17.5927 42.484C18.8467 43.4612 20.4105 44.0002 21.9982 44.0002C23.5858 44.0002 25.1515 43.4612 26.4037 42.484L33.8562 36.6668H42.163C43.1768 36.6668 43.9963 35.8473 43.9963 34.8335C43.9963 33.8197 43.1768 33.0002 42.163 33.0002H42.1667Z" fill="#795CF5"/>
<path d="M14.7646 5.55719C14.0386 6.26119 14.0185 7.42169 14.7225 8.14953L14.7206 8.15136C15.4246 8.87553 16.5851 8.89753 17.313 8.19353L20.1638 5.46186V14.667C20.1638 15.6809 20.9833 16.5004 21.9971 16.5004C23.011 16.5004 23.8305 15.6809 23.8305 14.667V5.44536L27.1378 8.65003C27.4935 8.99469 27.9536 9.16703 28.4138 9.16703C28.8923 9.16703 29.3708 8.98003 29.7301 8.60969C30.436 7.88369 30.4176 6.72136 29.6916 6.01736L24.5913 1.07469C23.1631 -0.355306 20.8403 -0.358973 19.4286 1.05269L14.7646 5.55719Z" fill="#1AD1B9"/>
</g>
<defs>
<clipPath id="clip0_1926_3960">
<rect width="44" height="44" fill="white"/>
</clipPath>
</defs>
</svg>
