<?xml version="1.0" encoding="UTF-8"?>
<svg id="Layer_1" xmlns="http://www.w3.org/2000/svg" version="1.1" viewBox="0 0 1080 1080">
  <!-- Generator: Adobe Illustrator 30.0.0, SVG Export Plug-In . SVG Version: 2.1.1 Build 123)  -->
  <defs>
    <style>
      .st0 {
        fill: #545454;
      }
    </style>
  </defs>
  <rect class="st0" x="748.34" y="570.27" width="302.38" height="10.22"/>
  <polygon class="st0" points="29.17 570.28 331.56 570.27 331.59 579.31 29.17 580.5 29.17 570.28"/>
  <path class="st0" d="M417.36,543.72l12.27-.02v8.19c24.46-20.76,50.8-1.74,44.47,29.16-3.62,17.69-25.79,22.23-39.91,14.4-3.14-1.74-1.39-5.09-4.56-4.74v28.6h-12.26v-75.59ZM463.31,571.29c0-9.5-7.7-17.21-17.21-17.21s-17.21,7.7-17.21,17.21,7.7,17.21,17.21,17.21,17.21-7.7,17.21-17.21Z"/>
  <path class="st0" d="M500.54,544.15c21.12-4.8,40.75,6.4,39.56,29.25-2.09,39.91-70.64,32.56-56.45-13.45,1.5-4.85,11.86-14.66,16.89-15.8ZM528.24,571.4c0-9.46-7.67-17.13-17.13-17.13s-17.13,7.67-17.13,17.13,7.67,17.13,17.13,17.13,17.13-7.67,17.13-17.13Z"/>
  <path class="st0" d="M405.1,547.84l-4.12,10.18c-7.84-3.33-27.94-9.69-23.27,4.24,49.92,8.73,24.52,54.15-14.65,30.53l4.24-10.21c6,11.71,36.99,5.1,22.08-3.73-9.34-5.53-27.36-4.28-25.1-21.66,2.38-18.28,28.67-15.16,40.82-9.34Z"/>
  <path class="st0" d="M666.62,555.98h-8.19s0-10.23,0-10.23l8.21.03c-3.38-19.58,11.66-28.97,29.47-22.66,5.15,19.87-21.61.53-17.23,22.65h14.32s0,10.23,0,10.23h-14.31s0,42.89,0,42.89h-12.26v-42.91Z"/>
  <path class="st0" d="M595.11,555.98h-8.19s0-10.23,0-10.23l8.21.02-.02-16.37,11.37,1.92.88,14.44h16.36s-1.92,9.31-1.92,9.31l-14.43.9v29.62l3.32,2.93,10.89-1.86,2.1,10.1c-7.36,3.92-28.56,3.73-28.56-7.08v-33.71Z"/>
  <path class="st0" d="M552.21,543.72l12.27-.02v8.19c5.82-4.3,10.19-9.54,18.37-8.18v12.26c-4.93-3.25-18.38,6.25-18.38,9.2v33.71h-12.26v-55.16Z"/>
  <rect class="st0" x="633.93" y="543.72" width="14.3" height="55.16"/>
  <rect class="st0" x="699.31" y="543.72" width="12.26" height="55.16"/>
  <circle class="st0" cx="641.08" cy="527.84" r="7.39"/>
  <circle class="st0" cx="705.89" cy="528.38" r="7.4"/>
</svg>