<svg width="44" height="44" viewBox="0 0 44 44" fill="none" xmlns="http://www.w3.org/2000/svg">
<path d="M42.1662 27.0416C42.1662 30.5726 40.5767 33.8506 37.8011 36.0396C37.0054 36.6666 35.8541 36.5309 35.2271 35.7353C34.6001 34.9396 34.7357 33.7883 35.5314 33.1613C37.4179 31.6726 38.4996 29.4433 38.4996 27.0416C38.4996 24.0294 36.7909 21.3436 34.0409 20.0309C33.4029 19.7266 32.9977 19.0831 32.9977 18.3773C32.9977 11.2584 27.2411 5.50175 20.1662 5.50175C13.0914 5.50175 7.33289 11.2584 7.33289 18.3351C7.33289 20.4746 7.84256 22.5114 8.85089 24.3906C9.09289 24.8416 9.13506 25.3714 8.96822 25.8554C8.80139 26.3394 8.44022 26.7318 7.97272 26.9371C6.46939 27.5953 5.49772 29.0784 5.49772 30.7119C5.49772 32.3821 6.49505 33.8781 8.03689 34.5216C8.97189 34.9121 9.41372 35.9846 9.02322 36.9196C8.63272 37.8638 7.53639 38.2928 6.62522 37.9059C3.71205 36.6904 1.83105 33.8671 1.83105 30.7119C1.83105 28.2626 2.98422 25.9948 4.87439 24.5409C4.07872 22.5774 3.66439 20.4618 3.66439 18.3369C3.66622 9.23625 11.0674 1.83325 20.1662 1.83325C28.9057 1.83325 36.0814 8.66242 36.6314 17.2663C40.0726 19.3361 42.1662 22.9863 42.1662 27.0416Z" fill="#1AD1B9"/>
<path d="M29.0231 37.338C29.8829 37.8385 31.0178 37.5525 31.5274 36.667C32.0353 35.7925 31.7346 34.6687 30.8564 34.1627L29.1569 33.1818C29.2633 32.5603 29.3329 31.9003 29.3329 31.167C29.3329 30.4337 29.2633 29.7737 29.1569 29.1522L30.8564 28.1713C31.7328 27.6653 32.0334 26.5433 31.5274 25.667C31.0178 24.7815 29.8848 24.4955 29.0231 24.996L27.6334 25.799C26.7314 24.8292 25.4719 24.2168 23.8348 23.9693V22.0003C23.8348 20.9865 23.0153 20.167 22.0014 20.167C20.9876 20.167 20.1681 20.9865 20.1681 22.0003V23.9693C18.5291 24.2168 17.2714 24.8292 16.3694 25.799L14.9798 24.996C14.1199 24.4955 12.9851 24.7815 12.4754 25.667C11.9676 26.5415 12.2683 27.6653 13.1464 28.1713L14.8459 29.1522C14.7396 29.7737 14.6699 30.4337 14.6699 31.167C14.6699 31.9003 14.7396 32.5603 14.8459 33.1818L13.1464 34.1627C12.2701 34.6687 11.9694 35.7907 12.4754 36.667C12.9851 37.5525 14.1181 37.8385 14.9798 37.338L16.3694 36.535C17.2714 37.5048 18.5309 38.1172 20.1681 38.3647V40.3337C20.1681 41.3475 20.9876 42.167 22.0014 42.167C23.0153 42.167 23.8348 41.3475 23.8348 40.3337V38.3647C25.4738 38.1172 26.7314 37.5048 27.6334 36.535L29.0231 37.338Z" fill="#F95C5B"/>
<circle cx="22" cy="31" r="5" fill="white"/>
</svg>
