<svg width="20" height="20" viewBox="0 0 20 20" fill="none" xmlns="http://www.w3.org/2000/svg">
<g clip-path="url(#clip0_33153_5158)">
<path d="M8.8329 2.30522C8.98329 2.46352 9.16431 2.58957 9.36495 2.67571C9.56559 2.76185 9.78165 2.80627 10 2.80627C10.2183 2.80627 10.4344 2.76185 10.6351 2.67571C10.8357 2.58957 11.0167 2.46352 11.1671 2.30522L11.9237 1.50032C12.1468 1.27833 12.4302 1.12663 12.7386 1.06397C13.0471 1.00131 13.3671 1.03046 13.6592 1.1478C13.9512 1.26514 14.2025 1.46552 14.3819 1.72417C14.5612 1.98281 14.6609 2.28836 14.6684 2.60303L14.612 3.72988C14.6021 3.95056 14.6378 4.17093 14.7167 4.37725C14.7956 4.58357 14.9162 4.77145 15.0708 4.92917C15.2286 5.08384 15.4164 5.20439 15.6228 5.28332C15.8291 5.36225 16.0494 5.39787 16.2701 5.38796L17.397 5.33162C17.7144 5.33295 18.0243 5.42808 18.2878 5.60506C18.5513 5.78203 18.7566 6.03295 18.8778 6.32627C18.9991 6.61959 19.031 6.94222 18.9694 7.25359C18.9079 7.56497 18.7556 7.8512 18.5319 8.0763L17.727 8.8329C17.5687 8.98329 17.4426 9.16431 17.3565 9.36495C17.2703 9.56559 17.2259 9.78165 17.2259 10C17.2259 10.2183 17.2703 10.4344 17.3565 10.6351C17.4426 10.8357 17.5687 11.0167 17.727 11.1671L18.5319 11.9237C18.7556 12.1488 18.9079 12.435 18.9694 12.7464C19.031 13.0578 18.9991 13.3804 18.8778 13.6737C18.7566 13.967 18.5513 14.218 18.2878 14.3949C18.0243 14.5719 17.7144 14.667 17.397 14.6684L16.2701 14.612C16.0506 14.6053 15.832 14.6437 15.6278 14.7246C15.4236 14.8056 15.2381 14.9275 15.0828 15.0828C14.9275 15.2381 14.8056 15.4236 14.7246 15.6278C14.6437 15.832 14.6053 16.0506 14.612 16.2701L14.6684 17.397C14.667 17.7144 14.5719 18.0243 14.3949 18.2878C14.218 18.5513 13.967 18.7566 13.6737 18.8778C13.3804 18.9991 13.0578 19.031 12.7464 18.9694C12.435 18.9079 12.1488 18.7556 11.9237 18.5319L11.1671 17.727C11.0167 17.5687 10.8357 17.4426 10.6351 17.3565C10.4344 17.2703 10.2183 17.2259 10 17.2259C9.78165 17.2259 9.56559 17.2703 9.36495 17.3565C9.16431 17.4426 8.98329 17.5687 8.8329 17.727L8.0763 18.5319C7.8512 18.7556 7.56497 18.9079 7.25359 18.9694C6.94222 19.031 6.61959 18.9991 6.32627 18.8778C6.03295 18.7566 5.78203 18.5513 5.60506 18.2878C5.42808 18.0243 5.33295 17.7144 5.33162 17.397L5.38796 16.2701C5.39787 16.0494 5.36225 15.8291 5.28332 15.6228C5.20439 15.4164 5.08384 15.2286 4.92917 15.0708C4.77145 14.9162 4.58357 14.7956 4.37725 14.7167C4.17093 14.6378 3.95056 14.6021 3.72988 14.612L2.60303 14.6684C2.28563 14.667 1.9757 14.5719 1.71222 14.3949C1.44873 14.218 1.24344 13.967 1.12216 13.6737C1.00087 13.3804 0.969008 13.0578 1.03057 12.7464C1.09212 12.435 1.24436 12.1488 1.46813 11.9237L2.27302 11.1671C2.43132 11.0167 2.55738 10.8357 2.64351 10.6351C2.72965 10.4344 2.77407 10.2183 2.77407 10C2.77407 9.78165 2.72965 9.56559 2.64351 9.36495C2.55738 9.16431 2.43132 8.98329 2.27302 8.8329L1.46813 8.0763C1.24436 7.8512 1.09212 7.56497 1.03057 7.25359C0.969008 6.94222 1.00087 6.61959 1.12216 6.32627C1.24344 6.03295 1.44873 5.78203 1.71222 5.60506C1.9757 5.42808 2.28563 5.33295 2.60303 5.33162L3.72988 5.38796C3.95056 5.39787 4.17093 5.36225 4.37725 5.28332C4.58357 5.20439 4.77145 5.08384 4.92917 4.92917C5.08384 4.77145 5.20439 4.58357 5.28332 4.37725C5.36225 4.17093 5.39787 3.95056 5.38796 3.72988L5.33162 2.60303C5.33295 2.28563 5.42808 1.9757 5.60506 1.71222C5.78203 1.44873 6.03295 1.24344 6.32627 1.12216C6.61959 1.00087 6.94222 0.969008 7.25359 1.03057C7.56497 1.09212 7.8512 1.24436 8.0763 1.46813L8.8329 2.30522Z" stroke="#F95C5B" stroke-width="1.3" stroke-linecap="round" stroke-linejoin="round"/>
<path d="M10 13V7H7V13H10ZM10 13H13V9.2H10V13Z" stroke="#795CF5" stroke-linecap="round" stroke-linejoin="round"/>
<path d="M6 13L14 13" stroke="#795CF5" stroke-linecap="round" stroke-linejoin="round"/>
</g>
<defs>
<clipPath id="clip0_33153_5158">
<rect width="20" height="20" fill="white"/>
</clipPath>
</defs>
</svg>
