<svg width="41" height="41" viewBox="0 0 41 41" fill="none" xmlns="http://www.w3.org/2000/svg">
<g clip-path="url(#clip0_2343_6171)">
<path d="M39.2913 3.41697C38.8382 3.41697 38.4037 3.59696 38.0833 3.91733C37.763 4.23771 37.583 4.67223 37.583 5.12531V9.18089C35.803 6.49466 33.4149 4.26588 30.6123 2.67539C27.8097 1.0849 24.6716 0.177503 21.4527 0.0268208C18.2338 -0.123861 15.0247 0.486418 12.0858 1.80814C9.14691 3.12986 6.56099 5.1258 4.53786 7.634C2.51474 10.1422 1.1114 13.092 0.441713 16.2441C-0.227972 19.3962 -0.145141 22.6617 0.683485 25.7758C1.51211 28.8899 3.06319 31.7648 5.21087 34.1672C7.35856 36.5696 10.0423 38.4319 13.0445 39.6029C13.2429 39.6794 13.4537 39.7188 13.6663 39.7191C14.065 39.7197 14.4513 39.5808 14.7584 39.3266C15.0654 39.0724 15.2739 38.7188 15.3477 38.327C15.4216 37.9353 15.356 37.53 15.1625 37.1815C14.969 36.8329 14.6597 36.5631 14.2881 36.4186C11.7394 35.433 9.46418 33.8504 7.65363 31.8035C5.84308 29.7567 4.54997 27.3053 3.88287 24.6553C3.21576 22.0053 3.19413 19.2339 3.81977 16.5738C4.44542 13.9136 5.70009 11.4424 7.47846 9.36756C9.25684 7.2927 11.507 5.67474 14.0401 4.64949C16.5732 3.62425 19.3153 3.22164 22.0362 3.47548C24.7571 3.72931 27.3774 4.63217 29.6771 6.10827C31.9768 7.58437 33.8889 9.59063 35.2528 11.9586H30.7496C30.2966 11.9586 29.862 12.1386 29.5417 12.459C29.2213 12.7794 29.0413 13.2139 29.0413 13.667C29.0413 14.1201 29.2213 14.5546 29.5417 14.8749C29.862 15.1953 30.2966 15.3753 30.7496 15.3753H35.8746C37.2339 15.3753 38.5374 14.8354 39.4986 13.8742C40.4597 12.9131 40.9996 11.6095 40.9996 10.2503V5.12531C40.9996 4.67223 40.8197 4.23771 40.4993 3.91733C40.1789 3.59696 39.7444 3.41697 39.2913 3.41697Z" fill="#F95C5B"/>
<path d="M23.4206 37.5833C23.8836 37.1802 24.4285 36.7736 24.941 36.3875L24.9431 36.386C26.8644 34.9445 29.041 33.3116 29.041 30.75C29.041 29.3908 28.5011 28.0872 27.5399 27.1261C26.5788 26.165 25.2753 25.625 23.916 25.625C22.5568 25.625 21.2532 26.165 20.2921 27.1261C19.331 28.0872 18.791 29.3908 18.791 30.75C18.791 31.2031 18.971 31.6376 19.2914 31.958C19.6118 32.2784 20.0463 32.4583 20.4993 32.4583C20.9524 32.4583 21.3869 32.2784 21.7073 31.958C22.0277 31.6376 22.2077 31.2031 22.2077 30.75C22.2077 30.2969 22.3877 29.8624 22.708 29.542C23.0284 29.2217 23.4629 29.0417 23.916 29.0417C24.3691 29.0417 24.8036 29.2217 25.124 29.542C25.4444 29.8624 25.6244 30.2969 25.6244 30.75C25.6244 31.6042 24.1723 32.6941 22.891 33.6542L22.889 33.6557C20.9676 35.0972 18.791 36.7301 18.791 39.2917C18.791 39.7447 18.971 40.1793 19.2914 40.4996C19.6118 40.82 20.0463 41 20.4993 41H27.3327C27.7858 41 28.2203 40.82 28.5407 40.4996C28.861 40.1793 29.041 39.7447 29.041 39.2917C29.041 38.8386 28.861 38.4041 28.5407 38.0837C28.2203 37.7633 27.7858 37.5833 27.3327 37.5833H23.4206Z" fill="#1AD1B9"/>
<path d="M38.083 26.1254C38.4034 25.805 38.8379 25.625 39.291 25.625C39.7441 25.625 40.1786 25.805 40.499 26.1254C40.8194 26.4457 40.9994 26.8803 40.9994 27.3333V39.2917C40.9994 39.7447 40.8194 40.1793 40.499 40.4996C40.1786 40.82 39.7441 41 39.291 41C38.8379 41 38.4034 40.82 38.083 40.4996C37.7627 40.1793 37.5827 39.7447 37.5827 39.2917V35.875H35.8744C34.5151 35.875 33.2116 35.3351 32.2504 34.3739C31.2893 33.4128 30.7494 32.1092 30.7494 30.75V27.3333C30.7494 26.8803 30.9293 26.4457 31.2497 26.1254C31.5701 25.805 32.0046 25.625 32.4577 25.625C32.9108 25.625 33.3453 25.805 33.6657 26.1254C33.986 26.4457 34.166 26.8803 34.166 27.3333V30.75C34.166 31.2031 34.346 31.6376 34.6664 31.958C34.9867 32.2784 35.4213 32.4583 35.8744 32.4583H37.5827V27.3333C37.5827 26.8803 37.7627 26.4457 38.083 26.1254Z" fill="#1AD1B9"/>
<path d="M22.209 11.9583V20.5C22.209 20.9531 22.029 21.3876 21.7086 21.708C21.3883 22.0283 20.9537 22.2083 20.5007 22.2083H13.6673C13.2142 22.2083 12.7797 22.0283 12.4593 21.708C12.139 21.3876 11.959 20.9531 11.959 20.5C11.959 20.0469 12.139 19.6124 12.4593 19.292C12.7797 18.9717 13.2142 18.7917 13.6673 18.7917H18.7923V11.9583C18.7923 11.5053 18.9723 11.0707 19.2927 10.7504C19.6131 10.43 20.0476 10.25 20.5007 10.25C20.9537 10.25 21.3883 10.43 21.7086 10.7504C22.029 11.0707 22.209 11.5053 22.209 11.9583Z" fill="#B11E67"/>
</g>
<defs>
<clipPath id="clip0_2343_6171">
<rect width="41" height="41" fill="white"/>
</clipPath>
</defs>
</svg>
