<svg width="44" height="44" viewBox="0 0 44 44" fill="none" xmlns="http://www.w3.org/2000/svg">
<g clip-path="url(#clip0_2343_6154)">
<path d="M26.5839 22.9166C26.5839 25.4484 24.5324 27.4999 22.0006 27.4999C19.4688 27.4999 17.4173 25.4484 17.4173 22.9166C17.4173 20.3848 19.4688 18.3333 22.0006 18.3333C24.5324 18.3333 26.5839 20.3848 26.5839 22.9166ZM39.7491 20.9494L34.9751 27.7713C34.2894 28.7503 33.1674 29.3351 31.9721 29.3351H12.0309C10.8356 29.3351 9.71177 28.7521 9.02793 27.7713L4.25393 20.9494C3.6746 20.1208 2.5306 19.9191 1.7001 20.4984C0.869599 21.0778 0.669766 22.2218 1.2491 23.0523L6.0231 29.8741C7.39443 31.8321 9.64027 33.0018 12.0309 33.0018H14.6673V42.1684C14.6673 43.1822 15.4886 44.0018 16.5006 44.0018C17.5126 44.0018 18.3339 43.1822 18.3339 42.1684V33.0018H25.6673V42.1684C25.6673 43.1822 26.4886 44.0018 27.5006 44.0018C28.5126 44.0018 29.3339 43.1822 29.3339 42.1684V33.0018H31.9703C34.3609 33.0018 36.6068 31.8321 37.9781 29.8741L42.7521 23.0523C43.3314 22.2236 43.1316 21.0796 42.3011 20.4984C41.4724 19.9209 40.3321 20.1208 39.7491 20.9494Z" fill="#795CF5"/>
<path d="M20.1669 9.16661H16.5002C15.4882 9.16661 14.6669 8.34528 14.6669 7.33145C14.6669 6.31761 15.4882 5.49811 16.5002 5.49811H20.1669V3.75828C20.1669 2.81411 21.309 2.33928 21.9782 3.00845L25.2177 6.24794C25.8172 6.84745 25.8172 7.81728 25.2177 8.41678L21.9782 11.6563C21.309 12.3254 20.1669 11.8524 20.1669 10.9064V9.16661Z" fill="#F95C5B"/>
<path d="M4.89336 0.174112C2.58886 0.705778 0.687692 2.61611 0.167025 4.92978C-0.382975 7.37544 0.427359 9.77528 2.33953 11.3501C3.18103 12.0413 3.66503 12.9928 3.66503 13.9608V14.6684C3.66503 15.6823 4.48636 16.5018 5.49836 16.5018H7.33169C8.34369 16.5018 9.16503 15.6823 9.16503 14.6684V13.9626C9.16503 12.9946 9.65269 12.0413 10.5015 11.3409C11.9829 10.1199 12.8317 8.32328 12.8317 6.41661C12.8317 4.45311 11.9499 2.62344 10.4117 1.39511C8.85336 0.153945 6.89536 -0.282388 4.89336 0.174112Z" fill="#F95C5B"/>
<path d="M41.2759 13.3393C41.9047 13.3393 42.517 13.0166 42.858 12.4354C43.3714 11.5646 43.0799 10.4389 42.2072 9.92561L41.9615 9.78078C42.0844 9.28761 42.1669 8.77978 42.1669 8.24995C42.1669 7.72011 42.0825 7.21228 41.9615 6.71911L42.2072 6.57428C43.0799 6.06095 43.3714 4.93711 42.858 4.06445C42.3447 3.18994 41.2209 2.90211 40.3482 3.41361L40.097 3.56211C39.3875 2.90394 38.5295 2.41995 37.5817 2.13394V1.83511C37.5817 0.821278 36.7604 0.00177824 35.7484 0.00177824C34.7364 0.00177824 33.915 0.821278 33.915 1.83511V2.13394C32.9654 2.41995 32.1092 2.90394 31.3997 3.56211L31.1485 3.41361C30.2759 2.89845 29.152 3.18811 28.6387 4.06445C28.1254 4.93528 28.4169 6.06095 29.2895 6.57428L29.5352 6.71911C29.4124 7.21228 29.3299 7.72011 29.3299 8.24995C29.3299 8.77978 29.4142 9.28761 29.5352 9.78078L29.2895 9.92561C28.4169 10.4389 28.1254 11.5628 28.6387 12.4354C28.9797 13.0166 29.592 13.3393 30.2209 13.3393C30.538 13.3393 30.857 13.2586 31.1485 13.0863L31.3997 12.9378C32.1092 13.5959 32.9672 14.0799 33.915 14.3659V14.6648C33.915 15.6786 34.7364 16.4981 35.7484 16.4981C36.7604 16.4981 37.5817 15.6786 37.5817 14.6648V14.3659C38.5314 14.0799 39.3875 13.5959 40.097 12.9378L40.3482 13.0863C40.6397 13.2586 40.9605 13.3393 41.2759 13.3393Z" fill="#F95C5B"/>
<circle cx="6.5" cy="6.5" r="3.5" fill="white"/>
<circle cx="35.5" cy="8.5" r="3.5" fill="white"/>
</g>
<defs>
<clipPath id="clip0_2343_6154">
<rect width="44" height="44" fill="white"/>
</clipPath>
</defs>
</svg>
