<svg width="47" height="47" viewBox="0 0 47 47" fill="none" xmlns="http://www.w3.org/2000/svg">
<g clip-path="url(#clip0_2327_3868)">
<path d="M36.7188 23.5C36.7188 21.2969 34.9562 19.3875 32.7531 19.0938C31.1375 15.5687 27.6125 13.2188 23.5 13.2188C23.2063 13.2188 22.7656 13.2188 22.4719 13.3656C21.5906 12.3375 20.4156 11.75 19.0938 11.75C16.5969 11.75 14.6875 13.6594 14.6875 16.1562C14.6875 16.7438 14.8344 17.1844 14.9812 17.7719C13.8062 19.3875 13.2188 21.2969 13.2188 23.5C13.2188 26.8047 13.8062 27.6125 14.9812 29.2281C14.8344 29.8156 14.6875 30.2563 14.6875 30.8438C14.6875 33.3406 16.5969 35.25 19.0938 35.25C20.4156 35.25 21.5906 34.6625 22.4719 33.6344C22.7656 33.6344 23.2063 33.7812 23.5 33.7812C27.6125 33.7812 31.1375 31.2844 32.7531 27.9062C34.9562 27.6125 36.7188 25.7031 36.7188 23.5ZM19.0938 14.6875C19.975 14.6875 20.5625 15.275 20.5625 16.1562C20.5625 17.0375 19.975 17.625 19.0938 17.625C18.2125 17.625 17.625 17.0375 17.625 16.1562C17.625 15.275 18.2125 14.6875 19.0938 14.6875ZM19.0938 32.3125C18.2125 32.3125 17.625 31.725 17.625 30.8438C17.625 29.9625 18.2125 29.375 19.0938 29.375C19.975 29.375 20.5625 29.9625 20.5625 30.8438C20.5625 31.725 19.975 32.3125 19.0938 32.3125ZM23.5 30.8438C23.5 28.3469 21.5906 26.4375 19.0938 26.4375C18.3594 26.4375 17.625 26.5844 17.0375 27.025C16.45 25.9969 16.1562 24.8219 16.1562 23.5C16.1562 21.5172 16.45 21.0031 17.0375 19.975C17.625 20.4156 18.3594 20.5625 19.0938 20.5625C21.5906 20.5625 23.5 18.6531 23.5 16.1562C26.2906 16.1562 28.4937 17.625 29.8156 19.8281C28.6406 20.7094 27.9062 22.0312 27.9062 23.5C27.9062 24.9688 28.6406 26.2906 29.8156 27.1719C28.4937 29.375 26.2906 30.8438 23.5 30.8438ZM32.3125 24.9688C31.4312 24.9688 30.8438 24.3813 30.8438 23.5C30.8438 22.6187 31.4312 22.0312 32.3125 22.0312C33.1938 22.0312 33.7812 22.6187 33.7812 23.5C33.7812 24.3813 33.1938 24.9688 32.3125 24.9688Z" fill="#1AD1B9"/>
<path d="M23.5 45.531C23.2062 45.531 23.0594 45.531 22.7656 45.3841L5.14062 35.1028C4.7 34.8091 4.40625 34.3685 4.40625 33.781V13.2185C4.40625 12.631 4.7 12.1903 5.14062 11.8966L22.7656 1.61533C23.2062 1.32158 23.7938 1.32158 24.2344 1.61533L40.5993 11.1615C41.2945 11.5671 41.5278 12.4603 41.1197 13.154C40.7158 13.8407 39.8344 14.0742 39.1434 13.6777L24.5024 5.27498C23.8822 4.91904 23.1191 4.9213 22.5011 5.28091L8.33796 13.5213C7.72242 13.8794 7.34375 14.5378 7.34375 15.25V31.8963C7.34375 32.6085 7.72242 33.2669 8.33796 33.625L22.4942 41.8614C23.1159 42.2231 23.8841 42.2231 24.5058 41.8614L38.662 33.625C39.2776 33.2669 39.6562 32.6085 39.6562 31.8963V23.4996C39.6562 22.6885 40.3137 22.0309 41.1249 22.0308C41.9361 22.0307 42.5938 22.6883 42.5938 23.4996V33.781C42.5938 34.3685 42.3 34.8091 41.8594 35.1028L24.2344 45.3841C23.9406 45.531 23.7938 45.531 23.5 45.531Z" fill="#795CF5"/>
</g>
<defs>
<clipPath id="clip0_2327_3868">
<rect width="47" height="47" fill="white"/>
</clipPath>
</defs>
</svg>
