<svg width="44" height="44" viewBox="0 0 44 44" fill="none" xmlns="http://www.w3.org/2000/svg">
<g clip-path="url(#clip0_2343_6165)">
<path d="M42.5993 23.8609L30.1253 37.8621C26.6493 41.7634 21.659 44.0001 16.4358 44.0001H7.33333C3.289 44.0001 0 40.7111 0 36.6667V27.5001C0 23.4557 3.289 20.1667 7.33333 20.1667H23.5712C25.6612 20.1667 27.4927 21.2832 28.501 22.9516L34.3988 16.4726C35.3907 15.3817 36.7473 14.7437 38.2213 14.6741C39.677 14.6191 41.1052 15.1122 42.1978 16.1077C44.4235 18.1354 44.6032 21.6151 42.5975 23.8627L42.5993 23.8609ZM39.7302 18.8156C39.3653 18.4819 38.8887 18.2986 38.3955 18.3334C37.9005 18.3572 37.444 18.5717 37.1122 18.9366L28.9978 27.8557C28.292 29.8174 26.543 31.3207 24.3888 31.6287L14.927 32.9799C13.9168 33.1156 12.9947 32.4262 12.8517 31.4234C12.7087 30.4206 13.4053 29.4911 14.4082 29.3481L23.87 27.9969C24.8967 27.8521 25.6667 26.9611 25.6667 25.9252C25.6667 24.7702 24.7262 23.8297 23.5712 23.8297H7.33333C5.31117 23.8297 3.66667 25.4742 3.66667 27.4964V36.6631C3.66667 38.6852 5.31117 40.3297 7.33333 40.3297H16.4358C20.614 40.3297 24.6052 38.5386 27.3882 35.4201L39.8622 21.4171C40.5368 20.6617 40.4782 19.4921 39.7302 18.8119V18.8156Z" fill="#1AD1B9"/>
<path d="M15.5826 0C13.0508 0 10.9993 2.0515 10.9993 4.58333C10.9993 7.11517 13.0508 9.16667 15.5826 9.16667C18.1145 9.16667 20.166 7.11517 20.166 4.58333C20.166 2.0515 18.1145 0 15.5826 0Z" fill="#F95C5B"/>
<path d="M20.6866 16.863C17.9238 14.0305 13.2433 14.0305 10.4786 16.863C9.77097 17.5908 8.61047 17.6018 7.8863 16.896C7.1603 16.1883 7.14564 15.0297 7.8533 14.3037C9.9323 12.1733 12.6768 11 15.5826 11C18.4885 11 21.233 12.1733 23.312 14.3037C24.0178 15.0278 24.005 16.1883 23.279 16.896C22.9233 17.2425 22.4613 17.4167 21.9993 17.4167C21.5226 17.4167 21.046 17.2315 20.6866 16.863Z" fill="#F95C5B"/>
</g>
<defs>
<clipPath id="clip0_2343_6165">
<rect width="44" height="44" fill="white"/>
</clipPath>
</defs>
</svg>
